<svg id="Layer_1" data-name="Layer 1" xmlns="http://www.w3.org/2000/svg" viewBox="0 0 190.37 85.58"><defs><style>.cls-1,.cls-2,.cls-3,.cls-4,.cls-5{isolation:isolate;}.cls-2,.cls-3,.cls-4,.cls-5{font-size:7px;fill:#fff;font-family:ArialMT, Arial;}.cls-3{letter-spacing:0.26em;}.cls-4{letter-spacing:0.11em;}.cls-5{letter-spacing:0.1em;}.cls-6{fill:#039;}</style></defs><g class="cls-1"><text class="cls-2" transform="translate(0 67.31)">Krajnji</text><text class="cls-3" transform="translate(19.45 67.31)"> </text><text class="cls-2" transform="translate(23.21 67.31)">primatelj</text><text class="cls-3" transform="translate(49.66 67.31)"> </text><text class="cls-2" transform="translate(53.42 67.31)">financijskog</text><text class="cls-3" transform="translate(89.99 67.31)"> </text><text class="cls-2" transform="translate(93.75 67.31)">instrumenta</text><text class="cls-3" transform="translate(130.32 67.31)"> </text><text class="cls-2" transform="translate(134.08 67.31)">sufinanciranog</text><text class="cls-3" transform="translate(179.61 67.31)"> </text><text class="cls-2" transform="translate(183.37 67.31)">iz </text><text class="cls-2" transform="translate(0 75.31)">Europskog</text><text class="cls-4" transform="translate(33.47 75.31)"> </text><text class="cls-2" transform="translate(36.15 75.31)">fonda</text><text class="cls-4" transform="translate(53.66 75.31)"> </text><text class="cls-2" transform="translate(56.34 75.31)">za</text><text class="cls-4" transform="translate(63.74 75.31)"> </text><text class="cls-2" transform="translate(66.42 75.31)">regionalni</text><text class="cls-5" transform="translate(96.77 75.31)"> </text><text class="cls-2" transform="translate(99.45 75.31)">razvoj</text><text class="cls-4" transform="translate(118.12 75.31)"> </text><text class="cls-2" transform="translate(120.8 75.31)">u</text><text class="cls-4" transform="translate(124.7 75.31)"> </text><text class="cls-2" transform="translate(127.38 75.31)">sklopu</text><text class="cls-4" transform="translate(147.61 75.31)"> </text><text class="cls-2" transform="translate(150.29 75.31)">Operativnog </text><text class="cls-2" transform="translate(0 83.31)">programa „Konkurentnost i kohezija”.</text></g><path class="cls-6" d="M82.14,6.05h7v2H84.35v2.39H88.7v1.94H84.35v2.41h4.84v2h-7ZM93.59,15c1.3,0,2.27-.33,2.27-1.14,0-1.92-5.46-1.15-5.46-4.76,0-2.31,1.89-3.19,4.39-3.19a11.09,11.09,0,0,1,2.63.34V8.29a13.17,13.17,0,0,0-2.93-.4c-.82,0-1.8.15-1.8,1,0,1.91,5.42.94,5.42,4.89,0,2.48-1.89,3.23-4.54,3.23a15.12,15.12,0,0,1-3.07-.34V14.58a14.8,14.8,0,0,0,3.11.4Zm8.18,1.86H99.58V6.05h2.19Zm2.08-10.79h7v2H106v2.83h4.35v1.94H106v4h-2.19ZM82.14,20.13h7v2H84.35V25H88.7v2H84.35v4H82.14ZM92.77,30.92H90.59V20.13h2.18Zm4.11,0h-2V20.13h2.47l5,7.65V20.13h2V30.92H102L96.87,23Zm15.26-2.22h-3.9l-.64,2.22h-2.17L109,20.13h2.61l3.56,10.79h-2.25Zm-3.39-1.76h2.85l-1.43-4.6h0Zm9.48,4h-2V20.13h2.46l5,7.65V20.13h2V30.92h-2.37L118.21,23Zm17.29-.2a15.57,15.57,0,0,1-3.19.34c-3.12,0-5-1.82-5-5.39,0-4.12,2.55-5.64,5.57-5.64a17.16,17.16,0,0,1,2.48.2v3.4h-2V22.06h-.67c-1.71,0-3,.71-3,3.44s1.46,3.6,3.44,3.6a11.52,11.52,0,0,0,2.48-.3Zm3.86.2h-2.19V20.13h2.19Zm4.46-10.79v8.63c0,2.42-1.12,3.64-3.62,4.44l-.8-1.56c1.28-.72,2.23-1.41,2.23-2.81v-8.7Zm4.79,8.93c1.3,0,2.27-.33,2.27-1.13,0-1.93-5.46-1.16-5.46-4.77,0-2.3,1.89-3.19,4.39-3.19a11.63,11.63,0,0,1,2.63.34v2.06a13.08,13.08,0,0,0-2.92-.4c-.83,0-1.81.15-1.81,1,0,1.91,5.42.94,5.42,4.89,0,2.48-1.89,3.23-4.53,3.23a15.14,15.14,0,0,1-3.08-.34V28.66a14.43,14.43,0,0,0,3.13.4Zm8.16-4.52h1.05L161,20.15h2.48l-3.91,5.18,4,5.61h-2.68l-3.12-4.44h-.95v4.42h-2.16V20.13h2.19Zm9.93,6.38h-2.18V20.13h2.18ZM84.35,45H82.14V34.22h2.19Zm4.1,0h-2V34.22h2.46l5,7.65V34.22h2V45H93.54l-5.11-7.91Zm12.31-1.86c1.3,0,2.27-.33,2.27-1.13,0-1.93-5.46-1.15-5.46-4.77,0-2.3,1.89-3.19,4.39-3.19a11.1,11.1,0,0,1,2.63.35v2a13.16,13.16,0,0,0-2.93-.39c-.82,0-1.81.14-1.81,1,0,1.9,5.43.93,5.43,4.88,0,2.48-1.89,3.23-4.54,3.23a15.12,15.12,0,0,1-3.07-.34v-2A14.57,14.57,0,0,0,100.76,43.14Zm4.95-8.92h8.76v2h-3.33V45H109V36.22h-3.29Zm13.43,6.93h-1.35V45H115.6V34.22h3.77c2.86,0,3.94,1.34,3.94,3.36a3.2,3.2,0,0,1-1.86,3.19L124.73,45h-2.79Zm-1.35-1.84h1.35c1.17,0,1.82-.21,1.82-1.59,0-1.11-.41-1.48-1.89-1.48h-1.33Zm14.35-5.09h2.13v7c0,2.9-2.18,4-4.63,4s-4.5-1-4.5-4v-7h2.18v6.4c0,2,.78,2.53,2.3,2.53s2.44-.66,2.44-2.56Zm13.55,2.93L143.34,45h-2.7l-2.5-7.93V45h-1.89V34.22h3L142,43.08l2.67-8.86h3.06V45h-2.12Zm4.18-2.93h7v2H152v2.4h4.36v1.94H152V43h4.85v2h-7ZM160.69,45h-2V34.22h2.45l5,7.65V34.22h2V45h-2.37l-5.11-7.91Zm8.61-10.79h8.76v2h-3.28V45h-2.19V36.22H169.3ZM181.37,45h-2.18V34.22h2.18Zm-1.73,6.3H10.72a9.92,9.92,0,0,1-9.82-10V10A9.92,9.92,0,0,1,10.72,0H179.64a9.93,9.93,0,0,1,9.83,10V41.29a9.93,9.93,0,0,1-9.83,10ZM10.72,2.1A7.83,7.83,0,0,0,3,10V41.29a7.83,7.83,0,0,0,7.73,7.93H179.64a7.83,7.83,0,0,0,7.73-7.91V10a7.83,7.83,0,0,0-7.73-7.91ZM77.88,13.49l-2.74-2.93L60.51,25.37l-4.32-4L53.3,24.5l7.23,7ZM72.31,26.62A12.36,12.36,0,0,1,59.89,38.83c-6.84,0-12.41-5.86-12.41-13s5.57-13,12.41-13a14.31,14.31,0,0,1,4.2.78l2.63-3.17a15.39,15.39,0,0,0-6.83-1.59c-8.93,0-16.2,7.64-16.2,17s7.27,17,16.2,17,16.19-7.64,16.19-17A11,11,0,0,0,76,24.23ZM28.48,8.55c10.42,0,15.87,1.86,16.73,2.77-.86.91-6.31,3.27-16.73,3.27S12.6,12.22,11.75,11.32C12.6,10.41,18.06,8.55,28.48,8.55ZM13.08,8c-1.38.57-3.61,1.63-3.61,3s-.06,6.4,0,7.78,1.27,2.07,3.94,2.86A67.31,67.31,0,0,0,29,23.33a68.39,68.39,0,0,0,11.34-.92,17,17,0,0,1,2.13-5.7,49.07,49.07,0,0,1,4.37-5.79.68.68,0,0,0,.18-.7c-.23-.32-.6-1.32-3.24-2.33-2.16-.82-6.91-1.81-15.5-1.81S14.46,7.46,13.08,8ZM9.46,30a2.75,2.75,0,0,0,1.35,1.36c1.1.61,6.76,2.6,16.56,2.6s14-1,14-1a33.73,33.73,0,0,1-1.18-3.78,24.88,24.88,0,0,1-.2-3.66,99.43,99.43,0,0,1-12.78.89c-6.72,0-13.51-1.38-15.64-2.31s-2.18-2-2.18-2Zm0,10.65A2.79,2.79,0,0,0,10.81,42c1.1.61,6.76,2.6,16.56,2.6,16.76,0,20.31-3.5,20.31-3.5s-1.54-1.29-2.77-2.49a20.47,20.47,0,0,1-2.15-3.08S38.76,37,27.25,37c-6.72,0-13.51-1.38-15.64-2.31s-2.18-2-2.18-2Z" transform="translate(0 -0.01)"/></svg>