<svg id="Layer_1" data-name="Layer 1" xmlns="http://www.w3.org/2000/svg" viewBox="0 0 190.37 94.11"><defs><style>.cls-1{font-size:7px;fill:#231f20;font-family:ArialMT, Arial;}.cls-2{letter-spacing:0.26em;}.cls-3{letter-spacing:0.26em;}.cls-4{letter-spacing:0.11em;}.cls-5{letter-spacing:0.1em;}.cls-6{fill:#039;}</style></defs><text class="cls-1" transform="translate(0 67.32)">Krajnji<tspan class="cls-2" x="19.45" y="0"> </tspan><tspan x="23.21" y="0">primatelj</tspan><tspan class="cls-3" x="49.66" y="0"> </tspan><tspan x="53.42" y="0">financijskog</tspan><tspan class="cls-2" x="89.99" y="0"> </tspan><tspan x="93.75" y="0">instrumenta</tspan><tspan class="cls-3" x="130.32" y="0"> </tspan><tspan x="134.08" y="0">sufinanciranog</tspan><tspan class="cls-2" x="179.61" y="0"> </tspan><tspan x="183.37" y="0">iz </tspan><tspan x="0" y="8">Europskog</tspan><tspan class="cls-4" x="33.47" y="8"> </tspan><tspan x="36.15" y="8">fonda</tspan><tspan class="cls-4" x="53.66" y="8"> </tspan><tspan x="56.34" y="8">za</tspan><tspan class="cls-4" x="63.74" y="8"> </tspan><tspan x="66.42" y="8">regionalni</tspan><tspan class="cls-5" x="96.77" y="8"> </tspan><tspan x="99.45" y="8">razvoj</tspan><tspan class="cls-4" x="118.12" y="8"> </tspan><tspan x="120.8" y="8">u</tspan><tspan class="cls-4" x="124.7" y="8"> </tspan><tspan x="127.38" y="8">sklopu</tspan><tspan class="cls-4" x="147.61" y="8"> </tspan><tspan x="150.29" y="8">Operativnog </tspan><tspan x="0" y="16">programa „Konkurentnost i kohezija”.</tspan></text><path class="cls-6" d="M92,16.83h7v2H94.21v2.39h4.35v1.94H94.21v2.41h4.84v2H92Zm11.45,8.93c1.3,0,2.27-.33,2.27-1.14,0-1.92-5.46-1.15-5.46-4.76,0-2.31,1.89-3.19,4.39-3.19a10.93,10.93,0,0,1,2.63.34v2.06a13.15,13.15,0,0,0-2.93-.4c-.82,0-1.8.15-1.8,1,0,1.91,5.42.94,5.42,4.89,0,2.48-1.89,3.23-4.54,3.23a15,15,0,0,1-3.07-.34V25.36A14.63,14.63,0,0,0,103.47,25.76Zm8.18,1.86h-2.19V16.83h2.19Zm2.08-10.79h7v2h-4.85v2.83h4.35v1.94h-4.35v4h-2.19ZM92,30.91h7v2H94.21v2.82h4.35V37.7H94.21v4H92ZM102.63,41.7h-2.18V30.91h2.18Zm4.11,0h-2V30.91h2.47l5,7.65V30.91h2V41.7h-2.37l-5.11-7.91ZM122,39.48h-3.9l-.64,2.22h-2.17l3.54-10.79h2.61L125,41.7h-2.25Zm-3.39-1.76h2.85l-1.43-4.6H120Zm9.48,4h-2V30.91h2.46l5,7.65V30.91h2V41.7h-2.37l-5.11-7.91Zm17.29-.2a15.37,15.37,0,0,1-3.19.34c-3.12,0-5-1.82-5-5.39,0-4.12,2.55-5.64,5.57-5.64a17,17,0,0,1,2.48.2v3.4h-2V32.84c-.24,0-.47,0-.67,0-1.71,0-3,.71-3,3.44s1.46,3.6,3.44,3.6a12,12,0,0,0,2.48-.3Zm3.86.2h-2.19V30.91h2.19Zm4.46-10.79v8.63c0,2.42-1.12,3.64-3.62,4.44l-.8-1.56c1.28-.72,2.23-1.41,2.23-2.81v-8.7Zm4.79,8.93c1.3,0,2.27-.33,2.27-1.13,0-1.93-5.46-1.16-5.46-4.77,0-2.3,1.89-3.19,4.39-3.19a11.46,11.46,0,0,1,2.63.34v2.06a13.13,13.13,0,0,0-2.92-.4c-.83,0-1.81.15-1.81,1,0,1.91,5.42.94,5.42,4.89,0,2.48-1.89,3.23-4.53,3.23a15.05,15.05,0,0,1-3.08-.34V39.44A14.18,14.18,0,0,0,158.53,39.84Zm8.16-4.52h1.05l3.14-4.41h2.48l-3.91,5.18,4,5.61h-2.68l-3.12-4.44h-.95V41.7H164.5V30.91h2.19Zm9.93,6.38h-2.18V30.91h2.18ZM94.21,55.78H92V45h2.19Zm4.1,0h-2V45h2.46l5,7.65V45h2V55.78h-2.37l-5.11-7.91Zm12.31-1.86c1.3,0,2.27-.33,2.27-1.13,0-1.93-5.46-1.15-5.46-4.77,0-2.3,1.89-3.19,4.39-3.19a10.92,10.92,0,0,1,2.63.35v2a13.23,13.23,0,0,0-2.93-.39c-.82,0-1.81.14-1.81,1,0,1.9,5.43.93,5.43,4.88,0,2.48-1.89,3.23-4.54,3.23a15,15,0,0,1-3.07-.34v-2A14.76,14.76,0,0,0,110.62,53.92ZM115.57,45h8.76v2H121v8.76h-2.18V47h-3.29ZM129,51.93h-1.35v3.85h-2.19V45h3.77c2.86,0,3.94,1.34,3.94,3.36a3.2,3.2,0,0,1-1.86,3.19l3.28,4.24H131.8Zm-1.35-1.84H129c1.17,0,1.82-.21,1.82-1.59,0-1.11-.41-1.48-1.89-1.48h-1.33ZM142,45h2.13v7c0,2.9-2.18,4-4.63,4C137.16,55.92,135,55,135,52V45h2.18v6.4c0,2,.78,2.53,2.3,2.53s2.44-.66,2.44-2.56Zm13.55,2.93-2.35,7.86h-2.7L148,47.86v7.92h-1.89V45h3l2.78,8.86L154.56,45h3.06V55.78H155.5ZM159.73,45h7v2h-4.85V49.4h4.36v1.94h-4.36v2.42h4.85v2h-7Zm10.82,10.79h-2V45H171l5,7.65V45h2V55.78h-2.37l-5.11-7.91ZM179.16,45h8.76v2h-3.28v8.76h-2.19V47h-3.29Zm12.07,10.79h-2.18V45h2.18Zm-1.73,6.3H20.58a9.92,9.92,0,0,1-9.82-10V20.79a9.92,9.92,0,0,1,9.82-10H189.5a9.93,9.93,0,0,1,9.83,10V52.07A9.93,9.93,0,0,1,189.5,62.08ZM20.58,12.88a7.83,7.83,0,0,0-7.73,7.91V52.07A7.83,7.83,0,0,0,20.58,60H189.5a7.83,7.83,0,0,0,7.73-7.91V20.79a7.83,7.83,0,0,0-7.73-7.91ZM87.74,24.27,85,21.34,70.37,36.15l-4.32-4-2.89,3.13,7.23,7ZM82.17,37.4A12.36,12.36,0,0,1,69.75,49.61c-6.84,0-12.41-5.86-12.41-13s5.57-13,12.41-13a14.39,14.39,0,0,1,4.2.78l2.63-3.17a15.41,15.41,0,0,0-6.83-1.59c-8.93,0-16.2,7.64-16.2,17s7.27,17,16.2,17,16.19-7.64,16.19-17a10.85,10.85,0,0,0-.09-1.62ZM38.34,19.33c10.42,0,15.87,1.86,16.73,2.77-.86.91-6.31,3.27-16.73,3.27S22.46,23,21.61,22.1C22.46,21.19,27.92,19.33,38.34,19.33Zm-15.4-.52c-1.38.57-3.61,1.63-3.61,3s-.06,6.4,0,7.78,1.27,2.07,3.94,2.86,9.16,1.66,15.58,1.66a68.31,68.31,0,0,0,11.34-.92,17.06,17.06,0,0,1,2.13-5.7,49.85,49.85,0,0,1,4.37-5.79.69.69,0,0,0,.18-.7c-.23-.32-.6-1.32-3.24-2.33-2.16-.82-6.91-1.81-15.5-1.81S24.32,18.24,22.94,18.81Zm-3.62,22a2.77,2.77,0,0,0,1.35,1.36c1.1.61,6.76,2.6,16.56,2.6s14-1,14-1a34.39,34.39,0,0,1-1.18-3.78,24.47,24.47,0,0,1-.2-3.66,99.05,99.05,0,0,1-12.78.89c-6.72,0-13.51-1.38-15.64-2.31s-2.18-2-2.18-2Zm0,10.65a2.81,2.81,0,0,0,1.35,1.36c1.1.61,6.76,2.6,16.56,2.6,16.76,0,20.31-3.5,20.31-3.5S56,50.63,54.77,49.43a19.59,19.59,0,0,1-2.15-3.08s-4,1.43-15.51,1.43c-6.72,0-13.51-1.38-15.64-2.31s-2.18-2-2.18-2Z" transform="translate(-9.86 -10.78)"/></svg>