<svg id="Layer_1" data-name="Layer 1" xmlns="http://www.w3.org/2000/svg" viewBox="0 0 69.48 56.55"><defs><style>.cls-1{fill:#039;}.cls-2{fill:#fc0;}</style></defs><path class="cls-1" d="M0,54.24V46.37H5.69v.92H1v2.42H5.4v.92H1v2.68H5.88v.93Z"/><path class="cls-1" d="M10.62,54.24V53.4a2.08,2.08,0,0,1-1.81,1,2.3,2.3,0,0,1-.94-.2,1.52,1.52,0,0,1-.65-.48,2,2,0,0,1-.3-.72,4.82,4.82,0,0,1-.06-.9V48.54h1V51.7a5.62,5.62,0,0,0,.06,1,1,1,0,0,0,.39.6,1.2,1.2,0,0,0,.73.22,1.58,1.58,0,0,0,.81-.23,1.2,1.2,0,0,0,.54-.6,3,3,0,0,0,.16-1.12V48.54h1v5.7Z"/><path class="cls-1" d="M12.83,54.24v-5.7h.87v.86a2.5,2.5,0,0,1,.61-.8,1.08,1.08,0,0,1,.62-.19,1.88,1.88,0,0,1,1,.31l-.33.89a1.5,1.5,0,0,0-.71-.2.89.89,0,0,0-.57.19,1,1,0,0,0-.36.52,3.72,3.72,0,0,0-.16,1.13v3Z"/><path class="cls-1" d="M16,51.39A3,3,0,0,1,16.91,49a2.67,2.67,0,0,1,1.8-.63,2.54,2.54,0,0,1,1.92.77,2.91,2.91,0,0,1,.75,2.13A3.78,3.78,0,0,1,21.05,53a2.33,2.33,0,0,1-1,1,2.86,2.86,0,0,1-1.38.35,2.58,2.58,0,0,1-1.94-.77A3.07,3.07,0,0,1,16,51.39Zm1,0A2.49,2.49,0,0,0,17.5,53a1.61,1.61,0,0,0,2.41,0,2.57,2.57,0,0,0,.47-1.68,2.37,2.37,0,0,0-.48-1.6,1.6,1.6,0,0,0-2.4,0A2.47,2.47,0,0,0,17,51.39Z"/><path class="cls-1" d="M22.41,56.43V48.54h.88v.74a2.21,2.21,0,0,1,.71-.66,2,2,0,0,1,.95-.21,2.24,2.24,0,0,1,1.28.37,2.3,2.3,0,0,1,.85,1.06,3.89,3.89,0,0,1,.28,1.5,3.81,3.81,0,0,1-.31,1.58A2.37,2.37,0,0,1,26.14,54a2.42,2.42,0,0,1-1.26.37,1.75,1.75,0,0,1-.87-.21,1.77,1.77,0,0,1-.63-.51v2.78Zm.88-5a2.48,2.48,0,0,0,.44,1.63,1.37,1.37,0,0,0,1.08.52,1.39,1.39,0,0,0,1.1-.54,2.58,2.58,0,0,0,.46-1.69,2.56,2.56,0,0,0-.44-1.63,1.34,1.34,0,0,0-1.08-.55,1.41,1.41,0,0,0-1.09.58A2.59,2.59,0,0,0,23.29,51.42Z"/><path class="cls-1" d="M28,52.54l.95-.15a1.41,1.41,0,0,0,.45.88,1.6,1.6,0,0,0,1,.3,1.5,1.5,0,0,0,1-.27.79.79,0,0,0,.32-.63.59.59,0,0,0-.28-.52,3.79,3.79,0,0,0-1-.33A9,9,0,0,1,29,51.36a1.4,1.4,0,0,1-.63-.54,1.49,1.49,0,0,1-.21-.77,1.58,1.58,0,0,1,.17-.71,1.76,1.76,0,0,1,.48-.54,2.12,2.12,0,0,1,.62-.28,2.78,2.78,0,0,1,.83-.11,3.28,3.28,0,0,1,1.18.19,1.6,1.6,0,0,1,.75.52,2.07,2.07,0,0,1,.33.89l-.94.13a1,1,0,0,0-.38-.69,1.31,1.31,0,0,0-.87-.25,1.56,1.56,0,0,0-.95.22.64.64,0,0,0-.28.52.53.53,0,0,0,.11.34.86.86,0,0,0,.37.25c.1,0,.38.12.86.25a10.92,10.92,0,0,1,1.43.45,1.47,1.47,0,0,1,.64.51,1.42,1.42,0,0,1,.23.82,1.59,1.59,0,0,1-.29.91,1.68,1.68,0,0,1-.81.66,2.86,2.86,0,0,1-1.2.24,2.75,2.75,0,0,1-1.7-.46A2.22,2.22,0,0,1,28,52.54Z"/><path class="cls-1" d="M33.75,54.24V46.37h1v4.49L37,48.54h1.25l-2.18,2.11,2.4,3.59H37.29L35.4,51.32l-.68.66v2.26Z"/><path class="cls-1" d="M42.81,53.54a3.82,3.82,0,0,1-1,.64,2.9,2.9,0,0,1-1.07.19,2.07,2.07,0,0,1-1.44-.46,1.52,1.52,0,0,1-.51-1.17A1.54,1.54,0,0,1,39,52a1.7,1.7,0,0,1,.5-.56,2.33,2.33,0,0,1,.7-.31A7.19,7.19,0,0,1,41,51a8.55,8.55,0,0,0,1.72-.33c0-.13,0-.22,0-.25a1.1,1.1,0,0,0-.28-.84,1.66,1.66,0,0,0-1.1-.32,1.73,1.73,0,0,0-1,.24,1.5,1.5,0,0,0-.48.84l-.94-.13a2.26,2.26,0,0,1,.42-1,1.81,1.81,0,0,1,.86-.57,3.64,3.64,0,0,1,1.29-.2,3.33,3.33,0,0,1,1.19.17,1.62,1.62,0,0,1,.67.43,1.55,1.55,0,0,1,.3.66,5.58,5.58,0,0,1,.05.89v1.29a13.86,13.86,0,0,0,.06,1.7,2.18,2.18,0,0,0,.24.69H43A2.12,2.12,0,0,1,42.81,53.54Zm-.08-2.16a7.34,7.34,0,0,1-1.58.36,3.2,3.2,0,0,0-.84.2.78.78,0,0,0-.38.31.84.84,0,0,0,.15,1.1,1.3,1.3,0,0,0,.86.26,2.08,2.08,0,0,0,1-.24,1.56,1.56,0,0,0,.63-.67,2.24,2.24,0,0,0,.16-1Z"/><path class="cls-1" d="M51.78,54.24V53.4a2.08,2.08,0,0,1-1.81,1,2.26,2.26,0,0,1-.94-.2,1.52,1.52,0,0,1-.65-.48,2,2,0,0,1-.3-.72,4.82,4.82,0,0,1-.06-.9V48.54h1V51.7a5.62,5.62,0,0,0,.06,1,1.06,1.06,0,0,0,.38.6,1.24,1.24,0,0,0,.73.22,1.59,1.59,0,0,0,.82-.23,1.3,1.3,0,0,0,.54-.6,3.2,3.2,0,0,0,.16-1.12V48.54h1v5.7Z"/><path class="cls-1" d="M54,54.24v-5.7h.87v.81a2.05,2.05,0,0,1,1.82-.94,2.47,2.47,0,0,1,1,.18,1.48,1.48,0,0,1,.64.49,1.68,1.68,0,0,1,.3.71,5,5,0,0,1,.06.94v3.51h-1V50.77a2.73,2.73,0,0,0-.11-.88,1,1,0,0,0-.4-.47,1.25,1.25,0,0,0-.68-.18,1.57,1.57,0,0,0-1.06.4A1.91,1.91,0,0,0,55,51.12v3.12Z"/><path class="cls-1" d="M60,47.48V46.37h1v1.11Zm0,6.76v-5.7h1v5.7Z"/><path class="cls-1" d="M61,56.45l.18-.82a1.93,1.93,0,0,0,.46.08.53.53,0,0,0,.44-.2,2.12,2.12,0,0,0,.14-1v-6h1v6A2.77,2.77,0,0,1,62.93,56a1.27,1.27,0,0,1-1.16.53A2.66,2.66,0,0,1,61,56.45Zm1.22-9V46.37h1v1.12Z"/><path class="cls-1" d="M68.28,53.54a3.71,3.71,0,0,1-1,.64,2.85,2.85,0,0,1-1.06.19,2.12,2.12,0,0,1-1.45-.46A1.63,1.63,0,0,1,64.42,52a1.59,1.59,0,0,1,.5-.56,2.23,2.23,0,0,1,.7-.31,6.94,6.94,0,0,1,.85-.15,8.68,8.68,0,0,0,1.73-.33v-.25a1.1,1.1,0,0,0-.27-.84,1.66,1.66,0,0,0-1.1-.32,1.71,1.71,0,0,0-1,.24,1.5,1.5,0,0,0-.48.84l-.94-.13a2.26,2.26,0,0,1,.42-1,1.83,1.83,0,0,1,.85-.57,3.74,3.74,0,0,1,1.3-.2,3.33,3.33,0,0,1,1.19.17,1.62,1.62,0,0,1,.67.43,1.55,1.55,0,0,1,.3.66,5.58,5.58,0,0,1,.05.89v1.29a13.86,13.86,0,0,0,.06,1.7,2.18,2.18,0,0,0,.24.69h-1A2.12,2.12,0,0,1,68.28,53.54Zm-.08-2.16a7.34,7.34,0,0,1-1.58.36,3.2,3.2,0,0,0-.84.2.81.81,0,0,0-.39.31.86.86,0,0,0,.16,1.1,1.28,1.28,0,0,0,.86.26,2,2,0,0,0,1-.24A1.53,1.53,0,0,0,68,52.7a2.24,2.24,0,0,0,.16-1Z"/><rect id="rect171" class="cls-1" x="3.97" width="61.14" height="40.76"/><polygon id="polygon147" class="cls-2" points="35.85 8.85 34.46 7.85 33.07 8.85 33.58 7.21 32.19 6.21 33.9 6.19 34.44 4.55 34.98 6.19 36.7 6.19 35.33 7.21 35.85 8.85"/><polygon id="polygon160" class="cls-2" points="29 10.7 27.6 9.69 26.21 10.71 26.73 9.07 25.34 8.06 27.05 8.04 27.59 6.41 28.14 8.04 29.85 8.04 28.47 9.05 29 10.7"/><polygon id="polygon161" class="cls-2" points="42.53 10.65 41.14 9.66 39.75 10.66 40.27 9.03 38.88 8.02 40.6 8 41.13 6.37 41.68 7.99 43.4 8 42.01 9.02 42.53 10.65"/><polygon id="polygon162" class="cls-2" points="47.5 15.7 46.1 14.7 44.71 15.71 45.23 14.07 43.83 13.06 45.56 13.04 46.09 11.41 46.63 13.04 48.35 13.04 46.97 14.06 47.5 15.7"/><polygon id="polygon163" class="cls-2" points="49.35 22.47 47.95 21.47 46.56 22.48 47.08 20.84 45.69 19.83 47.41 19.82 47.94 18.18 48.49 19.81 50.2 19.82 48.82 20.83 49.35 22.47"/><polygon id="polygon164" class="cls-2" points="47.5 29.28 46.1 28.29 44.71 29.29 45.23 27.65 43.83 26.64 45.56 26.63 46.09 24.99 46.63 26.62 48.35 26.63 46.97 27.65 47.5 29.28"/><polygon id="polygon165" class="cls-2" points="42.5 34.24 41.09 33.24 39.71 34.25 40.22 32.61 38.83 31.61 40.55 31.59 41.09 29.96 41.62 31.58 43.35 31.59 41.97 32.61 42.5 34.24"/><polygon id="polygon166" class="cls-2" points="35.81 36.05 34.41 35.06 33.02 36.07 33.54 34.42 32.15 33.41 33.87 33.39 34.4 31.76 34.95 33.39 36.66 33.39 35.28 34.42 35.81 36.05"/><polygon id="polygon167" class="cls-2" points="28.95 34.2 27.56 33.2 26.16 34.22 26.68 32.58 25.29 31.56 27.01 31.55 27.55 29.91 28.09 31.54 29.81 31.55 28.42 32.56 28.95 34.2"/><polygon id="polygon168" class="cls-2" points="24.08 29.24 22.68 28.24 21.29 29.25 21.81 27.61 20.41 26.59 22.13 26.58 22.66 24.95 23.21 26.58 24.93 26.58 23.55 27.6 24.08 29.24"/><polygon id="polygon169" class="cls-2" points="22.27 22.39 20.88 21.39 19.48 22.4 19.99 20.75 18.6 19.75 20.33 19.73 20.86 18.09 21.4 19.73 23.13 19.73 21.74 20.75 22.27 22.39"/><polygon id="polygon170" class="cls-2" points="24.21 15.53 22.8 14.53 21.41 15.54 21.93 13.9 20.54 12.89 22.26 12.88 22.8 11.24 23.34 12.87 25.05 12.87 23.68 13.9 24.21 15.53"/></svg>