<svg id="Layer_1" data-name="Layer 1" xmlns="http://www.w3.org/2000/svg" xmlns:xlink="http://www.w3.org/1999/xlink" viewBox="0 0 587.74 122.99"><defs><style>.cls-1,.cls-5{fill:#ed1c24;}.cls-1,.cls-2{fill-rule:evenodd;}.cls-2{fill:#b4bbc0;}.cls-3{fill:#6d6e71;}.cls-4{fill:#b11116;}.cls-6{fill:#8b0304;}.cls-7{fill:#939598;}.cls-8{fill:#bcbec0;}.cls-10,.cls-9{opacity:0.8;}.cls-9{fill:url(#radial-gradient);}.cls-10{fill:url(#radial-gradient-2);}</style><radialGradient id="radial-gradient" cx="-9.87" cy="501.63" r="0.26" gradientTransform="matrix(172.78, 0, 0, -32.6, 2027.56, 16465.49)" gradientUnits="userSpaceOnUse"><stop offset="0" stop-color="#939598"/><stop offset="0.44" stop-color="#818285" stop-opacity="0.52"/><stop offset="0.82" stop-color="#727477" stop-opacity="0.14"/><stop offset="1" stop-color="#6d6e71" stop-opacity="0"/></radialGradient><radialGradient id="radial-gradient-2" cx="-10.11" cy="502.87" r="0.26" gradientTransform="matrix(118.8, 0, 0, -23.7, 1467.65, 12032.85)" gradientUnits="userSpaceOnUse"><stop offset="0" stop-color="#939598"/><stop offset="0.47" stop-color="#808184" stop-opacity="0.49"/><stop offset="0.83" stop-color="#727376" stop-opacity="0.14"/><stop offset="1" stop-color="#6d6e71" stop-opacity="0"/></radialGradient></defs><path class="cls-1" d="M483.22,102.49a33.34,33.34,0,0,1-6.54,5.1,54.54,54.54,0,0,1-8.83,4.25q-11.25,4.32-17,.81t-5-14.18a33,33,0,0,1,8-19,44.56,44.56,0,0,1,18.7-13.12,42.09,42.09,0,0,1,7.6-2.18,25,25,0,0,1,6.7-.34c-.43,1.23-.78,2.37-1,3.44a18.71,18.71,0,0,0-.49,3,7.94,7.94,0,0,0-5.34-3,16.93,16.93,0,0,0-7.8,1.4,29.05,29.05,0,0,0-13.59,10.38,32,32,0,0,0-5.77,16.72q-.66,9.27,3.63,12.81t12.37.44a33.42,33.42,0,0,0,7.65-4.26,51.29,51.29,0,0,0,7.47-6.72Z" transform="translate(-1.77)"/><path class="cls-2" d="M460.92,84.25a33.31,33.31,0,0,1,6.54-5.09,54.42,54.42,0,0,1,8.82-4.26q11.27-4.32,17-.81t5,14.18a33,33,0,0,1-8,19,44.56,44.56,0,0,1-18.7,13.12,41.44,41.44,0,0,1-7.6,2.17,24.63,24.63,0,0,1-6.7.35c.43-1.22.77-2.37,1-3.44a18.71,18.71,0,0,0,.49-3,7.94,7.94,0,0,0,5.34,3A16.93,16.93,0,0,0,472,118a29.15,29.15,0,0,0,13.59-10.38,32,32,0,0,0,5.77-16.72q.66-9.27-3.63-12.81t-12.37-.44a33.42,33.42,0,0,0-7.65,4.26,51.29,51.29,0,0,0-7.47,6.72Z" transform="translate(-1.77)"/><path class="cls-3" d="M32,75.76q-.15-3.81-.33-7.75l1.49.21a11.56,11.56,0,0,0,2.88,0L37.54,68q-.18,3.94-.33,7.75t-.15,7.74V93.79c0,2.63,0,5.23.15,7.78s.21,5.06.33,7.53c-.92-.08-1.89-.12-2.93-.12s-2,0-2.93.12q.18-3.7.33-7.53c.1-2.55.15-5.15.15-7.78V88.41l-6.25-.09q-3,0-6.25,0t-6.25,0l-6.26.09v5.38c0,2.63,0,5.23.15,7.78s.21,5.06.33,7.53C6.72,109,5.74,109,4.7,109s-2,0-2.93.12q.18-3.7.33-7.53c.1-2.55.15-5.15.15-7.78V83.5q0-3.94-.15-7.74T1.77,68l1.5.21a11.44,11.44,0,0,0,1.43.09,11.6,11.6,0,0,0,1.44-.09L7.63,68Q7.45,72,7.3,75.76T7.15,83.5v2.1l6.26.12c2,0,4.09,0,6.25,0s4.23,0,6.25,0l6.25-.12V83.5Q32.16,79.56,32,75.76Z" transform="translate(-1.77)"/><path class="cls-3" d="M84.79,109.1a11.13,11.13,0,0,0-1.58-.12H80a11.26,11.26,0,0,0-1.59.12c-.28-.91-.65-2-1.13-3.32s-1-2.65-1.59-4.06S74.57,98.86,74,97.41s-1.16-2.84-1.68-4.16c-1.27,0-2.57-.07-3.89-.09s-2.63,0-3.94,0-2.46,0-3.65,0l-3.65.09q-1.92,4.66-3.47,8.88c-1,2.82-1.81,5.14-2.33,7a20.5,20.5,0,0,0-4.43,0q4.84-10.47,9.45-20.81t9.27-21.06h1.14c1,2.32,2,4.82,3.11,7.51s2.25,5.41,3.41,8.16,2.31,5.49,3.47,8.2S79,96.33,80,98.67s1.93,4.41,2.75,6.25S84.27,108.15,84.79,109.1ZM58.3,90.5c1,0,2.11,0,3.23.06s2.19.06,3.23.06l3.35,0,3.35-.09L64.82,75.31Z" transform="translate(-1.77)"/><path class="cls-3" d="M106.84,83.74q4.22,8,8.82,16.45c.4-.76,1-1.84,1.73-3.26L120,92.06c1-1.84,2.07-3.82,3.2-6s2.3-4.29,3.47-6.49,2.35-4.34,3.5-6.46,2.24-4.08,3.23-5.92h.78q.66,5.74,1.23,11.1c.38,3.57.76,7.08,1.16,10.52s.8,6.86,1.2,10.23.84,6.71,1.31,10a8.36,8.36,0,0,0-1.4-.12h-2.81a8.57,8.57,0,0,0-1.41.12q-.66-7.95-1.31-15.43t-1.62-15.25h-.12q-4.12,7.53-8.1,15T114.76,109h-.54q-3.59-7.53-7.5-15.1T98.85,78.42h-.12q-.42,3.7-.93,8T96.88,95q-.42,4.22-.72,8c-.2,2.49-.3,4.54-.3,6.13a18.35,18.35,0,0,0-4.19,0q.78-4.84,1.62-10.23T94.9,88.05q.78-5.44,1.44-10.74c.44-3.53.81-6.89,1.13-10.08h1Q102.62,75.74,106.84,83.74Z" transform="translate(-1.77)"/><path class="cls-3" d="M183.85,109.1a11.26,11.26,0,0,0-1.59-.12h-3.17a11,11,0,0,0-1.58.12c-.28-.91-.66-2-1.14-3.32s-1-2.65-1.59-4.06-1.16-2.86-1.76-4.31-1.16-2.84-1.68-4.16c-1.27,0-2.57-.07-3.88-.09l-4,0c-1.24,0-2.45,0-3.65,0l-3.65.09q-1.91,4.66-3.47,8.88c-1,2.82-1.81,5.14-2.33,7a20.5,20.5,0,0,0-4.43,0q4.85-10.47,9.45-20.81t9.28-21.06h1.13L169,74.74c1.12,2.69,2.25,5.41,3.41,8.16s2.31,5.49,3.47,8.2,2.24,5.23,3.26,7.57,1.93,4.41,2.75,6.25S183.33,108.15,183.85,109.1Zm-26.5-18.6c1,0,2.11,0,3.23.06s2.19.06,3.23.06l3.35,0,3.35-.09-6.64-15.19Z" transform="translate(-1.77)"/><path class="cls-3" d="M223.05,73.15a16.3,16.3,0,0,0-3-1.88A18.42,18.42,0,0,0,216.41,70a17.72,17.72,0,0,0-4.27-.5,20.65,20.65,0,0,0-6.91,1.13,14.81,14.81,0,0,0-5.56,3.5,16.29,16.29,0,0,0-3.71,6,27.28,27.28,0,0,0-.15,16.48,15.78,15.78,0,0,0,3.5,5.95,15.48,15.48,0,0,0,5.62,3.74,20.19,20.19,0,0,0,7.51,1.32c.83,0,1.71,0,2.63-.12s1.8-.2,2.66-.36a18.53,18.53,0,0,0,2.39-.6,8.78,8.78,0,0,0,1.89-.84c0-1.19.07-2.39.09-3.59s0-2.41,0-3.64c0-1.4,0-2.8-.09-4.19s-.13-2.73-.21-4a14.51,14.51,0,0,0,2.87.3q.66,0,1.32-.06a6.43,6.43,0,0,0,1.25-.24c-.08.92-.14,2.36-.18,4.34s-.06,4.57-.06,7.8q0,1.2,0,2.43c0,.81,0,1.62,0,2.42-.84.32-1.88.65-3.14,1a37.29,37.29,0,0,1-4,.83c-1.41.22-2.83.42-4.24.6a31,31,0,0,1-3.86.27,33.55,33.55,0,0,1-9.6-1.28,18.85,18.85,0,0,1-7.27-4,17.83,17.83,0,0,1-4.6-6.7,24.59,24.59,0,0,1-1.62-9.27,23.09,23.09,0,0,1,1.68-9.06,18.67,18.67,0,0,1,4.72-6.74,20.41,20.41,0,0,1,7.39-4.18,30.32,30.32,0,0,1,9.6-1.44,39.45,39.45,0,0,1,5.41.33,29,29,0,0,1,4.19.87,28.42,28.42,0,0,1,3.2,1.14c.91.39,1.73.77,2.45,1.13a10.39,10.39,0,0,0-.87,2.15,13,13,0,0,0-.5,2.46h-.72A15.6,15.6,0,0,0,223.05,73.15Z" transform="translate(-1.77)"/><path class="cls-3" d="M390.36,75.67q-.15-3.84-.33-7.66c1,.08,2.09.15,3.17.21s2.13.09,3.17.09,2.09,0,3.17-.15,2.13-.15,3.17-.15a28.59,28.59,0,0,1,4.84.39,12.4,12.4,0,0,1,4,1.37,7.5,7.5,0,0,1,2.75,2.67,7.89,7.89,0,0,1,1,4.18,8.87,8.87,0,0,1-2.78,6.94,15.84,15.84,0,0,1-7.27,3.53v.12a14.77,14.77,0,0,1,8.4,2.57c2.06,1.56,3.08,4,3.08,7.48a10.73,10.73,0,0,1-1.37,5.62,11.08,11.08,0,0,1-3.59,3.68,14.56,14.56,0,0,1-4.87,2,25.35,25.35,0,0,1-5.3.57c-1,0-1.92,0-2.9-.06s-1.94-.06-2.9-.06h-2.9c-1,0-1.95,0-2.9.12q.18-3.82.33-7.62t.15-7.75V83.44Q390.51,79.5,390.36,75.67ZM402.8,86a11.13,11.13,0,0,0,3.68-1.4,7.7,7.7,0,0,0,2.6-2.63,8,8,0,0,0,1-4.16,7.46,7.46,0,0,0-.89-3.92,6.52,6.52,0,0,0-2.28-2.27,8.65,8.65,0,0,0-3.1-1.08,22.63,22.63,0,0,0-3.47-.27q-1.56,0-2.64.09c-.71.06-1.35.13-1.91.21-.08,1.92-.16,3.81-.24,5.68s-.12,3.77-.12,5.69v4.48h3.23A20.82,20.82,0,0,0,402.8,86Zm-7.27,14.78c.08,2,.16,4,.24,6,.76.08,1.65.15,2.69.21s2.09.09,3.17.09a10.42,10.42,0,0,0,3.68-.66,8.67,8.67,0,0,0,3.08-1.94,9.42,9.42,0,0,0,2.09-3.17,11.11,11.11,0,0,0,.78-4.28,8.53,8.53,0,0,0-.93-4.22,6.53,6.53,0,0,0-2.66-2.57,12.66,12.66,0,0,0-4.15-1.29,38.66,38.66,0,0,0-5.42-.35h-2.69v6.1C395.41,96.72,395.45,98.74,395.53,100.73Z" transform="translate(-1.77)"/><path class="cls-3" d="M429.89,75.76q-.15-3.81-.33-7.75l1.5.21a11.49,11.49,0,0,0,2.87,0l1.5-.21q-.18,3.94-.33,7.75T435,83.5V93.79c0,2.63.05,5.23.15,7.78s.21,5.06.33,7.53c-.92-.08-1.9-.12-2.93-.12s-2,0-2.94.12q.18-3.7.33-7.53c.1-2.55.15-5.15.15-7.78V83.5Q430,79.56,429.89,75.76Z" transform="translate(-1.77)"/><path class="cls-3" d="M508.37,75.76q-.15-3.81-.33-7.75l3.41.21c1.12.06,2.25.09,3.41.09s2.29,0,3.41-.15,2.25-.15,3.41-.15a23.06,23.06,0,0,1,4.78.48,11.81,11.81,0,0,1,4,1.58,8.05,8.05,0,0,1,2.69,2.9,10.37,10.37,0,0,1-.3,9.43,12,12,0,0,1-3.14,3.41,15.72,15.72,0,0,1-4,2.09,20.15,20.15,0,0,1-3.86,1c.48.59,1.13,1.43,2,2.51L526.64,95c1,1.29,2.12,2.65,3.23,4.06l3.23,4.07c1,1.3,2,2.48,2.94,3.56s1.65,1.89,2.21,2.45a13.61,13.61,0,0,0-1.8-.12h-3.53a12.26,12.26,0,0,0-1.73.12l-2.72-3.76q-1.83-2.52-4-5.39c-1.47-1.91-3-3.82-4.52-5.71s-2.94-3.5-4.21-4.82h-2.28v4.37c0,2.63.05,5.23.15,7.78s.21,5.06.33,7.53C513,109,512,109,511,109s-2,0-2.93.12q.18-3.7.33-7.53c.1-2.55.15-5.15.15-7.78V83.5Q508.52,79.56,508.37,75.76Zm6.88,11.39c.66,0,1.38.06,2.18.06a18.82,18.82,0,0,0,3.86-.42A11.48,11.48,0,0,0,525,85.33a8.88,8.88,0,0,0,2.78-2.81,8.26,8.26,0,0,0,1.11-4.46A7.71,7.71,0,0,0,528,74.2a7,7,0,0,0-2.24-2.42,8.61,8.61,0,0,0-3-1.23,15.88,15.88,0,0,0-3.17-.33c-1.4,0-2.56,0-3.47.09s-1.7.13-2.34.21q-.12,3.3-.24,6.52c-.08,2.15-.12,4.31-.12,6.46v3.41A12.3,12.3,0,0,0,515.25,87.15Z" transform="translate(-1.77)"/><path class="cls-3" d="M546.35,79.59A18.91,18.91,0,0,1,551,72.85,19.73,19.73,0,0,1,558,68.67a29.25,29.25,0,0,1,18.13,0,19.86,19.86,0,0,1,7.09,4.18,18.88,18.88,0,0,1,4.6,6.74,25.7,25.7,0,0,1,0,18.12,18.39,18.39,0,0,1-11.69,10.82,31.11,31.11,0,0,1-18.13,0,18.73,18.73,0,0,1-7.08-4.09,19,19,0,0,1-4.61-6.73,25.85,25.85,0,0,1,0-18.12Zm36,.47a16.34,16.34,0,0,0-3.5-6,14,14,0,0,0-5.26-3.5,18.66,18.66,0,0,0-6.55-1.13,18.4,18.4,0,0,0-6.49,1.13,14,14,0,0,0-5.27,3.5,16.48,16.48,0,0,0-3.5,6,26.52,26.52,0,0,0-1.25,8.59,26.41,26.41,0,0,0,1.25,8.58,16.4,16.4,0,0,0,3.5,6,13.92,13.92,0,0,0,5.27,3.5,18.19,18.19,0,0,0,6.49,1.14,18.44,18.44,0,0,0,6.55-1.14,13.89,13.89,0,0,0,5.26-3.5,16.26,16.26,0,0,0,3.5-6,26.13,26.13,0,0,0,1.26-8.58A26.23,26.23,0,0,0,582.39,80.06Z" transform="translate(-1.77)"/><polygon class="cls-4" points="300.11 17.6 333.69 64.6 304.8 94.53 271.21 47.52 300.11 17.6"/><polygon class="cls-5" points="300.11 17.6 336.71 0 370.3 47 333.69 64.6 300.11 17.6"/><polygon class="cls-6" points="333.69 64.6 370.3 47 341.4 76.92 304.8 94.53 333.69 64.6"/><polygon class="cls-7" points="253.99 30.38 272.54 56.33 256.58 72.86 238.04 46.9 253.99 30.38"/><polygon class="cls-8" points="253.99 30.38 274.21 20.66 292.75 46.61 272.54 56.33 253.99 30.38"/><polygon class="cls-3" points="272.54 56.33 292.75 46.61 276.8 63.13 256.58 72.86 272.54 56.33"/><path class="cls-9" d="M367.34,113.71c0,4.66-20.07,8.44-44.81,8.44s-44.82-3.78-44.82-8.44,20.07-8.46,44.82-8.46S367.34,109,367.34,113.71Z" transform="translate(-1.77)"/><path class="cls-10" d="M297.84,113.4c0,3.39-13.8,6.14-30.81,6.14s-30.82-2.75-30.82-6.14,13.8-6.15,30.82-6.15S297.84,110,297.84,113.4Z" transform="translate(-1.77)"/></svg>