<svg id="Layer_1" data-name="Layer 1" xmlns="http://www.w3.org/2000/svg" viewBox="0 0 130.32 80"><defs><style>.cls-1{fill:#f6921e;}.cls-2{fill:#231f20;}</style></defs><path class="cls-1" d="M88.72,69.64h.06A.06.06,0,0,0,88.72,69.64Z" transform="translate(0 -0.55)"/><path class="cls-1" d="M88.39,63.33l0,.07S88.41,63.33,88.39,63.33Z" transform="translate(0 -0.55)"/><path class="cls-1" d="M89.06,73.41h0c0,.06,0,.14,0,.26Z" transform="translate(0 -0.55)"/><path class="cls-1" d="M87.64,49.87V50S87.65,49.89,87.64,49.87Z" transform="translate(0 -0.55)"/><path class="cls-1" d="M88,57.85a.16.16,0,0,1,0-.1S88,57.84,88,57.85Z" transform="translate(0 -0.55)"/><path class="cls-1" d="M88.07,75.57l.07-.12A.12.12,0,0,0,88.07,75.57Z" transform="translate(0 -0.55)"/><path class="cls-1" d="M89,79.32h0Z" transform="translate(0 -0.55)"/><path class="cls-1" d="M89.13,77.78a.93.93,0,0,0,0-.1S89.1,77.78,89.13,77.78Z" transform="translate(0 -0.55)"/><path class="cls-1" d="M89.05,77.64l0,0S89.07,77.63,89.05,77.64Z" transform="translate(0 -0.55)"/><path class="cls-1" d="M83.16,1.15A.52.52,0,0,0,83,.85Z" transform="translate(0 -0.55)"/><path class="cls-1" d="M86.66,37.67l0,0S86.68,37.67,86.66,37.67Z" transform="translate(0 -0.55)"/><path class="cls-1" d="M82.41,1l0-.08A.24.24,0,0,0,82.41,1Z" transform="translate(0 -0.55)"/><path class="cls-1" d="M87.56,73.58c-.1-.1,0-.34-.11-.33S87.44,73.54,87.56,73.58Z" transform="translate(0 -0.55)"/><path class="cls-1" d="M83.26,35.4v-.07S83.25,35.39,83.26,35.4Z" transform="translate(0 -0.55)"/><path class="cls-1" d="M82.41,1l0,.09,0,0A.09.09,0,0,1,82.41,1Z" transform="translate(0 -0.55)"/><path class="cls-1" d="M85.36,25h0v0Z" transform="translate(0 -0.55)"/><path class="cls-1" d="M85.42,24.3l0,.14A.21.21,0,0,0,85.42,24.3Z" transform="translate(0 -0.55)"/><path class="cls-1" d="M83,.85,83,.68A1.22,1.22,0,0,0,83,.85Z" transform="translate(0 -0.55)"/><path class="cls-1" d="M84.55,17.1s0,0,0,.07A.14.14,0,0,0,84.55,17.1Z" transform="translate(0 -0.55)"/><path class="cls-1" d="M88,58.37s0,0,0,.06S88,58.43,88,58.37Z" transform="translate(0 -0.55)"/><polygon class="cls-1" points="85.35 53 85.35 53 85.35 53 85.35 53"/><path class="cls-1" d="M85.47,53.81a.31.31,0,0,0-.12-.26A.36.36,0,0,0,85.47,53.81Z" transform="translate(0 -0.55)"/><path class="cls-1" d="M85.34,53v0A.08.08,0,0,0,85.34,53Z" transform="translate(0 -0.55)"/><polygon class="cls-1" points="85.64 57.82 85.64 57.82 85.64 57.82 85.64 57.82"/><path class="cls-1" d="M85.52,57.31a.2.2,0,0,0,0-.08A.2.2,0,0,0,85.52,57.31Z" transform="translate(0 -0.55)"/><polygon class="cls-1" points="84.89 49.78 84.89 49.78 84.89 49.78 84.89 49.78"/><path class="cls-1" d="M83.44,40.35c.14,1,.42,2.29.45,3.29a1.79,1.79,0,0,1,.29.84l-.23.05.1.26c-.06.11-.06-.2-.14,0l.16.09c-.08,0,0,.68-.2.25l.08,1c0,.23.2.12.17.38-.07.05-.06-.09-.14-.06-.11.77.52.84.47,1.55l0-.06c.07.12.08.35.11.35.22-.11-.14-.12,0-.34.2,0,.13.26.28.23-.06.17.06.26.08.4s0,.6-.12.8c.07.12.27.24.3.5-.14.19-.15,0-.19.22l.12,0c0,.21,0,.18-.09.18,0,.22.17.17.12.45l-.12-.14a2.21,2.21,0,0,1,.06.57c-.07,0-.07-.11-.06-.2-.16.17.09.26.08.34s.06-.22.18-.13.17.28,0,.4l-.12-.15c.11.29.15.15.13.49,0,0,0,0-.06,0,.17.2.06.49.07.81l0-.05c0,.12.15.18.15.25,0-.18.09-.14.2-.16-.17.25.25.35.17.75a.14.14,0,0,1-.1-.21c-.2-.11-.36-.12-.47-.35,0,.15.1.32,0,.29l.18,0a2.15,2.15,0,0,1,0,.23c.11,0,.17-.2.26,0s-.17.13-.09.16c.1.32.2.12.17.44,0,0,0-.09,0-.12-.05.23.08.55-.13.63,0,0-.12,0-.11-.11h0c-.18-.24.06.2-.14.14.11,0,.11.29.1.43l.13-.06c.43.44-.26,0-.17.46.11.29,0-.11.13.06s-.12.28,0,.57c0,.09-.1.26-.24.29.07.17,0,.54.13.63.1-.32-.18-.29,0-.66l.15.09a5.44,5.44,0,0,1,.08.72.07.07,0,0,1,.09,0c.08.34.24.43.22.77-.12.06-.12-.14-.14-.29-.09.23,0,.24,0,.58-.12,0,0-.23-.13-.26l.07.37h0c.19,0,0,.28.08.51,0,.55.32.61.5.89,0,.09-.09.12-.14.09s0-.11,0-.16c0,.19-.15.43-.24.33.09.29.1-.12.17.06l0,.4c.09-.06.1-.2.19,0a1.76,1.76,0,0,1,0,.49s-.14.08-.15-.09c0,.12,0,.29.08.35.07-.26.13.4.26.2l-.06.26c0-.06-.07-.06-.06-.15-.14.09.06.2.08.29s0,.32-.07.34,0,.28,0,.32.1,0,.15,0l0,.4c-.08,0-.31.09-.34,0,.09.14.24,0,.26.26-.18-.12-.09.31-.3.14a1,1,0,0,0,0,.72c.14.11,0-.23.18-.23.11.57.47.57.46,1l0-.11a.84.84,0,0,0,.21.37c-.17-.06-.4.35-.32.78.09,0,.13-.26.27-.21L87,66s0,0-.06,0c.08.25-.16.5,0,.56l-.21.29.09-.12c.08,0,.14.32.17.37a.54.54,0,0,1,0,.58c.06-.06.2-.21.25,0-.26,0,0,.5-.18.51,0,.09,0,.27.06.27h-.16c.23,0,.25.34.32.6-.31,0,.06.28-.2.43.21,0,.14.46.33.48,0,.21-.16.21-.22.27l.09.08c-.09.12,0,.5-.09.73l.21.19-.07.09s.1.2.15.08v.11c.2,0,.07.15.19.37,0,.06-.08.05-.11,0,0,.12-.1.08-.16.15s.42.36.47,0c.08,0,.16.13.14.25l-.17.09.21.11c0,.17-.06.26-.06.4,0-.14-.39-.27-.34.1a1.34,1.34,0,0,0-.21-.37c0,.08,0,.12-.1,0,.09.28.12.08.18.37-.16,0-.2.09-.23.35l.1-.2s0,0,0,0,0-.1.09-.13.24.31.15.37c.21-.32.26.48.39.27,0,0,.09.23,0,.26-.16-.22-.16.21-.28.19.06.08.09-.21.17-.1a.54.54,0,0,1-.1.35l0-.05,0,.23c.09,0,.11-.24.18,0s0,.26,0,.26-.26,0-.32-.16c0,.15.13.6.25.4l0,.17c.05-.12.12-.44.2-.1h0l.16.23-.07.11s.09,0,.1.11,0,.12-.12.12c0,.26.13.23.18.25s0,.21-.09.15a2.32,2.32,0,0,1,0,.69c.11.26,0-.06.16.08-.25.27,0,.89.13,1.32.23-.16,0,.11.29.15-.1-.08-.13.44-.26.08l.06.22c-.11.18-.16-.36-.31-.09,0,.25.35.38.31.7-.19-.08.09.22-.11.18s-.07-.14-.09-.23l0,.06c0,.58.23.13.4.41s-.1.29-.17.33a.44.44,0,0,0,.09.31c-.14-.19,0-.41.17-.33-.18.18.06.51.16.59.13-.53,0-.34.1-.84-.07,0-.25,0-.22-.3.12.16.1,0,.12-.09s-.07-.18-.13-.26.27.13.26-.16h-.25c0-.12.19,0,.09-.21.15.11.19-.07.28.24.15-.41-.2-.56-.34-.84,0,0,0,0,.08,0s-.09-.16-.12-.25.13.14.19.08L89,77.65h0c0-.08-.08-.16,0-.2a1,1,0,0,0,.25.16l-.22-.3c.08,0,.09-.29.19-.07l-.12-.48.16-.07c-.05-.11-.08-.11-.08,0,0-.18-.4-.7-.06-.66a4.4,4.4,0,0,1-.32-1c.2.33.12-.44.25-.07,0-.23-.15-.25-.2-.42s.22-.13.3,0l-.1-.2h0L89,74.3c.06-.21.15-.07.15-.27L89,74l.07-.15c-.06.06-.11,0-.14-.19h0l0-.17c.11.16,0-.17.12-.1A1.59,1.59,0,0,0,89,73l-.09.06c-.13-.34.15,0,.12-.32l-.11,0c.13-.43-.2-.67-.12-1,0,.17.18.11.14.11a3.24,3.24,0,0,0-.27-.94.49.49,0,0,0,.24-.43c0-.2-.06-.23-.16-.28,0-.21-.11-.56,0-.58-.1,0,0-.18-.1-.28l0,0-.11,0c.2-.37-.22-.56,0-.94l0,.06-.06-.14s.08,0,.15,0l-.05-.68-.08.14c0-.14-.14-.23-.09-.4.2.26,0-.23.11-.29l.06.15c0-.2,0-.2-.15-.17-.07-.26.2-.21,0-.43l0,.17c-.07.06-.17-.06-.18-.17s0-.12.08,0c-.07-.2,0-.51-.1-.6s.11-.09.15,0c-.15-.43,0-.2-.15-.63h.07l-.1-.14.12-.23-.08.09a1,1,0,0,1-.06-.4l.1.06c-.1-.4.11-.49-.07-.86,0,0,.06,0,.08.06-.2-.35.14-.29-.09-.63,0,0,.07,0,.1,0l-.08-.16h.13l-.2-.12.12-.11-.07-.06c.24-.2,0-.43.19-.69l-.16.06c-.4-.57.06-1.4-.16-2.11h.13l-.18-.29c.09-.17.12.09.18,0-.1-.31-.2-.11-.28-.49.07-.2.11.06.16.15A3.16,3.16,0,0,1,88,58.43s0,0,0,0a5,5,0,0,1-.09-.8c.06,0,.08.07.1.13,0-.09,0-.23,0-.3l.12.09c0-.2-.13-.57,0-.63,0,0-.15,0-.16-.15.19-.11-.12-.45,0-.74.05,0,.08.23.08.17s-.06-.26-.14-.37l.09,0-.17-.63c.19-.11-.08-.6.07-.57,0-.23-.07.2-.12-.09.08-.09-.06-.26.07-.26l0,0,0-.2.14.12a.35.35,0,0,0-.28-.29c.06-.17,0-.4.09-.49l0,.06c-.09-.46.29-.8,0-1.14,0,0,0,0,0,0l0-.29.11.06-.19-.46h.06c0-.31-.07-.8-.12-1.21l0,.06c-.13-.43,0-.43-.06-.74l0,0,0-.29.07.06c-.16-.21.13-.63,0-.49-.07-.11-.16-.32-.24-.35,0-.31.08-.08.12-.28s-.13-.26-.1-.58h.07c0-.15-.08-.24-.11-.44l0,.06c-.16-.32.16-.42-.15-.66,0-.14,0-.4.12-.4a11.38,11.38,0,0,1-.27-1.12c.21-.08,0-.09.08-.34l-.11,0c-.07-.57.16-1.26.06-1.89l.12,0L87.19,43c0-.69,0-1.58-.07-2.13a1.46,1.46,0,0,1-.22-.72l0,0a6,6,0,0,1-.19-1.55s.08,0,.11,0c-.13-.12,0-.32,0-.43l-.07.14a.38.38,0,0,1,0-.46l-.15-.23s0,0,0,0l-.06,0,.14-.14c0-.06-.11-.38-.26-.46,0,0,.07-.26.11-.09l0-.89,0,.14c-.11,0-.21-.23-.17-.37.11.17.17,0,.25-.09-.08-.11-.1.12-.17.06a.92.92,0,0,1-.11-.55l0,.09c-.06-.2.13-.32.1-.52s0-.32-.22-.26c-.07-.26.12-.11.13-.2a.56.56,0,0,1,0-.55c-.3-.11,0-.71-.22-.74l.11-.23a.27.27,0,0,1-.26-.2c0-.17.17-.15.23-.2L86,32.34c.15-1-.16-2.21-.06-3.27a9.09,9.09,0,0,1-.31-1.57l0,.06V27l-.06.4a1.28,1.28,0,0,1-.11-.31A6.72,6.72,0,0,0,85.36,25c-.33-.44.21-.34,0-.77,0,0,.07.05.1.08A8.3,8.3,0,0,0,85,23.1c.28,0,0-.31.11-.28l-.12,0c.06-.12.06-.37.14-.35L85,22.25l.11,0c0-.28-.18-.88,0-1.05a11.38,11.38,0,0,1-.35-2.68,1.28,1.28,0,0,1-.17-.57l.12-.23c-.06-.2-.26-.4-.18-.6l0,0c0-.2,0-.41-.13-.59s0-.45.17-.4c-.23,0,0-.48,0-.48l-.1-1.87c-.06-1.14-.12-2.69-.25-4.32S84,6.09,83.85,4.61a12.37,12.37,0,0,0-.69-3.46c-.11-.09-.19-.36-.32-.26,0-.2.15-.3,0-.34-.07.28-.29-.08-.43.19l0-.18c-.08,0,.09.24,0,.2l.21.05a.41.41,0,0,1-.14.27c.08.13.37.22.25.54l0-.09c0,.26-.13.16-.16.21V1.68l-.11.23c.07-.17-.1-.44-.09-.3,0,.31,0-.08.08.15s-.1.11-.16.1v.26c-.1,0,0-.17-.1-.07l.11.33c-.25.06.12.35-.11.51-.06-.24-.08,0-.16,0l0,.58c0,.06-.08-.15-.06-.06s.06.18.06.23,0,.43-.16.42c-.1.4.22.16.13.53-.1,0,0-.29-.13-.12l0,.37s-.16-.07-.14-.21c-.1,1-.59,1.6-.42,2.54-.11.14-.09-.09-.17-.18.19.67-.22,1-.18,1.55h.1A11.56,11.56,0,0,0,81,11.23l.06-.11a1.52,1.52,0,0,1,.18.46s-.21-.09-.16.17c0-.05.06-.17.11-.14a7.61,7.61,0,0,0-.09,1.69c0,.68.07,1.41.07,2.06.21,1.73.21,3.63.44,5.33,0-.26.22-.18.18,0-.35.58.16.93-.06,1.5.24,1,0,1.89.4,2.78L82,25c0,.14,0,.17.08.32h0c0,.34.15.74.12.94h.13c0,.2-.09.12,0,.32h-.07l.15.22c-.23,0,0,.58,0,.75a4.67,4.67,0,0,1,.23,1.14c-.11.09-.06.58-.08.89a21,21,0,0,1,.27,2.23l.15,0,0,.2s0,0-.06,0c-.15.17.1.45,0,.62.12-.11,0-.14,0-.25s.21,0,.16.2h0l.09.14c-.11,0-.15.17-.26.2a11.33,11.33,0,0,1,.36,1.77c-.13-.06.08.48-.16.37.13.4.18-.09.35.08,0,.12.08.23,0,.26s-.12.1-.15,0l0,.27s0,0-.07-.05c.18.54-.06,1,.12,1.48.08,0,0-.2.09-.17.21.48-.11.46,0,.91l-.12-.08c.09.14.2.2.13.45-.13.06-.13-.2-.2-.31,0,.17.08.6.19.45.06.2,0,.29-.07.4s.07-.2.14-.08a5.3,5.3,0,0,0,0,1s-.08,0-.1,0C83.67,40,83.38,40,83.44,40.35Z" transform="translate(0 -0.55)"/><path class="cls-1" d="M85.63,58.52v-.14a.09.09,0,0,1-.1-.07Z" transform="translate(0 -0.55)"/><path class="cls-1" d="M85.15,52l0-.05S85.14,52,85.15,52Z" transform="translate(0 -0.55)"/><path class="cls-1" d="M84.79,50.39c0,.11.07,0,.1,0A.11.11,0,0,0,84.79,50.39Z" transform="translate(0 -0.55)"/><path class="cls-1" d="M86.32,62.19a0,0,0,0,0-.06,0S86.31,62.2,86.32,62.19Z" transform="translate(0 -0.55)"/><path class="cls-1" d="M87.41,72.45l0,0A.08.08,0,0,0,87.41,72.45Z" transform="translate(0 -0.55)"/><path class="cls-1" d="M87.54,71.85a.36.36,0,0,0,0-.11A.16.16,0,0,0,87.54,71.85Z" transform="translate(0 -0.55)"/><path class="cls-1" d="M86,59.71a.16.16,0,0,0-.05-.1C86,59.67,86,59.7,86,59.71Z" transform="translate(0 -0.55)"/><path class="cls-1" d="M87.46,71.63v-.15h0Z" transform="translate(0 -0.55)"/><path class="cls-1" d="M87.42,72.63c0-.06,0-.13,0-.18A.19.19,0,0,0,87.42,72.63Z" transform="translate(0 -0.55)"/><path class="cls-1" d="M86.89,65.94v0C86.81,65.82,86.84,65.89,86.89,65.94Z" transform="translate(0 -0.55)"/><polygon class="cls-1" points="87.16 70.48 87.16 70.46 87.12 70.42 87.16 70.48"/><path class="cls-1" d="M87.45,73.25a.33.33,0,0,0,0-.06v.08Z" transform="translate(0 -0.55)"/><path class="cls-1" d="M86.92,68.11a.24.24,0,0,0,.11,0C87,68.1,87,68.08,86.92,68.11Z" transform="translate(0 -0.55)"/><path class="cls-1" d="M80.59,30.84a.11.11,0,0,0,0,.06A.14.14,0,0,0,80.59,30.84Z" transform="translate(0 -0.55)"/><path class="cls-1" d="M87.11,32.51H87S87.1,32.53,87.11,32.51Z" transform="translate(0 -0.55)"/><path class="cls-1" d="M76.61,30.14s0,0,0,0l-.28,0Z" transform="translate(0 -0.55)"/><path class="cls-1" d="M100.47,37.45l-.08,0Z" transform="translate(0 -0.55)"/><path class="cls-1" d="M92.68,34.21h.12S92.71,34.18,92.68,34.21Z" transform="translate(0 -0.55)"/><path class="cls-1" d="M74.58,28.68l.11.1S74.65,28.7,74.58,28.68Z" transform="translate(0 -0.55)"/><path class="cls-1" d="M70.41,28.83s0,0,0,0S70.42,28.84,70.41,28.83Z" transform="translate(0 -0.55)"/><path class="cls-1" d="M72,29.22l.12,0S72,29.19,72,29.22Z" transform="translate(0 -0.55)"/><path class="cls-1" d="M72.19,29.17l-.06,0S72.19,29.19,72.19,29.17Z" transform="translate(0 -0.55)"/><path class="cls-1" d="M127.79,76.05a.81.81,0,0,0,.08.34Z" transform="translate(0 -0.55)"/><path class="cls-1" d="M111.6,43.75h0S111.6,43.76,111.6,43.75Z" transform="translate(0 -0.55)"/><path class="cls-1" d="M128.52,76.29l0,.08A.13.13,0,0,0,128.52,76.29Z" transform="translate(0 -0.55)"/><path class="cls-1" d="M76.8,28.65c.13-.07.37.06.38,0S76.87,28.54,76.8,28.65Z" transform="translate(0 -0.55)"/><path class="cls-1" d="M115.74,42.87l.06.05Z" transform="translate(0 -0.55)"/><path class="cls-1" d="M128.52,76.29l0-.09,0,0A.2.2,0,0,1,128.52,76.29Z" transform="translate(0 -0.55)"/><path class="cls-1" d="M121.09,52.83Z" transform="translate(0 -0.55)"/><path class="cls-1" d="M121.38,53.48l-.11-.11A.22.22,0,0,0,121.38,53.48Z" transform="translate(0 -0.55)"/><path class="cls-1" d="M127.87,76.39l0,.19A.41.41,0,0,0,127.87,76.39Z" transform="translate(0 -0.55)"/><path class="cls-1" d="M125.15,59.86l0-.06A.33.33,0,0,0,125.15,59.86Z" transform="translate(0 -0.55)"/><path class="cls-1" d="M92.18,34l-.06,0S92.11,34,92.18,34Z" transform="translate(0 -0.55)"/><polygon class="cls-1" points="98.01 33.09 98.01 33.09 98.01 33.09 98.01 33.09"/><path class="cls-1" d="M97.7,33.64a.37.37,0,0,0,.31,0A.46.46,0,0,0,97.7,33.64Z" transform="translate(0 -0.55)"/><path class="cls-1" d="M98.58,33.91l0,0Z" transform="translate(0 -0.55)"/><polygon class="cls-1" points="93.09 31.25 93.09 31.26 93.09 31.25 93.09 31.25"/><path class="cls-1" d="M94.2,32.15s0,0,.06.06Z" transform="translate(0 -0.55)"/><polygon class="cls-1" points="101.35 34.24 101.35 34.25 101.36 34.25 101.35 34.24"/><path class="cls-1" d="M111.42,39.45c-.49-.27-1.07-.56-1.64-.86l-.83-.45c-.27-.15-.54-.29-.77-.44a2,2,0,0,1-.93-.26l.08-.22-.3-.08c-.07-.12.22.07.08-.11l-.17.07c0-.08-.63-.41-.12-.32l-.5-.27-.51-.26c-.23-.12-.22.11-.45-.07,0-.08.11,0,.13-.08-.67-.53-1.06,0-1.71-.47h.07c-.14,0-.37-.11-.39-.09,0,.26.18,0,.34.17-.1.17-.31,0-.36.11-.14-.14-.28-.08-.43-.13-.19-.23-.58-.31-.7-.53-.15,0-.36.12-.62,0s.1-.12-.13-.29l-.09.09c-.2-.11-.15-.12-.12-.17-.22-.1-.25.06-.5-.12l.2,0a2.7,2.7,0,0,1-.59-.23c0-.06.15,0,.23.05-.09-.22-.3,0-.38-.1s.2.16.06.23c-.14-.08-.37,0-.42-.15l.2,0c-.33,0-.21.06-.54-.12,0,0,0,0,0-.05-.27.05-.51-.19-.82-.33h.07c-.15,0-.25,0-.32,0,.16.13.1.14.07.25-.17-.27-.44.05-.8-.2a.15.15,0,0,1,.24,0c.2-.13.28-.28.55-.26-.16,0-.35-.06-.28-.12l-.12.15-.23-.1c-.08.09.12.24-.12.24s-.06-.22-.13-.16c-.35-.06-.2.13-.5,0a.18.18,0,0,1,.13,0c-.2-.15-.57-.17-.56-.4,0,0,.08-.09.16,0v0c.3-.06-.23,0-.08-.19,0,.11-.34,0-.48-.1v.14c-.62.19.11-.24-.38-.37-.34,0,.1.08-.12.1s-.23-.24-.55-.28c-.07-.08-.22-.2-.19-.35-.2,0-.54-.25-.69-.14.28.22.37-.05.67.26l-.15.1a4.57,4.57,0,0,1-.76-.24s0,.08,0,.1c-.38-.06-.52,0-.86-.12,0-.14.19,0,.34,0-.19-.18-.23-.09-.57-.25,0-.11.24.09.31,0l-.4-.1v0c-.12.16-.3-.11-.56-.12-.57-.17-.73,0-1.09.11-.07-.08-.08-.13,0-.17.12.13.11.05.17,0-.19,0-.37-.31-.24-.35-.32,0,.09.13-.12.13l-.41-.13c0,.11.16.17-.08.18a2.77,2.77,0,0,1-.51-.15s0-.16.15-.11a.37.37,0,0,0-.39,0c.24.15-.45,0-.29.17l-.24-.16c.06,0,.08,0,.16,0,0-.16-.22,0-.32,0S89,31,89,31a.33.33,0,0,1-.3-.15c-.13,0,0,.09-.09.13l-.41-.12c0-.09,0-.32.09-.34-.18,0-.12.23-.36.16.18-.12-.29-.21,0-.34a1.22,1.22,0,0,0-.74-.25c-.17.1.22.13.17.25-.62-.09-.74.25-1.17.09l.1.06a.86.86,0,0,0-.44.07c.11-.14-.23-.49-.7-.56,0,.07.23.21.13.32l-.32-.05s0,0,.07-.05c-.29,0-.47-.3-.59-.13l-.23-.29.09.12c-.06.07-.37,0-.44.05a.63.63,0,0,1-.59-.19c0,.07.15.25-.1.23,0-.26-.51-.2-.47-.33-.11,0-.27-.13-.3,0l.05-.15c-.07.21-.43.14-.72.14.11-.3-.31,0-.39-.33-.09.2-.52,0-.6.18-.22,0-.16-.22-.21-.29l-.11.06c-.1-.12-.5-.2-.74-.3l-.25.15L79.28,29s-.24,0-.13.12l-.12,0c0,.2-.18,0-.44.09,0,0,0-.09,0-.11-.12,0-.06-.11-.12-.19s-.48.31-.16.44c0,.09-.19.12-.31.07l0-.19-.16.17c-.19,0-.26-.12-.41-.16.16,0,.39-.3,0-.35a1.33,1.33,0,0,0,.45-.11c-.08,0-.12,0,0-.1-.33,0-.12.1-.44.08,0-.16,0-.22-.31-.31l.19.15,0,0a.14.14,0,0,1,.1.12c-.06,0-.38.16-.43.06.29.28-.56.13-.38.31,0,0-.26,0-.27-.05.27-.1-.18-.2-.13-.31-.1,0,.2.13.06.18a.61.61,0,0,1-.35-.17l.07,0-.23-.1c0,.08.22.16,0,.18,0,0-.28,0-.27-.08s.06-.26.25-.27c-.16,0-.66,0-.47.15l-.19,0c.11.08.43.24,0,.22v0l-.27.1-.11-.09s0,.07-.14.06-.11-.08-.1-.14c-.28,0-.26.07-.3.11s-.22,0-.14-.13a2.59,2.59,0,0,1-.73-.12c-.29.05.06,0-.12.13-.23-.29-1-.16-1.42-.15.12.26-.13,0-.22.25.1-.08-.44-.2,0-.27l-.25,0c-.17-.15.42-.1.17-.29-.29,0-.48.27-.81.17.11-.17-.26.05-.17-.14s.16,0,.25-.05l-.05,0c-.62-.06-.19.21-.51.32s-.3-.14-.32-.23a.56.56,0,0,0-.35,0c.23-.11.43.12.32.23-.17-.21-.56,0-.66.05.53.22.37,0,.87.25.07-.06.06-.24.36-.16-.19.08,0,.1.07.13s.21,0,.3-.08-.18.24.12.28l.06-.24c.12,0,0,.18.2.13-.14.12,0,.19-.31.23.41.22.64-.11,1-.18,0,0,0,0-.07.06S71.86,29,72,29s-.17.1-.12.17h.34a0,0,0,0,1,0,0c.09,0,.18,0,.2,0s-.14.15-.22.21l.37-.15c0,.08.29.16,0,.2h.53l0,.16c.13,0,.14-.05,0-.08.17,0,.82-.24.7.08a4.48,4.48,0,0,1,1.07-.08c-.39.11.43.23,0,.26.24.1.3-.08.49-.09s.08.24-.12.28l.23-.05v0l.21-.07c.19.1,0,.17.23.21L76,30l.14.09c0-.07.08-.09.24-.08v0h.19c-.2.07.17.05.07.14a2.07,2.07,0,0,0,.45,0l0-.11c.39,0,0,.15.31.2v-.12c.41.25.76,0,1.06.15-.19,0-.16.14-.15.11a4,4,0,0,0,1,0c.08.19.1.24.39.36s.24,0,.33-.07c.2.09.6.06.59.18.06-.09.18.05.31,0l0,.05v-.12c.32.32.64,0,1,.24l-.07,0L82,31c0,.06,0,.08-.07.14l.72.16-.13-.12c.15,0,.28-.07.44,0-.32.12.24.06.26.2H83c.22,0,.22,0,.22-.09.28,0,.15.25.42.18l-.17,0c-.05-.07.1-.14.22-.12s.1.09,0,.09c.22,0,.53.12.64.09s.05.13,0,.15c.48,0,.21.06.69.07l0,.06.17,0,.19.19-.06-.11a1.41,1.41,0,0,1,.43.08l-.1.08c.44,0,.46.27.89.22,0,0,0,0-.08.05.41-.06.24.23.66.14,0,0,0,.07,0,.09h.18l0,.12.18-.15.08.16.08-.05c.12.29.42.18.62.42v-.17c.71-.16,1.38.54,2.16.62l-.05.12.36-.06c.13.15-.14.08-.1.16.35,0,.19-.14.58-.07.17.14-.09.07-.2.09a3.59,3.59,0,0,1,1.16.28s0,0,0,0a3.8,3.8,0,0,1,.81.26s-.09,0-.16,0c.09,0,.21.12.31.09l-.14.07c.2.09.62.12.62.26,0-.05,0-.14.2-.08,0,.22.5.08.74.27,0,0-.25,0-.2,0s.28,0,.42,0l-.06.06L95,35l.34.06c0,.23.61.2.52.32.23.09-.16-.15.13-.07,0,.11.28.06.22.18h0l.2.06-.17.08a.38.38,0,0,0,.4-.13c.14.13.39.16.43.3H97c.49.12.64.61,1.07.56,0,0,0,.06,0,0l.28.12-.1.07.52,0,0,.06a12.49,12.49,0,0,0,1.19.46h-.08c.47.08.39.24.73.31h0l.28.12-.08,0c.26,0,.51.43.43.26.14,0,.38,0,.44,0,.31.13,0,.11.21.24s.3,0,.57.21l0,.06a3.07,3.07,0,0,1,.44.14h-.07c.37,0,.3.36.67.23.11.11.37.2.3.31.43.12.75.24,1.15.38,0,.22.1,0,.26.26l0-.11c.54.28,1,.87,1.61,1.15l0,.11.18,0c.61.39,1.36.93,1.85,1.23a1.56,1.56,0,0,1,.74.27h0a6.37,6.37,0,0,1,1.38.87c-.06,0,0,.08-.1.07.18,0,.27.18.37.25l-.07-.15c.2,0,.33.22.35.33l.28,0a.06.06,0,0,1,0,.06l.07,0,0,.2c.06,0,.35.18.52.13,0,0,.16.23,0,.14l.71.59-.08-.13c.06-.1.32,0,.41.14-.21,0-.12.12-.1.23s0-.14.06-.15a.89.89,0,0,1,.5.29l-.1,0c.2.1.15.31.32.44s.26.21.35,0c.24.15,0,.17,0,.25s.41.3.39.41c.3-.13.49.55.69.4l.09.25a.26.26,0,0,1,.33,0c.09.17,0,.23,0,.31l.25-.1c.53.88,1.63,1.61,2.19,2.57a8.92,8.92,0,0,1,1.22,1.12l-.07,0,.31.48-.18-.39a1.48,1.48,0,0,1,.27.21,7.81,7.81,0,0,0,1.3,1.76c.5.23,0,.41.42.67a.59.59,0,0,0-.13,0,9.38,9.38,0,0,0,1,.86c-.27.1.19.26,0,.31l.12,0c0,.13.11.37,0,.38l.24.12-.09.07c.15.26.56.74.43,1a3.91,3.91,0,0,1,.4.48,5.78,5.78,0,0,1,.36.61c.22.43.43.9.62,1.31a1,1,0,0,1,.36.49l0,.26c.12.18.36.32.36.53h0c.11.18.12.4.32.53s.1.46,0,.44c.23-.06.17.47.15.47l.53,1.84c0,.14.09.28.13.43s.06.32.1.48c.07.33.14.68.22,1s.19.74.23,1.14.12.8.18,1.21.15.83.18,1.26.07.84.11,1.26.09.84.12,1.24,0,.81,0,1.2a23.43,23.43,0,0,0,.37,3.64c.1.12.15.41.29.32,0,.22-.19.29-.08.35.11-.29.28.13.45-.14v.19c.07,0-.07-.26.07-.2l-.2-.08a.44.44,0,0,1,.18-.27c-.07-.15-.35-.27-.19-.59v.09c0-.28.16-.15.2-.21v.06l.13-.22c-.09.17.05.48.05.33.1-.33-.06.08-.06-.17s.12-.1.18-.09l0-.28c.1,0,0,.19.09.08l-.07-.35c.26-.05-.08-.39.17-.53,0,.25.09,0,.16,0s0-.61,0-.62.07.17.06.08-.05-.2-.05-.26,0-.47.17-.44c.12-.42-.21-.19-.1-.58.1-.05,0,.32.12.14l0-.41c.05,0,.16.09.14.24a7.94,7.94,0,0,1,.39-1.41,2.82,2.82,0,0,0,.09-1.34c.1-.16.08.1.17.2-.21-.74.19-1.08.14-1.72h-.1a14.94,14.94,0,0,0-.19-3l0,.14a1.8,1.8,0,0,1-.27-.49s.23.07.13-.21c0,.07,0,.2-.09.17a8.65,8.65,0,0,0-.22-1.87,11.53,11.53,0,0,0-.29-1.12c-.11-.38-.21-.75-.29-1.11s-.16-.46-.25-.7l-.28-.69-.55-1.42c-.17-.48-.41-.93-.62-1.38s-.45-.89-.68-1.31c.14.26-.13.26-.18,0,.06-.72-.6-.85-.68-1.52a11.53,11.53,0,0,0-1.84-2.56l.08-.08c0-.16-.13-.14-.24-.27l0,0c-.18-.34-.59-.61-.68-.82l-.11.07c-.15-.17,0-.16-.2-.29l.06,0-.27-.14c.19-.12-.4-.5-.43-.71l-.44-.4a3.38,3.38,0,0,1-.5-.5c0-.14-.34-.54-.54-.83s-.53-.54-.85-.83-.65-.61-1-.92l-.09.12-.17-.14s0-.06,0,0c0-.24-.41-.31-.47-.52,0,.18.1.13.19.22s-.14.16-.27-.06l0,0-.18-.06c.06-.1,0-.25,0-.35a14.21,14.21,0,0,1-1.64-1.15c.14-.05-.44-.33-.18-.41-.41-.22-.06.19-.32.18-.09-.08-.23-.12-.2-.2s0-.17.1-.12l-.26-.17s.06,0,.1,0c-.58-.28-.79-.78-1.31-1-.09,0,.16.16.08.2-.55-.21-.31-.42-.8-.64l.16,0c-.18,0-.3,0-.48-.22,0-.14.26,0,.4.07-.15-.12-.57-.36-.52-.18-.21-.09-.21-.23-.29-.33s.12.19,0,.16a6.54,6.54,0,0,0-.92-.72s0-.08.06-.08C111.6,39.88,111.79,39.66,111.42,39.45Z" transform="translate(0 -0.55)"/><path class="cls-1" d="M93,31.74l.14.06s0-.06.1-.07Z" transform="translate(0 -0.55)"/><path class="cls-1" d="M99.65,34.23h.06A.06.06,0,0,0,99.65,34.23Z" transform="translate(0 -0.55)"/><path class="cls-1" d="M101.35,34.69c-.13,0,0,.05,0,.11A.13.13,0,0,0,101.35,34.69Z" transform="translate(0 -0.55)"/><path class="cls-1" d="M89,31s.05,0,.06-.05S89,31,89,31Z" transform="translate(0 -0.55)"/><path class="cls-1" d="M78,28.8l0,0Z" transform="translate(0 -0.55)"/><path class="cls-1" d="M78.62,29.08a.28.28,0,0,0,.13,0Z" transform="translate(0 -0.55)"/><path class="cls-1" d="M91.58,31.65a.2.2,0,0,0,.13,0A.25.25,0,0,0,91.58,31.65Z" transform="translate(0 -0.55)"/><path class="cls-1" d="M78.88,29.07l.15,0v0Z" transform="translate(0 -0.55)"/><path class="cls-1" d="M77.84,28.76l.19,0A.28.28,0,0,0,77.84,28.76Z" transform="translate(0 -0.55)"/><path class="cls-1" d="M85,30.2s0,0,0,0S85,30.18,85,30.2Z" transform="translate(0 -0.55)"/><polygon class="cls-1" points="79.58 28.38 79.6 28.39 79.65 28.36 79.58 28.38"/><path class="cls-1" d="M77.18,28.63a.13.13,0,0,0,.08,0l-.09,0A.08.08,0,0,1,77.18,28.63Z" transform="translate(0 -0.55)"/><path class="cls-1" d="M82.7,29.56c-.06,0-.08.07-.08.1S82.7,29.65,82.7,29.56Z" transform="translate(0 -0.55)"/><path class="cls-1" d="M120.64,50.63v-.06S120.63,50.61,120.64,50.63Z" transform="translate(0 -0.55)"/><path class="cls-1" d="M117.11,50.32l0,0Z" transform="translate(0 -0.55)"/><path class="cls-1" d="M122.75,50.75h.14Z" transform="translate(0 -0.55)"/><path class="cls-1" d="M109.6,50h0Z" transform="translate(0 -0.55)"/><path class="cls-1" d="M114.06,50.24a.13.13,0,0,1-.06,0S114.05,50.29,114.06,50.24Z" transform="translate(0 -0.55)"/><path class="cls-1" d="M123.9,52l-.06-.08A.08.08,0,0,0,123.9,52Z" transform="translate(0 -0.55)"/><path class="cls-1" d="M126,51.61v0S126,51.6,126,51.61Z" transform="translate(0 -0.55)"/><path class="cls-1" d="M125.19,51.28l-.06,0A.06.06,0,0,0,125.19,51.28Z" transform="translate(0 -0.55)"/><path class="cls-1" d="M125.1,51.34l0,0S125.1,51.33,125.1,51.34Z" transform="translate(0 -0.55)"/><path class="cls-1" d="M82.7,50c-.06,0-.12,0-.19.07Z" transform="translate(0 -0.55)"/><path class="cls-1" d="M102.8,49.94l0,0S102.8,49.93,102.8,49.94Z" transform="translate(0 -0.55)"/><path class="cls-1" d="M82.42,50.65l0,0S82.4,50.65,82.42,50.65Z" transform="translate(0 -0.55)"/><path class="cls-1" d="M122.77,52.26c-.06.08-.19,0-.19.06S122.74,52.37,122.77,52.26Z" transform="translate(0 -0.55)"/><path class="cls-1" d="M101.38,53.14h0Z" transform="translate(0 -0.55)"/><path class="cls-1" d="M82.42,50.65l0,0v0Z" transform="translate(0 -0.55)"/><path class="cls-1" d="M95.64,50.13h0l0,0Z" transform="translate(0 -0.55)"/><path class="cls-1" d="M95.26,50l.08,0A.08.08,0,0,0,95.26,50Z" transform="translate(0 -0.55)"/><path class="cls-1" d="M82.51,50l-.11,0A.21.21,0,0,0,82.51,50Z" transform="translate(0 -0.55)"/><path class="cls-1" d="M91.27,50.28h0Z" transform="translate(0 -0.55)"/><path class="cls-1" d="M114.34,50.29l0,0S114.38,50.27,114.34,50.29Z" transform="translate(0 -0.55)"/><polygon class="cls-1" points="111.56 52 111.56 52 111.56 52 111.56 52"/><path class="cls-1" d="M111.71,52.44s-.11.05-.15.11S111.65,52.53,111.71,52.44Z" transform="translate(0 -0.55)"/><path class="cls-1" d="M111.24,52.51h0Z" transform="translate(0 -0.55)"/><polygon class="cls-1" points="114.25 52.11 114.25 52.1 114.25 52.11 114.25 52.11"/><path class="cls-1" d="M113.65,52.68l0,0Z" transform="translate(0 -0.55)"/><polygon class="cls-1" points="109.75 52.2 109.76 52.19 109.75 52.19 109.75 52.2"/><path class="cls-1" d="M104.14,53.39a12.87,12.87,0,0,1,1.85-.18c.12-.17.3-.18.48-.22l0,.23.15-.07c.06.07-.12,0,0,.13l.05-.14c0,.08.39,0,.14.22h.58c.12,0,.07-.2.21-.14s0,.05,0,.13c.43.17.49-.45.89-.35l0,0c.07-.06.2-.05.2-.08-.05-.24-.07.12-.19,0s.15-.11.14-.26c.09.07.15,0,.23,0s.33,0,.44.19c.06-.06.14-.26.28-.27.11.16,0,.15.12.21l0-.12c.12,0,.1,0,.1.11s.1-.16.25-.09l-.08.11a.66.66,0,0,1,.32,0c0,.06-.07.06-.11,0,.08.17.14-.07.19,0s-.12-.08-.07-.19.17-.15.23,0l-.09.11c.16-.09.09-.14.28-.1,0,0,0,0,0,.06.12-.14.28,0,.45,0l0,0c.07,0,.11-.14.15-.13s-.08-.1-.09-.21c.14.19.21-.22.43-.11,0,.07-.06.15-.12.08-.07.19-.08.35-.21.44.08,0,.18-.07.16,0l0-.18h.13c0-.11-.1-.19,0-.26s.07.18.09.1c.18-.07.08-.19.25-.13,0,0,0,0-.07,0s.31,0,.35.18c0,.05,0,.11-.07.1v0c-.13.16.12,0,.07.15,0-.11.17-.09.25-.06l0-.14c.26-.39,0,.26.25.21s-.06,0,0-.13.15.14.31.09a.39.39,0,0,1,.15.27c.1-.06.3.06.36-.08-.17-.13-.17.15-.37,0l.06-.14c.13,0,.31-.07.4,0a.07.07,0,0,1,0-.09c.19-.06.25-.2.44-.16,0,.13-.09.11-.17.12.12.11.13,0,.32.05,0,.12-.13,0-.15.11l.21,0v0c0-.19.16,0,.29,0,.31,0,.35-.27.52-.43a.15.15,0,0,1,0,.15c-.08-.08-.06,0-.09,0s.23.18.17.26c.16-.06-.06-.1,0-.16h.22c0-.1-.1-.12,0-.2a.84.84,0,0,1,.28,0s0,.15-.06.15a.14.14,0,0,0,.2-.06c-.14-.09.23-.09.12-.24l.14.09s0,.06-.08,0c0,.15.11,0,.16-.06s.18,0,.19.1a.12.12,0,0,1,.17.06c.07,0,0-.09,0-.14h.22a1,1,0,0,1,0,.34c.08-.08,0-.25.16-.24-.08.16.17.12.06.31.08.12.29.11.4.07s-.12-.07-.12-.2c.32-.06.34-.42.58-.36l-.07,0a.34.34,0,0,1,.64.23c0-.09-.14-.16-.1-.29l.16,0s0,0,0,.06c.15-.06.27.2.31,0l.15.24-.06-.1c0-.08.19-.11.22-.14s.22,0,.32.08c0-.07-.11-.22,0-.25,0,.26.28.09.28.23s.14.07.15,0v.16c0-.23.2-.22.35-.27,0,.31.16,0,.23.26,0-.21.26-.09.28-.27.11,0,.11.18.14.25l.05-.08c.06.1.27.11.4.17l.11-.18,0,.08c0-.05.11-.08.05-.15h.06c0-.2.09-.05.22-.14a.08.08,0,0,1,0,.11c.07,0,0,.1.08.17s.22-.37,0-.46a.11.11,0,0,1,.15-.11l0,.18.07-.19c.1,0,.15.09.23.11-.08,0-.17.35,0,.34-.11,0-.16.13-.21.17s.06,0,0,.1c.16-.06.05-.11.21-.14,0,.17,0,.22.19.27l-.11-.12a.05.05,0,0,1,0,0s-.06,0-.07-.11.18-.2.21-.1c-.17-.25.28-.21.17-.36a.08.08,0,0,1,.15,0c-.13.13.1.19.09.3s-.11-.12,0-.18.14.09.19.14l0,0,.13.07c0-.08-.13-.14,0-.18s.15,0,.15.05,0,.27-.11.3c.08,0,.34,0,.23-.19h.1c-.06-.07-.24-.19,0-.21v0l.13-.13.06.09c0-.05,0-.08.07-.08s.06.07.06.13.13-.09.14-.14.12,0,.08.12c.11,0,.31,0,.38.08.15-.08,0,0,.06-.15.13.28.49.1.73.06-.07-.25.07,0,.1-.26,0,.08.24.19,0,.27l.13,0c.09.13-.21.1-.07.29.14,0,.23-.29.4-.2,0,.18.13-.06.1.14s-.08,0-.13.06l0,0c.32,0,.08-.21.25-.33s.16.13.17.22.13,0,.18-.05c-.12.11-.23-.1-.18-.22.1.2.29,0,.34-.07-.28-.2-.19,0-.46-.23,0,.07,0,.25-.18.18.1-.09,0-.1,0-.13s-.1,0-.15.09.09-.24-.07-.28l0,.24c-.07,0,0-.18-.11-.12.06-.13,0-.19.14-.24-.21-.2-.32.12-.48.21,0,0,0,0,0-.06s-.09.06-.14.08.08-.12,0-.18h-.18v0s-.09.06-.11,0a1.46,1.46,0,0,0,.1-.23l-.18.18c0-.09-.15-.14,0-.2l-.28,0,0-.17c-.06,0-.06.07,0,.08-.1,0-.41.3-.37,0-.21.14-.29.09-.55.18.2-.16-.23-.19,0-.26-.13-.07-.15.11-.25.14a.2.2,0,0,1,0-.3l-.11.08v0l-.1.09c-.11-.08,0-.16-.14-.18l0,.14-.08-.08c0,.07,0,.1-.11.11v0l-.1,0c.1-.09-.09,0-.05-.14a.82.82,0,0,0-.23,0l0,.1c-.2.09,0-.15-.17-.16v.12c-.24-.19-.39.11-.56,0,.09,0,.07-.16.07-.13-.15,0-.39,0-.54.17-.06-.17-.07-.22-.23-.29s-.13,0-.16.12c-.11-.06-.32,0-.32-.08,0,.1-.1,0-.16.07l0-.05,0,.11c-.2-.25-.33.15-.53-.07l0,0-.08.05c0-.05,0-.08,0-.15h-.38l.08.08c-.08,0-.13.13-.23.06.15-.18-.13,0-.15-.14l.08,0c-.11,0-.11,0-.1.12-.15,0-.11-.21-.24-.09h.1a.13.13,0,0,1-.1.16s-.07-.07,0-.09c-.11.05-.29,0-.33,0s0-.12,0-.15c-.24.11-.11,0-.35.09v-.07l-.08.08-.12-.13,0,.08c-.08,0-.13.06-.22,0l0-.09c-.22,0-.26-.16-.48,0,0,0,0,0,0-.07-.2.16-.16-.17-.35,0,0,0,0-.07,0-.1l-.09.07v-.13l-.08.19,0-.13,0,.06c-.1-.25-.24-.06-.37-.24l0,.16c-.33.35-.77-.17-1.18,0v-.13l-.17.16c-.09-.1,0-.11,0-.18s-.07.19-.28.24,0-.1.09-.15a1,1,0,0,1-.63.08s0,0,0,0-.3,0-.45,0,0-.07.08-.08-.13,0-.17,0l0-.11c-.11,0-.32.08-.35-.06,0,0,0,.15-.08.15-.06-.2-.26.08-.42,0,0,0,.13,0,.1-.06s-.15,0-.21.11l0-.08-.36.11c-.06-.2-.34,0-.32-.12s.11.09-.05.11-.15,0-.14-.09H112l.07-.13a.32.32,0,0,0-.17.26c-.09-.08-.22,0-.26-.13l0,0c-.26.06-.43-.35-.63-.13,0,0,0-.05,0-.05h-.16l0-.09-.26.15V50a4,4,0,0,0-.67,0l0,0c-.24.1-.24-.06-.42,0l0,0h-.16l0-.07c-.12.14-.35-.18-.27-.06s-.19.14-.21.22c-.17,0,0-.09-.15-.14s-.15.1-.32,0v-.06a2.46,2.46,0,0,1-.24.07l0,0c-.18.13-.23-.2-.37.09-.08,0-.22,0-.22-.14-.23.08-.4.12-.63.18,0-.22,0,0-.19-.11v.11c-.32,0-.69-.26-1-.22v-.11l-.07.12a10.82,10.82,0,0,0-1.18-.09c-.1.06-.25.2-.41.15h0a1.77,1.77,0,0,1-.86,0s0-.08,0-.11-.18,0-.24,0l.07.09c-.08.11-.2,0-.25-.08l-.13.12,0-.05,0,.06-.07-.15s-.21.07-.27.22c0,0-.14-.09,0-.12l-.5,0L102,50a.15.15,0,0,1-.21.14c.1-.1,0-.17,0-.25s.06.1,0,.16-.26.12-.31.07l0,0c-.11,0-.17-.15-.29-.14s-.18,0-.15.21c-.15,0-.06-.14-.11-.16s-.28,0-.31-.06c-.08.29-.41-.1-.44.15l-.12-.14c0,.07,0,.22-.12.25s-.08-.19-.11-.25l-.06.24c-.55-.24-1.25,0-1.84-.23a3.13,3.13,0,0,1-.89.18l0,0-.3,0,.22.1c-.06,0-.11.08-.18.08a2.13,2.13,0,0,0-1.18,0c-.25.29-.18-.24-.42,0,0,0,0-.07,0-.1a3,3,0,0,0-.67.34c0-.28-.18,0-.16-.13l0,.11c-.06-.06-.2-.08-.19-.16l-.11.14V50.2c-.16,0-.49.1-.59-.13A3.25,3.25,0,0,1,92,50.2c-.06.1-.21.11-.32.12l-.12-.14c-.11,0-.22.22-.33.14s0,0,0,0-.22,0-.33.09-.24-.08-.21-.21c0,.23-.26,0-.26,0l-1-.08-2.31-.16c-1.75-.09-3.57-.29-4.45.06-.08.1-.24.13-.22.27s-.11-.19-.17-.09c.13.11-.13.27,0,.44h-.1c0,.07.15,0,.09.08l.09-.19a.25.25,0,0,1,.1.18c.09-.06.21-.32.34-.16h0c.14,0,0,.16.07.2h0l.09.13c-.07-.09-.26,0-.18,0s0-.06.1-.05,0,.12,0,.18L83,51c0,.09-.09,0-.06.08l.2,0c0,.25.22-.07.24.18-.14,0,0,.08,0,.15l.32.06s-.1,0,0,0,.11,0,.14,0,.24.05.2.21c.19.15.13-.19.31,0,0,.1-.16,0-.09.11h.21s-.07.16-.14.12c.54.22.78.79,1.34.73.06.13-.07.07-.13.14.41-.11.52.32.86.34V53c.44.36,1,.2,1.53.36l-.06-.07c.08-.09.2-.09.28-.13s-.07.2.08.17c0,0-.09-.08-.07-.12a7.83,7.83,0,0,0,2.13.36c1-.07,2.06.1,3,0-.14,0-.09-.23,0-.18.32.4.52-.09.84.18.56-.15,1.07.17,1.57-.16v.11c.08.05.1,0,.18,0v0c.19,0,.42-.1.53-.05v-.13c.11,0,.06.1.18,0v.06l.13-.13c0,.23.32,0,.41.1a1.49,1.49,0,0,1,.64-.12c0,.11.31.1.49.15a7.7,7.7,0,0,1,1.23-.08v-.15h.11s0,.05,0,.07.25-.06.34,0c-.06-.13-.08,0-.14,0s0-.21.11-.14v0L99.9,53c0,.11.09.17.11.28.36,0,.6-.25,1-.19,0,.13.27,0,.19.19.22-.09,0-.18.07-.34.06,0,.12-.06.13,0s.06.14,0,.16l.14,0s0,.05,0,.06c.3-.13.55.14.83,0,0-.08-.11,0-.09-.1.28-.17.25.14.51,0l-.06.11c.09-.08.13-.17.27-.09s-.12.11-.19.18c.1,0,.34,0,.26-.15.12-.05.16.07.22.11s-.1-.09,0-.15a1.87,1.87,0,0,0,.59.08.33.33,0,0,1,0,.1C103.94,53.13,103.93,53.43,104.14,53.39Z" transform="translate(0 -0.55)"/><path class="cls-1" d="M114.33,52.68l-.08,0a.11.11,0,0,1,0,.1Z" transform="translate(0 -0.55)"/><path class="cls-1" d="M110.67,52.61l0,0S110.67,52.63,110.67,52.61Z" transform="translate(0 -0.55)"/><path class="cls-1" d="M109.78,52.85c.06,0,0-.07,0-.1A.13.13,0,0,0,109.78,52.85Z" transform="translate(0 -0.55)"/><path class="cls-1" d="M116.4,52.29a.08.08,0,0,0,0,.06A.08.08,0,0,0,116.4,52.29Z" transform="translate(0 -0.55)"/><path class="cls-1" d="M122.14,52.27l0,0Z" transform="translate(0 -0.55)"/><path class="cls-1" d="M121.81,52.07l-.06,0A.08.08,0,0,0,121.81,52.07Z" transform="translate(0 -0.55)"/><path class="cls-1" d="M115,52.37a.07.07,0,0,0-.06,0A.07.07,0,0,0,115,52.37Z" transform="translate(0 -0.55)"/><path class="cls-1" d="M121.68,52.12l-.08,0v0Z" transform="translate(0 -0.55)"/><path class="cls-1" d="M122.24,52.28h-.1A.08.08,0,0,0,122.24,52.28Z" transform="translate(0 -0.55)"/><path class="cls-1" d="M118.5,52.08h0C118.43,52.14,118.47,52.11,118.5,52.08Z" transform="translate(0 -0.55)"/><polygon class="cls-1" points="121.34 51.8 121.33 51.79 121.31 51.83 121.34 51.8"/><path class="cls-1" d="M122.58,52.32l0,0h0Z" transform="translate(0 -0.55)"/><path class="cls-1" d="M119.71,52.26a.36.36,0,0,0,0-.11S119.69,52.17,119.71,52.26Z" transform="translate(0 -0.55)"/><path class="cls-2" d="M14.51,45.89H5.32L3.51,50.14H0L8.26,31.78h3.36l8.29,18.36H16.34Zm-1.13-2.67-3.46-8-3.44,8Z" transform="translate(0 -0.55)"/><path class="cls-2" d="M34.26,50.14l-3.75-5.38a6.24,6.24,0,0,1-.71,0H25.65v5.35H22.24V31.78H29.8a10.12,10.12,0,0,1,4.16.79,6,6,0,0,1,2.71,2.25,6.3,6.3,0,0,1,.94,3.49,6.19,6.19,0,0,1-1,3.57,6,6,0,0,1-2.89,2.23l4.22,6ZM33,35.61a5.22,5.22,0,0,0-3.38-1h-4V42h4A5.22,5.22,0,0,0,33,41a3.35,3.35,0,0,0,1.16-2.72A3.29,3.29,0,0,0,33,35.61Z" transform="translate(0 -0.55)"/><path class="cls-2" d="M40.78,49.71a6.42,6.42,0,0,1-2.43-2l1.94-2.33a4.42,4.42,0,0,0,3.65,2.1c1.9,0,2.86-1.13,2.86-3.39V34.64H40.26V31.78h10V44a6.68,6.68,0,0,1-1.58,4.84A6.19,6.19,0,0,1,44,50.4,7.52,7.52,0,0,1,40.78,49.71Z" transform="translate(0 -0.55)"/><path class="cls-2" d="M66.49,45.89H57.31L55.5,50.14H52l8.26-18.36h3.36L71.9,50.14H68.33Zm-1.12-2.67-3.47-8-3.43,8Z" transform="translate(0 -0.55)"/><path class="cls-2" d="M29.68,54.21a.53.53,0,0,1-.16-.39.52.52,0,0,1,.16-.38.58.58,0,0,1,.8,0,.49.49,0,0,1,.16.37.54.54,0,0,1-.16.4.56.56,0,0,1-.8,0Zm0,1.41h.77v5.71h-.77Z" transform="translate(0 -0.55)"/><path class="cls-2" d="M37.23,56.2A2.47,2.47,0,0,1,37.86,58v3.31h-.77V58.1a1.92,1.92,0,0,0-.44-1.36,1.68,1.68,0,0,0-1.27-.47,2,2,0,0,0-1.46.55,2.08,2.08,0,0,0-.54,1.52v3h-.77V55.62h.74v1.06a2.13,2.13,0,0,1,.87-.81,2.83,2.83,0,0,1,1.3-.29A2.38,2.38,0,0,1,37.23,56.2Z" transform="translate(0 -0.55)"/><path class="cls-2" d="M43,61a1.31,1.31,0,0,1-.53.3,2.19,2.19,0,0,1-.67.11A1.67,1.67,0,0,1,40.52,61a1.65,1.65,0,0,1-.43-1.22V56.27h-1v-.65h1V54.38h.77v1.24h1.73v.65H40.86v3.41a1.09,1.09,0,0,0,.25.78,1,1,0,0,0,.73.26,1.49,1.49,0,0,0,.47-.07,1.11,1.11,0,0,0,.38-.22Z" transform="translate(0 -0.55)"/><path class="cls-2" d="M49.13,58.72H44.35A2,2,0,0,0,45,60.15a2.24,2.24,0,0,0,1.56.55,2.45,2.45,0,0,0,1-.19,2.09,2.09,0,0,0,.77-.56l.43.5a2.38,2.38,0,0,1-1,.7,3.2,3.2,0,0,1-1.25.24A3.16,3.16,0,0,1,45,61,2.69,2.69,0,0,1,44,60a3,3,0,0,1-.38-1.5A3,3,0,0,1,44,57a2.59,2.59,0,0,1,1-1,2.77,2.77,0,0,1,1.43-.37,2.71,2.71,0,0,1,1.42.37,2.62,2.62,0,0,1,1,1,3.09,3.09,0,0,1,.36,1.51ZM45,56.77a2,2,0,0,0-.64,1.37h4a2.07,2.07,0,0,0-.63-1.37,2,2,0,0,0-1.4-.53A1.93,1.93,0,0,0,45,56.77Z" transform="translate(0 -0.55)"/><path class="cls-2" d="M52.26,55.87a2.81,2.81,0,0,1,1.33-.29v.75H53.4a1.82,1.82,0,0,0-1.41.55,2.21,2.21,0,0,0-.51,1.55v2.91h-.77V55.62h.74v1.12A1.9,1.9,0,0,1,52.26,55.87Z" transform="translate(0 -0.55)"/><path class="cls-2" d="M55,54.21a.56.56,0,0,1,.8-.77.49.49,0,0,1,.16.37.54.54,0,0,1-.16.4.56.56,0,0,1-.8,0Zm0,1.41h.77v5.71H55Z" transform="translate(0 -0.55)"/><path class="cls-2" d="M62.87,58.72H58.09a2,2,0,0,0,.69,1.43,2.24,2.24,0,0,0,1.56.55,2.45,2.45,0,0,0,1-.19,2.09,2.09,0,0,0,.77-.56l.43.5a2.38,2.38,0,0,1-1,.7,3.2,3.2,0,0,1-1.25.24A3.16,3.16,0,0,1,58.76,61a2.76,2.76,0,0,1-1.06-1,3,3,0,0,1-.38-1.5,3,3,0,0,1,.37-1.5,2.59,2.59,0,0,1,1-1,2.77,2.77,0,0,1,1.43-.37,2.71,2.71,0,0,1,1.42.37,2.62,2.62,0,0,1,1,1,3.09,3.09,0,0,1,.36,1.51Zm-4.14-1.95a2.08,2.08,0,0,0-.64,1.37h4a2.07,2.07,0,0,0-.63-1.37,2,2,0,0,0-1.4-.53A1.93,1.93,0,0,0,58.73,56.77Z" transform="translate(0 -0.55)"/><path class="cls-2" d="M66,55.87a2.81,2.81,0,0,1,1.33-.29v.75h-.18a1.82,1.82,0,0,0-1.42.55,2.21,2.21,0,0,0-.51,1.55v2.91h-.77V55.62h.74v1.12A1.9,1.9,0,0,1,66,55.87Z" transform="translate(0 -0.55)"/><path class="cls-2" d="M69,61.19a3,3,0,0,1-1-.51l.35-.61a2.72,2.72,0,0,0,.9.46,3.56,3.56,0,0,0,1.13.18,2.17,2.17,0,0,0,1.15-.24.78.78,0,0,0,.38-.69.61.61,0,0,0-.21-.49,1.35,1.35,0,0,0-.52-.27,5,5,0,0,0-.84-.18,10.1,10.1,0,0,1-1.11-.27,1.6,1.6,0,0,1-.73-.46,1.33,1.33,0,0,1-.29-.9A1.41,1.41,0,0,1,68.77,56a2.64,2.64,0,0,1,1.66-.46,4.24,4.24,0,0,1,1.11.15,2.83,2.83,0,0,1,.91.38l-.33.62a2.86,2.86,0,0,0-1.69-.49,2,2,0,0,0-1.11.26.8.8,0,0,0-.37.69.69.69,0,0,0,.21.52,1.24,1.24,0,0,0,.52.28,5.93,5.93,0,0,0,.87.19,9.84,9.84,0,0,1,1.1.27,1.52,1.52,0,0,1,.7.44,1.21,1.21,0,0,1,.3.87A1.39,1.39,0,0,1,72,61a3,3,0,0,1-1.73.44A4.56,4.56,0,0,1,69,61.19Z" transform="translate(0 -0.55)"/></svg>