<?xml version="1.0" encoding="utf-8"?>
<!-- Generator: Adobe Illustrator 24.2.3, SVG Export Plug-In . SVG Version: 6.00 Build 0)  -->
<svg version="1.1" id="Layer_1" xmlns="http://www.w3.org/2000/svg" xmlns:xlink="http://www.w3.org/1999/xlink" x="0px" y="0px"
	 viewBox="0 0 130.3 80" style="enable-background:new 0 0 130.3 80;" xml:space="preserve">
<style type="text/css">
	.st0{fill:#F6921E;}
	.st1{fill:#FFFFFF;}
</style>
<path class="st0" d="M88.7,69.1L88.7,69.1C88.8,69.1,88.7,69.1,88.7,69.1z"/>
<path class="st0" d="M88.4,62.8L88.4,62.8C88.4,62.9,88.4,62.8,88.4,62.8z"/>
<path class="st0" d="M89.1,72.9L89.1,72.9c0,0.1,0,0.1,0,0.3V72.9z"/>
<path class="st0" d="M87.6,49.3v0.1C87.6,49.5,87.7,49.3,87.6,49.3z"/>
<path class="st0" d="M88,57.3C88,57.3,88,57.2,88,57.3C88,57.2,88,57.3,88,57.3z"/>
<path class="st0" d="M88.1,75l0.1-0.1C88.1,74.9,88.1,75,88.1,75z"/>
<path class="st0" d="M89,78.8L89,78.8z"/>
<path class="st0" d="M89.1,77.2C89.1,77.2,89.1,77.2,89.1,77.2C89.1,77.1,89.1,77.2,89.1,77.2z"/>
<path class="st0" d="M89.1,77.1L89.1,77.1C89.1,77.1,89.1,77.1,89.1,77.1z"/>
<path class="st0" d="M83.2,0.6c0-0.1-0.1-0.2-0.2-0.3L83.2,0.6z"/>
<path class="st0" d="M86.7,37.1L86.7,37.1C86.7,37.1,86.7,37.1,86.7,37.1z"/>
<path class="st0" d="M82.4,0.4L82.4,0.4C82.4,0.4,82.4,0.4,82.4,0.4z"/>
<path class="st0" d="M87.6,73c-0.1-0.1,0-0.3-0.1-0.3S87.4,73,87.6,73z"/>
<path class="st0" d="M83.3,34.9L83.3,34.9C83.3,34.8,83.2,34.8,83.3,34.9z"/>
<path class="st0" d="M82.4,0.4L82.4,0.4L82.4,0.4C82.4,0.5,82.4,0.5,82.4,0.4z"/>
<path class="st0" d="M85.4,24.5L85.4,24.5L85.4,24.5z"/>
<path class="st0" d="M85.4,23.8v0.1C85.4,23.8,85.4,23.8,85.4,23.8z"/>
<path class="st0" d="M83,0.3V0.1C83,0.2,83,0.2,83,0.3z"/>
<path class="st0" d="M84.6,16.6C84.6,16.6,84.6,16.6,84.6,16.6C84.6,16.6,84.6,16.6,84.6,16.6z"/>
<path class="st0" d="M88,57.8C88,57.8,88,57.8,88,57.8C88,57.9,88,57.9,88,57.8z"/>
<polygon class="st0" points="85.3,53 85.3,53 85.3,53 "/>
<path class="st0" d="M85.5,53.3c0-0.1,0-0.2-0.1-0.3C85.4,53.1,85.4,53.2,85.5,53.3z"/>
<path class="st0" d="M85.3,52.5L85.3,52.5L85.3,52.5z"/>
<polygon class="st0" points="85.6,57.8 85.6,57.8 85.6,57.8 "/>
<path class="st0" d="M85.5,56.8C85.5,56.7,85.5,56.7,85.5,56.8C85.5,56.7,85.5,56.7,85.5,56.8z"/>
<polygon class="st0" points="84.9,49.8 84.9,49.8 84.9,49.8 "/>
<path class="st0" d="M83.4,39.8c0.1,1,0.4,2.3,0.4,3.3c0.2,0.3,0.3,0.5,0.3,0.8l-0.2,0l0.1,0.3c-0.1,0.1-0.1-0.2-0.1,0l0.2,0.1
	c-0.1,0,0,0.7-0.2,0.2l0.1,1c0,0.2,0.2,0.1,0.2,0.4c-0.1,0-0.1-0.1-0.1-0.1c-0.1,0.8,0.5,0.8,0.5,1.5v-0.1c0.1,0.1,0.1,0.3,0.1,0.3
	c0.2-0.1-0.1-0.1,0-0.3c0.2,0,0.1,0.3,0.3,0.2c-0.1,0.2,0.1,0.3,0.1,0.4s0,0.6-0.1,0.8c0.1,0.1,0.3,0.2,0.3,0.5
	c-0.1,0.2-0.2,0-0.2,0.2H85c0,0.2,0,0.2-0.1,0.2c0,0.2,0.2,0.2,0.1,0.5L84.9,50c0,0.2,0.1,0.4,0.1,0.6c-0.1,0-0.1-0.1-0.1-0.2
	c-0.2,0.2,0.1,0.3,0.1,0.3s0.1-0.2,0.2-0.1s0.2,0.3,0,0.4l-0.1-0.2c0.1,0.3,0.2,0.2,0.1,0.5c0,0,0,0-0.1,0c0.2,0.2,0.1,0.5,0.1,0.8
	v0c0,0.1,0.2,0.2,0.2,0.2c0-0.2,0.1-0.1,0.2-0.2c-0.2,0.2,0.2,0.3,0.2,0.8c-0.1,0-0.1-0.1-0.1-0.2c0,0,0,0,0-0.1
	c-0.2-0.1-0.4-0.1-0.5-0.3c0,0.2,0.1,0.3,0,0.3h0.2c0,0.1,0,0.2,0,0.2c0.1,0,0.2-0.2,0.3,0s-0.2,0.1-0.1,0.2
	c0.1,0.3,0.2,0.1,0.2,0.4c0,0,0-0.1,0-0.1c-0.1,0.2,0.1,0.5-0.1,0.6c0,0-0.1,0-0.1-0.1l0,0c-0.2-0.2,0.1,0.2-0.1,0.1
	c0.1,0,0.1,0.3,0.1,0.4l0.1-0.1c0.4,0.4-0.3,0-0.2,0.5c0.1,0.3,0-0.1,0.1,0.1s-0.1,0.3,0,0.6c0,0.1-0.1,0.3-0.2,0.3
	c0.1,0.2,0,0.5,0.1,0.6c0.1-0.3-0.2-0.3,0-0.7l0.2,0.1c0,0.2,0.1,0.5,0.1,0.7c0,0,0.1,0,0.1,0c0.1,0.3,0.2,0.4,0.2,0.8
	c-0.1,0.1-0.1-0.1-0.1-0.3c-0.1,0.2,0,0.2,0,0.6c-0.1,0,0-0.2-0.1-0.3l0.1,0.4l0,0c0.2,0,0,0.3,0.1,0.5c0,0.5,0.3,0.6,0.5,0.9
	c0,0.1-0.1,0.1-0.1,0.1s0-0.1,0-0.2c0,0.2-0.2,0.4-0.2,0.3c0.1,0.3,0.1-0.1,0.2,0.1v0.4c0.1-0.1,0.1-0.2,0.2,0c0,0.2,0,0.3,0,0.5
	c0,0-0.1,0.1-0.2-0.1c0,0.1,0,0.3,0.1,0.3c0.1-0.3,0.1,0.4,0.3,0.2l-0.1,0.3c0-0.1-0.1-0.1-0.1-0.2c-0.1,0.1,0.1,0.2,0.1,0.3
	s0,0.3-0.1,0.3s0,0.3,0,0.3s0.1,0,0.2,0v0.4c-0.1,0-0.3,0.1-0.3,0c0.1,0.1,0.2,0,0.3,0.3c-0.2-0.1-0.1,0.3-0.3,0.1
	c-0.1,0.2-0.1,0.5,0,0.7c0.1,0.1,0-0.2,0.2-0.2c0.1,0.6,0.5,0.6,0.5,1v-0.1c0,0.1,0.1,0.3,0.2,0.4c-0.2-0.1-0.4,0.3-0.3,0.8
	c0.1,0,0.1-0.3,0.3-0.2l0.1,0.4c0,0,0,0-0.1,0c0.1,0.2-0.2,0.5,0,0.6l-0.2,0.3l0.1-0.1c0.1,0,0.1,0.3,0.2,0.4c0.1,0.2,0.1,0.4,0,0.6
	c0.1-0.1,0.2-0.2,0.2,0c-0.3,0,0,0.5-0.2,0.5c0,0.1,0,0.3,0.1,0.3H87c0.2,0,0.2,0.3,0.3,0.6c-0.3,0,0.1,0.3-0.2,0.4
	c0.2,0,0.1,0.5,0.3,0.5c0,0.2-0.2,0.2-0.2,0.3l0.1,0.1c-0.1,0.1,0,0.5-0.1,0.7l0.2,0.2l-0.1,0.1c0,0,0.1,0.2,0.2,0.1V71
	c0.2,0,0.1,0.2,0.2,0.4c0,0.1-0.1,0.1-0.1,0c0,0.1-0.1,0.1-0.2,0.2s0.4,0.4,0.5,0c0.1,0,0.2,0.1,0.1,0.2l-0.2,0.1l0.2,0.1
	c0,0.2-0.1,0.3-0.1,0.4c0-0.1-0.4-0.3-0.3,0.1c0-0.1-0.1-0.3-0.2-0.4c0,0.1,0,0.1-0.1,0c0.1,0.3,0.1,0.1,0.2,0.4
	c-0.2,0-0.2,0.1-0.2,0.3l0.1-0.2l0,0c0,0,0-0.1,0.1-0.1s0.2,0.3,0.2,0.4c0.2-0.3,0.3,0.5,0.4,0.3c0,0,0.1,0.2,0,0.3
	c-0.2-0.2-0.2,0.2-0.3,0.2c0.1,0.1,0.1-0.2,0.2-0.1c0,0.1,0,0.2-0.1,0.3v-0.1V74c0.1,0,0.1-0.2,0.2,0s0,0.3,0,0.3s-0.3,0-0.3-0.2
	c0,0.2,0.1,0.6,0.2,0.4v0.2c0.1-0.1,0.1-0.4,0.2-0.1l0,0l0.2,0.2l-0.1,0.1c0,0,0.1,0,0.1,0.1s0,0.1-0.1,0.1c0,0.3,0.1,0.2,0.2,0.2
	s0,0.2-0.1,0.2c0,0.2,0,0.5,0,0.7c0.1,0.3,0-0.1,0.2,0.1c-0.2,0.3,0,0.9,0.1,1.3c0.2-0.2,0,0.1,0.3,0.2c-0.1-0.1-0.1,0.4-0.3,0.1
	l0.1,0.2c-0.1,0.2-0.2-0.4-0.3-0.1c0,0.2,0.3,0.4,0.3,0.7c-0.2-0.1,0.1,0.2-0.1,0.2s-0.1-0.1-0.1-0.2v0.1c0,0.6,0.2,0.1,0.4,0.4
	s-0.1,0.3-0.2,0.3c0,0.1,0,0.2,0.1,0.3c-0.1-0.2,0-0.4,0.2-0.3c-0.2,0.2,0.1,0.5,0.2,0.6c0.1-0.5,0-0.3,0.1-0.8
	c-0.1,0-0.2,0-0.2-0.3c0.1,0.2,0.1,0,0.1-0.1S89,78.6,89,78.5s0.3,0.1,0.3-0.2H89c0-0.1,0.2,0,0.1-0.2c0.2,0.1,0.2-0.1,0.3,0.2
	c0.2-0.4-0.2-0.6-0.3-0.8c0,0,0,0,0.1,0S89,77.4,89,77.3s0.1,0.1,0.2,0.1L89,77.1l0,0c0-0.1-0.1-0.2,0-0.2c0.1,0.1,0.2,0.1,0.2,0.2
	L89,76.8c0.1,0,0.1-0.3,0.2-0.1l-0.1-0.5l0.2-0.1c-0.1-0.1-0.1-0.1-0.1,0c0-0.2-0.4-0.7-0.1-0.7c-0.1-0.3-0.3-0.7-0.3-1
	c0.2,0.3,0.1-0.4,0.2-0.1c0-0.2-0.2-0.2-0.2-0.4s0.2-0.1,0.3,0l-0.1-0.2l0,0l-0.1,0c0.1-0.2,0.2-0.1,0.2-0.3l-0.2,0l0.1-0.2
	c-0.1,0.1-0.1,0-0.1-0.2l0,0v-0.2c0.1,0.2,0-0.2,0.1-0.1c0-0.1,0-0.3-0.1-0.4l-0.1,0.1c-0.1-0.3,0.2,0,0.1-0.3h-0.1
	c0.1-0.4-0.2-0.7-0.1-1c0,0.2,0.2,0.1,0.1,0.1c0-0.3-0.1-0.6-0.3-0.9c0.2-0.1,0.2-0.3,0.2-0.4c0-0.2-0.1-0.2-0.2-0.3
	c0-0.2-0.1-0.6,0-0.6c-0.1,0,0-0.2-0.1-0.3l0,0h-0.1c0.2-0.4-0.2-0.6,0-0.9v0.1l-0.1-0.1c0,0,0.1,0,0.2,0l-0.1-0.7l-0.1,0.1
	c0-0.1-0.1-0.2-0.1-0.4c0.2,0.3,0-0.2,0.1-0.3l0.1,0.2c0-0.2,0-0.2-0.2-0.2c-0.1-0.3,0.2-0.2,0-0.4v0.2c-0.1,0.1-0.2-0.1-0.2-0.2
	s0-0.1,0.1,0c-0.1-0.2,0-0.5-0.1-0.6s0.1-0.1,0.2,0c-0.2-0.4,0-0.2-0.2-0.6h0.1l-0.1-0.1l0.1-0.2l-0.1,0.1c0-0.1-0.1-0.3-0.1-0.4
	l0.1,0.1c-0.1-0.4,0.1-0.5-0.1-0.9c0,0,0.1,0,0.1,0.1c-0.2-0.3,0.1-0.3-0.1-0.6c0,0,0.1,0,0.1,0l-0.1-0.2h0.1l-0.2-0.1l0.1-0.1
	l-0.1-0.1c0.2-0.2,0-0.4,0.2-0.7l-0.2,0.1c-0.4-0.6,0.1-1.4-0.2-2.1h0.1L88,59.3c0.1-0.2,0.1,0.1,0.2,0c-0.1-0.3-0.2-0.1-0.3-0.5
	c0.1-0.2,0.1,0.1,0.2,0.2C88,58.6,88,58.3,88,57.9l0,0c-0.1-0.3-0.1-0.5-0.1-0.8c0.1,0,0.1,0.1,0.1,0.1c0-0.1,0-0.2,0-0.3l0.1,0.1
	c0-0.2-0.1-0.6,0-0.6c0,0-0.2,0-0.2-0.2c0.2-0.1-0.1-0.5,0-0.7c0.1,0,0.1,0.2,0.1,0.2s-0.1-0.3-0.1-0.4H88l-0.2-0.6
	c0.2-0.1-0.1-0.6,0.1-0.6c0-0.2-0.1,0.2-0.1-0.1c0.1-0.1-0.1-0.3,0.1-0.3l0,0v-0.2l0.1,0.1c0-0.1-0.1-0.3-0.3-0.3
	c0.1-0.2,0-0.4,0.1-0.5v0.1c-0.1-0.5,0.3-0.8,0-1.1l0,0v-0.3l0.1,0.1l-0.2-0.5h0.1c0-0.3-0.1-0.8-0.1-1.2V50c-0.1-0.4,0-0.4-0.1-0.7
	l0,0v-0.3l0.1,0.1c-0.2-0.2,0.1-0.6,0-0.5c-0.1-0.1-0.2-0.3-0.2-0.3c0-0.3,0.1-0.1,0.1-0.3s-0.1-0.3-0.1-0.6h0.1
	c0-0.2-0.1-0.2-0.1-0.4v0.1c-0.2-0.3,0.2-0.4-0.2-0.7c0-0.1,0-0.4,0.1-0.4c-0.1-0.4-0.2-0.7-0.3-1.1c0.2-0.1,0-0.1,0.1-0.3h-0.1
	c-0.1-0.6,0.2-1.3,0.1-1.9h0.1l-0.1,0c0-0.7,0-1.6-0.1-2.1c-0.1-0.2-0.2-0.5-0.2-0.7l0,0c-0.1-0.5-0.2-1-0.2-1.5c0,0,0.1,0,0.1,0
	c-0.1-0.1,0-0.3,0-0.4l-0.1,0.1c-0.1-0.1-0.1-0.3,0-0.5l-0.2-0.2l0,0h-0.1l0.1-0.1c0-0.1-0.1-0.4-0.3-0.5c0,0,0.1-0.3,0.1-0.1v-0.9
	v0.1c-0.1,0-0.2-0.2-0.2-0.4c0.1,0.2,0.2,0,0.2-0.1c-0.1-0.1-0.1,0.1-0.2,0.1c-0.1-0.2-0.1-0.4-0.1-0.5v0.1
	c-0.1-0.2,0.1-0.3,0.1-0.5s0-0.3-0.2-0.3c-0.1-0.3,0.1-0.1,0.1-0.2c-0.1-0.2-0.1-0.4,0-0.5c-0.3-0.1,0-0.7-0.2-0.7l0.1-0.2
	c-0.1,0-0.2-0.1-0.3-0.2c0-0.2,0.2-0.2,0.2-0.2L86,31.8c0.2-1-0.2-2.2-0.1-3.3c-0.1-0.5-0.3-1-0.3-1.6V27v-0.6l-0.1,0.4
	c0-0.1-0.1-0.2-0.1-0.3c0.1-0.7,0-1.4-0.1-2.1c-0.3-0.4,0.2-0.3,0-0.8c0,0,0.1,0,0.1,0.1c-0.1-0.4-0.3-0.8-0.5-1.2
	c0.3,0,0-0.3,0.1-0.3H85c0.1-0.1,0.1-0.4,0.1-0.4L85,21.7h0.1c0-0.3-0.2-0.9,0-1c-0.2-0.9-0.3-1.8-0.3-2.7c-0.1-0.2-0.2-0.4-0.2-0.6
	l0.1-0.2c-0.1-0.2-0.3-0.4-0.2-0.6l0,0c0-0.2,0-0.4-0.1-0.6c-0.1-0.2,0-0.5,0.2-0.4c-0.2,0,0-0.5,0-0.5l-0.1-1.9
	c-0.1-1.1-0.1-2.7-0.2-4.3S84,5.5,83.8,4.1c-0.1-1.2-0.3-2.3-0.7-3.5C83,0.5,83,0.2,82.8,0.3c0-0.2,0.2-0.3,0-0.3
	c-0.1,0.3-0.3-0.1-0.4,0.2V0c-0.1,0,0.1,0.2,0,0.2l0.2,0.1c0,0.1-0.1,0.2-0.1,0.3c0.1,0.1,0.4,0.2,0.2,0.5V1c0,0.3-0.1,0.2-0.2,0.2
	V1.1l-0.1,0.2c0.1-0.2-0.1-0.4-0.1-0.3c0,0.3,0-0.1,0.1,0.1s-0.1,0.1-0.2,0.1v0.3c-0.1,0,0-0.2-0.1-0.1l0.1,0.3
	c-0.2,0.1,0.1,0.3-0.1,0.5c-0.1-0.2-0.1,0-0.2,0v0.6C82,3,81.9,2.8,82,2.9S82,3,82,3.1s0,0.4-0.2,0.4C81.8,3.9,82.1,3.7,82,4
	c-0.1,0,0-0.3-0.1-0.1v0.4c0,0-0.2-0.1-0.1-0.2c-0.1,1-0.6,1.6-0.4,2.5c-0.1,0.1-0.1-0.1-0.2-0.2c0.2,0.7-0.2,1-0.2,1.5h0.1
	c-0.1,0.9-0.1,1.8-0.1,2.7l0.1-0.1c0.1,0.1,0.1,0.3,0.2,0.5c0,0-0.2-0.1-0.2,0.2c0-0.1,0.1-0.2,0.1-0.1c-0.1,0.6-0.1,1.1-0.1,1.7
	c0,0.7,0.1,1.4,0.1,2.1c0.2,1.7,0.2,3.6,0.4,5.3c0-0.3,0.2-0.2,0.2,0c-0.3,0.6,0.2,0.9-0.1,1.5c0.2,1,0,1.9,0.4,2.8l-0.1,0
	c0,0.1,0,0.2,0.1,0.3l0,0c0,0.3,0.2,0.7,0.1,0.9h0.1c0,0.2-0.1,0.1,0,0.3h-0.1l0.2,0.2c-0.2,0,0,0.6,0,0.8c0.1,0.4,0.2,0.8,0.2,1.1
	c-0.1,0.1-0.1,0.6-0.1,0.9c0.1,0.7,0.2,1.5,0.3,2.2H83v0.2c0,0,0,0-0.1,0c-0.2,0.2,0.1,0.5,0,0.6c0.1-0.1,0-0.1,0-0.2s0.2,0,0.2,0.2
	l0,0l0.1,0.1c-0.1,0-0.2,0.2-0.3,0.2c0.2,0.6,0.3,1.2,0.4,1.8c-0.1-0.1,0.1,0.5-0.2,0.4c0.1,0.4,0.2-0.1,0.3,0.1
	c0,0.1,0.1,0.2,0,0.3s-0.1,0.1-0.2,0v0.3c0,0,0,0-0.1,0c0.2,0.5-0.1,1,0.1,1.5c0.1,0,0-0.2,0.1-0.2c0.2,0.5-0.1,0.5,0,0.9l-0.1-0.1
	c0.1,0.1,0.2,0.2,0.1,0.5c-0.1,0.1-0.1-0.2-0.2-0.3c0,0.2,0.1,0.6,0.2,0.5c0.1,0.2,0,0.3-0.1,0.4s0.1-0.2,0.1-0.1c0,0.3,0,0.7,0,1
	c0,0-0.1,0-0.1,0C83.7,39.5,83.4,39.5,83.4,39.8z"/>
<path class="st0" d="M85.6,58v-0.1c0,0-0.1,0-0.1-0.1L85.6,58z"/>
<path class="st0" d="M85.2,51.5L85.2,51.5C85.2,51.4,85.1,51.5,85.2,51.5z"/>
<path class="st0" d="M84.8,49.8C84.8,50,84.9,49.8,84.8,49.8C84.9,49.8,84.8,49.8,84.8,49.8z"/>
<path class="st0" d="M86.3,61.6C86.3,61.6,86.3,61.7,86.3,61.6L86.3,61.6z"/>
<path class="st0" d="M87.4,71.9L87.4,71.9L87.4,71.9z"/>
<path class="st0" d="M87.5,71.3c0,0,0-0.1,0-0.1C87.5,71.2,87.5,71.3,87.5,71.3z"/>
<path class="st0" d="M86,59.2C86,59.1,86,59.1,86,59.2C86,59.1,86,59.2,86,59.2z"/>
<path class="st0" d="M87.5,71.1v-0.2l0,0V71.1z"/>
<path class="st0" d="M87.4,72.1c0-0.1,0-0.1,0-0.2C87.4,72,87.4,72,87.4,72.1z"/>
<path class="st0" d="M86.9,65.4L86.9,65.4C86.8,65.3,86.8,65.3,86.9,65.4z"/>
<polygon class="st0" points="87.2,70.5 87.2,70.5 87.1,70.4 "/>
<path class="st0" d="M87.4,72.7C87.5,72.7,87.5,72.7,87.4,72.7L87.4,72.7L87.4,72.7z"/>
<path class="st0" d="M86.9,67.6c0,0,0.1,0,0.1,0C87,67.5,87,67.5,86.9,67.6z"/>
<path class="st0" d="M80.6,30.3C80.6,30.3,80.6,30.3,80.6,30.3C80.6,30.3,80.6,30.3,80.6,30.3z"/>
<path class="st0" d="M87.1,32H87C87,32,87.1,32,87.1,32z"/>
<path class="st0" d="M76.6,29.6L76.6,29.6h-0.3H76.6z"/>
<path class="st0" d="M100.5,36.9L100.5,36.9L100.5,36.9z"/>
<path class="st0" d="M92.7,33.7h0.1C92.8,33.7,92.7,33.6,92.7,33.7z"/>
<path class="st0" d="M74.6,28.1l0.1,0.1C74.7,28.2,74.7,28.2,74.6,28.1z"/>
<path class="st0" d="M70.4,28.3L70.4,28.3C70.4,28.3,70.4,28.3,70.4,28.3z"/>
<path class="st0" d="M72,28.7h0.1C72.1,28.7,72,28.6,72,28.7z"/>
<path class="st0" d="M72.2,28.6L72.2,28.6C72.1,28.6,72.2,28.6,72.2,28.6z"/>
<path class="st0" d="M127.8,75.5c0,0.1,0,0.2,0.1,0.3L127.8,75.5z"/>
<path class="st0" d="M111.6,43.2L111.6,43.2C111.6,43.2,111.6,43.2,111.6,43.2z"/>
<path class="st0" d="M128.5,75.7L128.5,75.7C128.5,75.8,128.5,75.8,128.5,75.7z"/>
<path class="st0" d="M76.8,28.1c0.1-0.1,0.4,0.1,0.4,0S76.9,28,76.8,28.1z"/>
<path class="st0" d="M115.7,42.3L115.7,42.3L115.7,42.3z"/>
<path class="st0" d="M128.5,75.7L128.5,75.7L128.5,75.7C128.5,75.7,128.5,75.7,128.5,75.7z"/>
<path class="st0" d="M121.1,52.3"/>
<path class="st0" d="M121.4,52.9l-0.1-0.1C121.3,52.9,121.3,52.9,121.4,52.9z"/>
<path class="st0" d="M127.9,75.8V76C127.9,76,127.9,75.9,127.9,75.8z"/>
<path class="st0" d="M125.2,59.3L125.2,59.3C125.1,59.3,125.1,59.3,125.2,59.3z"/>
<path class="st0" d="M92.2,33.5L92.2,33.5C92.1,33.5,92.1,33.5,92.2,33.5z"/>
<polygon class="st0" points="98,33.1 98,33.1 98,33.1 "/>
<path class="st0" d="M97.7,33.1c0.1,0,0.2,0,0.3,0C97.9,33.1,97.8,33.1,97.7,33.1z"/>
<path class="st0" d="M98.6,33.4L98.6,33.4z"/>
<polygon class="st0" points="93.1,31.2 93.1,31.3 93.1,31.2 "/>
<path class="st0" d="M94.2,31.6C94.2,31.6,94.2,31.6,94.2,31.6L94.2,31.6z"/>
<polygon class="st0" points="101.3,34.2 101.3,34.2 101.4,34.2 "/>
<path class="st0" d="M111.4,38.9c-0.5-0.3-1.1-0.6-1.6-0.9l-0.8-0.5c-0.3-0.2-0.5-0.3-0.8-0.4c-0.3,0-0.6-0.1-0.9-0.3l0.1-0.2
	l-0.3-0.1c-0.1-0.1,0.2,0.1,0.1-0.1l-0.2,0.1c0-0.1-0.6-0.4-0.1-0.3l-0.5-0.3l-0.5-0.3c-0.2-0.1-0.2,0.1-0.4-0.1
	c0-0.1,0.1,0,0.1-0.1c-0.7-0.5-1.1,0-1.7-0.5h0.1c-0.1,0-0.4-0.1-0.4-0.1c0,0.3,0.2,0,0.3,0.2c-0.1,0.2-0.3,0-0.4,0.1
	c-0.1-0.1-0.3-0.1-0.4-0.1c-0.2-0.2-0.6-0.3-0.7-0.5c-0.2,0-0.4,0.1-0.6,0s0.1-0.1-0.1-0.3l-0.1,0.1c-0.2-0.1-0.2-0.1-0.1-0.2
	c-0.2-0.1-0.2,0.1-0.5-0.1h0.2c-0.2-0.1-0.4-0.1-0.6-0.2c0-0.1,0.2,0,0.2,0c-0.1-0.2-0.3,0-0.4-0.1s0.2,0.2,0.1,0.2
	c-0.1-0.1-0.4,0-0.4-0.2h0.2c-0.3,0-0.2,0.1-0.5-0.1c0,0,0,0,0,0c-0.3,0-0.5-0.2-0.8-0.3h0.1c-0.2,0-0.2,0-0.3,0
	c0.2,0.1,0.1,0.1,0.1,0.2c-0.2-0.3-0.4,0-0.8-0.2c0-0.1,0.1-0.1,0.2,0c0,0,0,0,0,0c0.2-0.1,0.3-0.3,0.6-0.3c-0.2,0-0.3-0.1-0.3-0.1
	l-0.1,0.2L98,33.1c-0.1,0.1,0.1,0.2-0.1,0.2s-0.1-0.2-0.1-0.2c-0.3-0.1-0.2,0.1-0.5,0c0,0,0.1,0,0.1,0c-0.2-0.2-0.6-0.2-0.6-0.4
	c0,0,0.1-0.1,0.2,0l0,0c0.3-0.1-0.2,0-0.1-0.2c0,0.1-0.3,0-0.5-0.1v0.1c-0.6,0.2,0.1-0.2-0.4-0.4c-0.3,0,0.1,0.1-0.1,0.1
	s-0.2-0.2-0.6-0.3c-0.1-0.1-0.2-0.2-0.2-0.3c-0.2,0-0.5-0.2-0.7-0.1c0.3,0.2,0.4,0,0.7,0.3L95,32c-0.3-0.1-0.5-0.1-0.8-0.2
	c0,0,0,0.1,0,0.1c-0.4-0.1-0.5,0-0.9-0.1c0-0.1,0.2,0,0.3,0c-0.2-0.2-0.2-0.1-0.6-0.2c0-0.1,0.2,0.1,0.3,0L93,31.4l0,0
	c-0.1,0.2-0.3-0.1-0.6-0.1c-0.6-0.2-0.7,0-1.1,0.1c-0.1-0.1-0.1-0.1,0-0.2c0.1,0.1,0.1,0,0.2,0c-0.2,0-0.4-0.3-0.2-0.4
	c-0.3,0,0.1,0.1-0.1,0.1l-0.4-0.1c0,0.1,0.2,0.2-0.1,0.2c-0.2,0-0.3-0.1-0.5-0.1c0,0,0-0.2,0.2-0.1c-0.1-0.1-0.3-0.1-0.4,0
	c0.2,0.1-0.4,0-0.3,0.2l-0.2-0.2c0.1,0,0.1,0,0.2,0c0-0.2-0.2,0-0.3,0S89,30.5,89,30.5c-0.1,0-0.2,0-0.3-0.1c-0.1,0,0,0.1-0.1,0.1
	l-0.4-0.1c0-0.1,0-0.3,0.1-0.3c-0.2,0-0.1,0.2-0.4,0.2c0.2-0.1-0.3-0.2,0-0.3c-0.2-0.2-0.5-0.3-0.7-0.2c-0.2,0.1,0.2,0.1,0.2,0.2
	c-0.6-0.1-0.7,0.2-1.2,0.1l0.1,0.1c-0.2,0-0.3,0-0.4,0.1c0.1-0.1-0.2-0.5-0.7-0.6c0,0.1,0.2,0.2,0.1,0.3l-0.3,0c0,0,0,0,0.1,0
	c-0.3,0-0.5-0.3-0.6-0.1l-0.2-0.3l0.1,0.1c-0.1,0.1-0.4,0-0.4,0c-0.2,0-0.4,0-0.6-0.2c0,0.1,0.2,0.2-0.1,0.2c0-0.3-0.5-0.2-0.5-0.3
	c-0.1,0-0.3-0.1-0.3,0l0.1-0.1c-0.1,0.2-0.4,0.1-0.7,0.1c0.1-0.3-0.3,0-0.4-0.3c-0.1,0.2-0.5,0-0.6,0.2c-0.2,0-0.2-0.2-0.2-0.3
	l-0.1,0.1c-0.1-0.1-0.5-0.2-0.7-0.3l-0.2,0.1l-0.1-0.1c0,0-0.2,0-0.1,0.1H79c0,0.2-0.2,0-0.4,0.1c0,0,0-0.1,0-0.1
	c-0.1,0-0.1-0.1-0.1-0.2s-0.5,0.3-0.2,0.4c0,0.1-0.2,0.1-0.3,0.1v-0.2l-0.2,0.2c-0.2,0-0.3-0.1-0.4-0.2c0.2,0,0.4-0.3,0-0.4
	c0.2,0,0.3,0,0.4-0.1c-0.1,0-0.1,0,0-0.1c-0.3,0-0.1,0.1-0.4,0.1c0-0.2,0-0.2-0.3-0.3l0.2,0.1l0,0c0.1,0,0.1,0.1,0.1,0.1
	c-0.1,0-0.4,0.2-0.4,0.1c0.3,0.3-0.6,0.1-0.4,0.3c0,0-0.3,0-0.3,0c0.3-0.1-0.2-0.2-0.1-0.3c-0.1,0,0.2,0.1,0.1,0.2
	c-0.1,0-0.3-0.1-0.3-0.2H76l-0.2-0.1c0,0.1,0.2,0.2,0,0.2c0,0-0.3,0-0.3-0.1s0.1-0.3,0.2-0.3c-0.2,0-0.7,0-0.5,0.1h-0.2
	c0.1,0.1,0.4,0.2,0,0.2l0,0l-0.3,0.1l-0.1-0.1c0,0,0,0.1-0.1,0.1s-0.1-0.1-0.1-0.1c-0.3,0-0.3,0.1-0.3,0.1s-0.2,0-0.1-0.1
	c-0.2,0-0.5,0-0.7-0.1c-0.3,0,0.1,0-0.1,0.1c-0.2-0.3-1-0.2-1.4-0.1c0.1,0.3-0.1,0-0.2,0.2c0.1-0.1-0.4-0.2,0-0.3h-0.2
	c-0.2-0.1,0.4-0.1,0.2-0.3c-0.3,0-0.5,0.3-0.8,0.2c0.1-0.2-0.3,0-0.2-0.1s0.2,0,0.2,0h-0.1c-0.6-0.1-0.2,0.2-0.5,0.3
	s-0.3-0.1-0.3-0.2c-0.1,0-0.2,0-0.3,0c0.2-0.1,0.4,0.1,0.3,0.2c-0.2-0.2-0.6,0-0.7,0c0.5,0.2,0.4,0,0.9,0.2c0.1-0.1,0.1-0.2,0.4-0.2
	c-0.2,0.1,0,0.1,0.1,0.1s0.2,0,0.3-0.1s-0.2,0.2,0.1,0.3l0.1-0.2c0.1,0,0,0.2,0.2,0.1c-0.1,0.1,0,0.2-0.3,0.2c0.4,0.2,0.6-0.1,1-0.2
	c0,0,0,0-0.1,0.1s0.1-0.1,0.3-0.1s-0.2,0.1-0.1,0.2h0.3l0,0c0.1,0,0.2,0,0.2,0s-0.1,0.1-0.2,0.2l0.4-0.1c0,0.1,0.3,0.2,0,0.2h0.5V29
	c0.1,0,0.1,0,0-0.1c0.2,0,0.8-0.2,0.7,0.1c0.4-0.1,0.7-0.1,1.1-0.1c-0.4,0.1,0.4,0.2,0,0.3c0.2,0.1,0.3-0.1,0.5-0.1s0.1,0.2-0.1,0.3
	l0.2,0l0,0l0.2-0.1c0.2,0.1,0,0.2,0.2,0.2l0.1-0.1l0.1,0.1c0-0.1,0.1-0.1,0.2-0.1l0,0h0.2c-0.2,0.1,0.2,0,0.1,0.1c0.1,0,0.3,0,0.4,0
	v-0.1c0.4,0,0,0.1,0.3,0.2v-0.1c0.4,0.2,0.8,0,1.1,0.1c-0.2,0-0.2,0.1-0.2,0.1c0.3,0,0.7,0,1,0c0.1,0.2,0.1,0.2,0.4,0.4
	s0.2,0,0.3-0.1c0.2,0.1,0.6,0.1,0.6,0.2c0.1-0.1,0.2,0,0.3,0v0v-0.1c0.3,0.3,0.6,0,1,0.2h-0.1l0.1,0c0,0.1,0,0.1-0.1,0.1l0.7,0.2
	l-0.1-0.1c0.2,0,0.3-0.1,0.4,0c-0.3,0.1,0.2,0.1,0.3,0.2H83c0.2,0,0.2,0,0.2-0.1c0.3,0,0.2,0.2,0.4,0.2h-0.2
	c-0.1-0.1,0.1-0.1,0.2-0.1s0.1,0.1,0,0.1c0.2,0,0.5,0.1,0.6,0.1s0.1,0.1,0,0.1c0.5,0,0.2,0.1,0.7,0.1v0.1h0.2l0.2,0.2l-0.1-0.1
	c0.1,0,0.3,0,0.4,0.1l-0.1,0.1c0.4,0,0.5,0.3,0.9,0.2c0,0,0,0-0.1,0c0.4-0.1,0.2,0.2,0.7,0.1c0,0,0,0.1,0,0.1h0.2v0.1l0.2-0.2
	l0.1,0.2l0.1,0c0.1,0.3,0.4,0.2,0.6,0.4v-0.2c0.7-0.2,1.4,0.5,2.2,0.6l-0.1,0.1l0.4-0.1c0.1,0.2-0.1,0.1-0.1,0.2
	c0.3,0,0.2-0.1,0.6-0.1c0.2,0.1-0.1,0.1-0.2,0.1c0.4,0,0.8,0.1,1.2,0.3l0,0c0.3,0.1,0.6,0.1,0.8,0.3c0,0-0.1,0-0.2,0
	c0.1,0,0.2,0.1,0.3,0.1L93,33.9c0.2,0.1,0.6,0.1,0.6,0.3c0,0,0-0.1,0.2-0.1c0,0.2,0.5,0.1,0.7,0.3c0,0-0.2,0-0.2,0s0.3,0,0.4,0
	l-0.1,0.1l0.3,0.1l0.3,0.1c0,0.2,0.6,0.2,0.5,0.3c0.2,0.1-0.2-0.2,0.1-0.1c0,0.1,0.3,0.1,0.2,0.2l0,0l0.2,0.1l-0.2,0.1
	c0.1,0,0.3,0,0.4-0.1c0.1,0.1,0.4,0.2,0.4,0.3H97c0.5,0.1,0.6,0.6,1.1,0.6c0,0,0,0.1,0,0l0.3,0.1L98.2,36h0.5v0.1
	c0.4,0.2,0.8,0.3,1.2,0.5h-0.1c0.5,0.1,0.4,0.2,0.7,0.3l0,0l0.3,0.1h-0.1c0.3,0,0.5,0.4,0.4,0.3c0.1,0,0.4,0,0.4,0
	c0.3,0.1,0,0.1,0.2,0.2s0.3,0,0.6,0.2v0.1c0.1,0,0.3,0.1,0.4,0.1h-0.1c0.4,0,0.3,0.4,0.7,0.2c0.1,0.1,0.4,0.2,0.3,0.3
	c0.4,0.1,0.8,0.2,1.2,0.4c0,0.2,0.1,0,0.3,0.3v-0.1c0.5,0.3,1,0.9,1.6,1.2v0.1h0.2c0.6,0.4,1.4,0.9,1.8,1.2c0.3,0,0.5,0.1,0.7,0.3
	l0,0c0.5,0.2,1,0.5,1.4,0.9c-0.1,0,0,0.1-0.1,0.1c0.2,0,0.3,0.2,0.4,0.2l-0.1-0.2c0.2,0,0.3,0.2,0.3,0.3h0.3c0,0,0,0,0,0.1h0.1v0.2
	c0.1,0,0.3,0.2,0.5,0.1c0,0,0.2,0.2,0,0.1l0.7,0.6l-0.1-0.1c0.1-0.1,0.3,0,0.4,0.1c-0.2,0-0.1,0.1-0.1,0.2s0-0.1,0.1-0.2
	c0.2,0,0.4,0.1,0.5,0.3h-0.1c0.2,0.1,0.2,0.3,0.3,0.4s0.3,0.2,0.3,0c0.2,0.2,0,0.2,0,0.2s0.4,0.3,0.4,0.4c0.3-0.1,0.5,0.5,0.7,0.4
	l0.1,0.2c0.1-0.1,0.2-0.1,0.3,0c0.1,0.2,0,0.2,0,0.3l0.2-0.1c0.5,0.9,1.6,1.6,2.2,2.6c0.4,0.3,0.8,0.7,1.2,1.1h-0.1l0.3,0.5
	l-0.2-0.4c0.1,0.1,0.2,0.1,0.3,0.2c0.3,0.6,0.8,1.2,1.3,1.8c0.5,0.2,0,0.4,0.4,0.7c0,0-0.1,0-0.1,0c0.3,0.3,0.6,0.6,1,0.9
	c-0.3,0.1,0.2,0.3,0,0.3h0.1c0,0.1,0.1,0.4,0,0.4l0.2,0.1l-0.1,0.1c0.2,0.3,0.6,0.7,0.4,1c0.1,0.1,0.3,0.3,0.4,0.5
	c0.1,0.2,0.3,0.4,0.4,0.6c0.2,0.4,0.4,0.9,0.6,1.3c0.2,0.1,0.3,0.3,0.4,0.5v0.3c0.1,0.2,0.4,0.3,0.4,0.5l0,0
	c0.1,0.2,0.1,0.4,0.3,0.5s0.1,0.5,0,0.4c0.2-0.1,0.2,0.5,0.2,0.5l0.5,1.8c0,0.1,0.1,0.3,0.1,0.4s0.1,0.3,0.1,0.5
	c0.1,0.3,0.1,0.7,0.2,1s0.2,0.7,0.2,1.1s0.1,0.8,0.2,1.2s0.2,0.8,0.2,1.3s0.1,0.8,0.1,1.3s0.1,0.8,0.1,1.2s0,0.8,0,1.2
	c0,1.2,0.2,2.4,0.4,3.6c0.1,0.1,0.2,0.4,0.3,0.3c0,0.2-0.2,0.3-0.1,0.3c0.1-0.3,0.3,0.1,0.4-0.1v0.2c0.1,0-0.1-0.3,0.1-0.2l-0.2-0.1
	c0-0.1,0.1-0.2,0.2-0.3c-0.1-0.2-0.4-0.3-0.2-0.6v0.1c0-0.3,0.2-0.2,0.2-0.2V75l0.1-0.2c-0.1,0.2,0.1,0.5,0.1,0.3
	c0.1-0.3-0.1,0.1-0.1-0.2s0.1-0.1,0.2-0.1v-0.3c0.1,0,0,0.2,0.1,0.1l-0.1-0.3c0.3-0.1-0.1-0.4,0.2-0.5c0,0.2,0.1,0,0.2,0
	s0-0.6,0-0.6s0.1,0.2,0.1,0.1s-0.1-0.2-0.1-0.3s0-0.5,0.2-0.4c0.1-0.4-0.2-0.2-0.1-0.6c0.1-0.1,0,0.3,0.1,0.1v-0.4
	c0.1,0,0.2,0.1,0.1,0.2c0.1-0.5,0.2-1,0.4-1.4c0.1-0.4,0.2-0.9,0.1-1.3c0.1-0.2,0.1,0.1,0.2,0.2c-0.2-0.7,0.2-1.1,0.1-1.7h-0.1
	c0-1,0-2-0.2-3v0.1c-0.1-0.1-0.2-0.3-0.3-0.5c0,0,0.2,0.1,0.1-0.2c0,0.1,0,0.2-0.1,0.2c0-0.6-0.1-1.3-0.2-1.9
	c-0.1-0.4-0.2-0.8-0.3-1.1c-0.1-0.4-0.2-0.8-0.3-1.1s-0.2-0.5-0.2-0.7l-0.3-0.7l-0.6-1.4c-0.2-0.5-0.4-0.9-0.6-1.4s-0.4-0.9-0.7-1.3
	c0.1,0.3-0.1,0.3-0.2,0c0.1-0.7-0.6-0.8-0.7-1.5c-0.5-0.9-1.1-1.8-1.8-2.6l0.1-0.1c0-0.2-0.1-0.1-0.2-0.3l0,0
	c-0.2-0.3-0.6-0.6-0.7-0.8l-0.1,0.1c-0.2-0.2,0-0.2-0.2-0.3h0.1l-0.3-0.1c0.2-0.1-0.4-0.5-0.4-0.7l-0.4-0.4
	c-0.2-0.1-0.4-0.3-0.5-0.5c0-0.1-0.3-0.5-0.5-0.8s-0.5-0.5-0.8-0.8s-0.7-0.6-1-0.9l-0.1,0.1l-0.2-0.1c0,0,0-0.1,0,0
	c0-0.2-0.4-0.3-0.5-0.5c0,0.2,0.1,0.1,0.2,0.2s-0.1,0.2-0.3-0.1l0,0l-0.2-0.1c0.1-0.1,0-0.2,0-0.3c-0.6-0.3-1.1-0.7-1.6-1.2
	c0.1,0-0.4-0.3-0.2-0.4c-0.4-0.2-0.1,0.2-0.3,0.2c-0.1-0.1-0.2-0.1-0.2-0.2s0-0.2,0.1-0.1l-0.3-0.2c0,0,0.1,0,0.1,0
	c-0.6-0.3-0.8-0.8-1.3-1c-0.1,0,0.2,0.2,0.1,0.2c-0.6-0.2-0.3-0.4-0.8-0.6h0.2c-0.2,0-0.3,0-0.5-0.2c0-0.1,0.3,0,0.4,0.1
	c-0.2-0.1-0.6-0.4-0.5-0.2c-0.2-0.1-0.2-0.2-0.3-0.3s0.1,0.2,0,0.2c-0.3-0.3-0.6-0.5-0.9-0.7c0,0,0-0.1,0.1-0.1
	C111.6,39.3,111.8,39.1,111.4,38.9z"/>
<path class="st0" d="M93,31.2l0.1,0.1c0,0,0-0.1,0.1-0.1L93,31.2z"/>
<path class="st0" d="M99.7,33.7L99.7,33.7C99.7,33.7,99.7,33.7,99.7,33.7z"/>
<path class="st0" d="M101.3,34.1c-0.1,0,0,0,0,0.1C101.4,34.2,101.4,34.2,101.3,34.1z"/>
<path class="st0" d="M89,30.5C89,30.5,89.1,30.5,89,30.5C89.1,30.4,89,30.5,89,30.5z"/>
<path class="st0" d="M78,28.2L78,28.2z"/>
<path class="st0" d="M78.6,28.5c0,0,0.1,0,0.1,0H78.6z"/>
<path class="st0" d="M91.6,31.1c0,0,0.1,0,0.1,0C91.7,31.1,91.6,31.1,91.6,31.1z"/>
<path class="st0" d="M78.9,28.5H79l0,0H78.9z"/>
<path class="st0" d="M77.8,28.2H78C78,28.2,77.9,28.2,77.8,28.2z"/>
<path class="st0" d="M85,29.7L85,29.7C85,29.7,85,29.6,85,29.7z"/>
<polygon class="st0" points="79.6,28.4 79.6,28.4 79.7,28.4 "/>
<path class="st0" d="M77.2,28.1C77.2,28.1,77.2,28.1,77.2,28.1L77.2,28.1C77.2,28.1,77.2,28.1,77.2,28.1z"/>
<path class="st0" d="M82.7,29c-0.1,0-0.1,0.1-0.1,0.1S82.7,29.1,82.7,29z"/>
<path class="st0" d="M120.6,50.1L120.6,50.1C120.6,50,120.6,50.1,120.6,50.1z"/>
<path class="st0" d="M117.1,49.8L117.1,49.8z"/>
<path class="st0" d="M122.8,50.2h0.1H122.8z"/>
<path class="st0" d="M109.6,49.5L109.6,49.5z"/>
<path class="st0" d="M114.1,49.7C114,49.7,114,49.7,114.1,49.7C114,49.7,114.1,49.7,114.1,49.7z"/>
<path class="st0" d="M123.9,51.5L123.9,51.5C123.8,51.4,123.9,51.4,123.9,51.5z"/>
<path class="st0" d="M126,51.1L126,51.1C126,51.1,126,51,126,51.1z"/>
<path class="st0" d="M125.2,50.7L125.2,50.7C125.1,50.7,125.2,50.7,125.2,50.7z"/>
<path class="st0" d="M125.1,50.8L125.1,50.8C125.1,50.8,125.1,50.8,125.1,50.8z"/>
<path class="st0" d="M82.7,49.5c-0.1,0-0.1,0-0.2,0.1L82.7,49.5z"/>
<path class="st0" d="M102.8,49.4L102.8,49.4C102.8,49.4,102.8,49.4,102.8,49.4z"/>
<path class="st0" d="M82.4,50.1L82.4,50.1C82.4,50.1,82.4,50.1,82.4,50.1z"/>
<path class="st0" d="M122.8,51.7c-0.1,0.1-0.2,0-0.2,0.1S122.7,51.8,122.8,51.7z"/>
<path class="st0" d="M101.4,52.6L101.4,52.6z"/>
<path class="st0" d="M82.4,50.1L82.4,50.1L82.4,50.1z"/>
<path class="st0" d="M95.6,49.6L95.6,49.6L95.6,49.6z"/>
<path class="st0" d="M95.3,49.5L95.3,49.5C95.3,49.4,95.3,49.4,95.3,49.5z"/>
<path class="st0" d="M82.5,49.5h-0.1C82.4,49.5,82.5,49.5,82.5,49.5z"/>
<path class="st0" d="M91.3,49.7L91.3,49.7z"/>
<path class="st0" d="M114.3,49.7L114.3,49.7C114.3,49.7,114.4,49.7,114.3,49.7z"/>
<polygon class="st0" points="111.6,52 111.6,52 111.6,52 "/>
<path class="st0" d="M111.7,51.9c0,0-0.1,0-0.2,0.1S111.7,52,111.7,51.9z"/>
<path class="st0" d="M111.2,52L111.2,52z"/>
<polygon class="st0" points="114.2,52.1 114.2,52.1 114.2,52.1 "/>
<path class="st0" d="M113.7,52.1L113.7,52.1z"/>
<polygon class="st0" points="109.8,52.2 109.8,52.2 109.8,52.2 "/>
<path class="st0" d="M104.1,52.8c0.6-0.1,1.2-0.2,1.8-0.2c0.1-0.2,0.3-0.2,0.5-0.2v0.2l0.2-0.1c0.1,0.1-0.1,0,0,0.1l0.1-0.1
	c0,0.1,0.4,0,0.1,0.2h0.6c0.1,0,0.1-0.2,0.2-0.1s0,0,0,0.1c0.4,0.2,0.5-0.5,0.9-0.3l0,0c0.1-0.1,0.2,0,0.2-0.1
	c-0.1-0.2-0.1,0.1-0.2,0s0.2-0.1,0.1-0.3c0.1,0.1,0.2,0,0.2,0s0.3,0,0.4,0.2c0.1-0.1,0.1-0.3,0.3-0.3c0.1,0.2,0,0.2,0.1,0.2v-0.1
	c0.1,0,0.1,0,0.1,0.1s0.1-0.2,0.2-0.1l-0.1,0.1c0.1,0,0.2,0,0.3,0c0,0.1-0.1,0.1-0.1,0c0.1,0.2,0.1-0.1,0.2,0s-0.1-0.1-0.1-0.2
	s0.2-0.2,0.2,0l-0.1,0.1c0.2-0.1,0.1-0.1,0.3-0.1c0,0,0,0,0,0.1c0.1-0.1,0.3,0,0.4,0l0,0c0.1,0,0.1-0.1,0.2-0.1s-0.1-0.1-0.1-0.2
	c0.1,0.2,0.2-0.2,0.4-0.1c0,0.1-0.1,0.2-0.1,0.1c-0.1,0.2-0.1,0.3-0.2,0.4c0.1,0,0.2-0.1,0.2,0V52h0.1c0-0.1-0.1-0.2,0-0.3
	s0.1,0.2,0.1,0.1c0.2-0.1,0.1-0.2,0.2-0.1c0,0,0,0-0.1,0s0.3,0,0.3,0.2c0,0,0,0.1-0.1,0.1l0,0c-0.1,0.2,0.1,0,0.1,0.2
	c0-0.1,0.2-0.1,0.2-0.1V52c0.3-0.4,0,0.3,0.2,0.2s-0.1,0,0-0.1s0.2,0.1,0.3,0.1c0.1,0.1,0.1,0.2,0.2,0.3c0.1-0.1,0.3,0.1,0.4-0.1
	c-0.2-0.1-0.2,0.2-0.4,0l0.1-0.1c0.1,0,0.3-0.1,0.4,0c0,0,0-0.1,0-0.1c0.2-0.1,0.2-0.2,0.4-0.2c0,0.1-0.1,0.1-0.2,0.1
	c0.1,0.1,0.1,0,0.3,0c0,0.1-0.1,0-0.2,0.1h0.2l0,0c0-0.2,0.2,0,0.3,0c0.3,0,0.3-0.3,0.5-0.4c0,0,0,0.1,0,0.2c-0.1-0.1-0.1,0-0.1,0
	s0.2,0.2,0.2,0.3c0.2-0.1-0.1-0.1,0-0.2h0.2c0-0.1-0.1-0.1,0-0.2c0.1,0,0.2,0,0.3,0c0,0,0,0.2-0.1,0.2c0.1,0,0.2,0,0.2,0
	c0,0,0,0,0,0c-0.1-0.1,0.2-0.1,0.1-0.2l0.1,0.1c0,0,0,0.1-0.1,0c0,0.2,0.1,0,0.2-0.1s0.2,0,0.2,0.1c0.1,0,0.1,0,0.2,0c0,0,0,0,0,0
	c0.1,0,0-0.1,0-0.1h0.2c0,0.1,0,0.2,0,0.3c0.1-0.1,0-0.2,0.2-0.2c-0.1,0.2,0.2,0.1,0.1,0.3c0.1,0.1,0.3,0.1,0.4,0.1
	s-0.1-0.1-0.1-0.2c0.3-0.1,0.3-0.4,0.6-0.4h-0.1c0.1-0.2,0.3-0.3,0.4-0.2c0.2,0.1,0.3,0.3,0.2,0.4l0,0c0-0.1-0.1-0.2-0.1-0.3h0.2
	c0,0,0,0,0,0.1c0.2-0.1,0.3,0.2,0.3,0l0.2,0.2l-0.1-0.1c0-0.1,0.2-0.1,0.2-0.1s0.2,0,0.3,0.1c0-0.1-0.1-0.2,0-0.2
	c0,0.3,0.3,0.1,0.3,0.2s0.1,0.1,0.2,0v0.2c0-0.2,0.2-0.2,0.3-0.3c0,0.3,0.2,0,0.2,0.3c0-0.2,0.3-0.1,0.3-0.3c0.1,0,0.1,0.2,0.1,0.2
	l0.1-0.1c0.1,0.1,0.3,0.1,0.4,0.2l0.1-0.2v0.1c0,0,0.1-0.1,0.1-0.2h0.1c0-0.2,0.1,0,0.2-0.1c0,0,0,0.1,0,0.1c0.1,0,0,0.1,0.1,0.2
	s0.2-0.4,0-0.5c0-0.1,0-0.1,0.1-0.1c0,0,0,0,0,0v0.2l0.1-0.2c0.1,0,0.2,0.1,0.2,0.1c-0.1,0-0.2,0.3,0,0.3c-0.1,0-0.2,0.1-0.2,0.2
	s0.1,0,0,0.1c0.2-0.1,0.1-0.1,0.2-0.1c0,0.2,0,0.2,0.2,0.3l-0.1-0.1l0,0c0,0-0.1,0-0.1-0.1s0.2-0.2,0.2-0.1
	c-0.2-0.2,0.3-0.2,0.2-0.4c0,0,0.1-0.1,0.1,0c0,0,0,0,0,0c-0.1,0.1,0.1,0.2,0.1,0.3s-0.1-0.1,0-0.2s0.1,0.1,0.2,0.1l0,0l0.1,0.1
	c0-0.1-0.1-0.1,0-0.2s0.2,0,0.2,0s0,0.3-0.1,0.3c0.1,0,0.3,0,0.2-0.2h0.1c-0.1-0.1-0.2-0.2,0-0.2l0,0l0.1-0.1l0.1,0.1
	c0,0,0-0.1,0.1-0.1s0.1,0.1,0.1,0.1s0.1-0.1,0.1-0.1s0.1,0,0.1,0.1c0.1,0,0.3,0,0.4,0.1c0.2-0.1,0,0,0.1-0.2
	c0.1,0.3,0.5,0.1,0.7,0.1c-0.1-0.2,0.1,0,0.1-0.3c0,0.1,0.2,0.2,0,0.3h0.1c0.1,0.1-0.2,0.1-0.1,0.3c0.1,0,0.2-0.3,0.4-0.2
	c0,0.2,0.1-0.1,0.1,0.1s-0.1,0-0.1,0.1l0,0c0.3,0,0.1-0.2,0.2-0.3s0.2,0.1,0.2,0.2s0.1,0,0.2,0c-0.1,0.1-0.2-0.1-0.2-0.2
	c0.1,0.2,0.3,0,0.3-0.1c-0.3-0.2-0.2,0-0.5-0.2c0,0.1,0,0.2-0.2,0.2c0.1-0.1,0-0.1,0-0.1s-0.1,0-0.2,0.1s0.1-0.2-0.1-0.3v0.2
	c-0.1,0,0-0.2-0.1-0.1c0.1-0.1,0-0.2,0.1-0.2c-0.2-0.2-0.3,0.1-0.5,0.2c0,0,0,0,0-0.1s-0.1,0.1-0.1,0.1s0.1-0.1,0-0.2H125l0,0
	c0,0-0.1,0.1-0.1,0c0-0.1,0.1-0.2,0.1-0.2l-0.2,0.2c0-0.1-0.2-0.1,0-0.2h-0.3v-0.2c-0.1,0-0.1,0.1,0,0.1c-0.1,0-0.4,0.3-0.4,0
	c-0.2,0.1-0.3,0.1-0.6,0.2c0.2-0.2-0.2-0.2,0-0.3c-0.1-0.1-0.2,0.1-0.2,0.1c-0.1-0.1-0.1-0.2,0-0.3c0,0,0,0,0,0l-0.1,0.1l0,0
	l-0.1,0.1c-0.1-0.1,0-0.2-0.1-0.2v0.1l-0.1-0.1c0,0.1,0,0.1-0.1,0.1l0,0h-0.1c0.1-0.1-0.1,0-0.1-0.1c-0.1,0-0.2,0-0.2,0v0.1
	c-0.2,0.1,0-0.2-0.2-0.2v0.1c-0.2-0.2-0.4,0.1-0.6,0c0.1,0,0.1-0.2,0.1-0.1c-0.2,0-0.4,0-0.5,0.2c-0.1-0.2-0.1-0.2-0.2-0.3
	s-0.1,0-0.2,0.1c-0.1-0.1-0.3,0-0.3-0.1c0,0.1-0.1,0-0.2,0.1v0v0.1c-0.2-0.2-0.3,0.2-0.5-0.1l0,0l-0.1,0c0,0,0-0.1,0-0.2h-0.4
	l0.1,0.1c-0.1,0-0.1,0.1-0.2,0.1c0.2-0.2-0.1,0-0.2-0.1h0.1c-0.1,0-0.1,0-0.1,0.1c-0.2,0-0.1-0.2-0.2-0.1h0.1c0,0.1,0,0.1-0.1,0.2
	c0,0,0,0,0,0c0,0-0.1-0.1,0-0.1c-0.1,0-0.3,0-0.3,0s0-0.1,0-0.2c-0.2,0.1-0.1,0-0.3,0.1v-0.1l-0.1,0.1l-0.1-0.1v0.1
	c-0.1,0-0.1,0.1-0.2,0V50c-0.2,0-0.3-0.2-0.5,0c0,0,0,0,0-0.1c-0.2,0.2-0.2-0.2-0.3,0c0,0,0-0.1,0-0.1l-0.1,0.1v-0.1l-0.1,0.2v-0.1
	v0.1c-0.1-0.2-0.2-0.1-0.4-0.2v0.2c-0.3,0.3-0.8-0.2-1.2,0v-0.1l-0.2,0.2c-0.1-0.1,0-0.1,0-0.2s-0.1,0.2-0.3,0.2s0-0.1,0.1-0.2
	c-0.2,0.1-0.4,0.1-0.6,0.1l0,0c0,0-0.3,0-0.4,0s0-0.1,0.1-0.1s-0.1,0-0.2,0v-0.1c-0.1,0-0.3,0.1-0.3-0.1c0,0,0,0.2-0.1,0.2
	c-0.1-0.2-0.3,0.1-0.4,0c0,0,0.1,0,0.1-0.1s-0.2,0-0.2,0.1v-0.1l-0.4,0.1c-0.1-0.2-0.3,0-0.3-0.1s0.1,0.1-0.1,0.1s-0.2,0-0.1-0.1
	h0.2l0.1-0.1c-0.1,0.1-0.2,0.1-0.2,0.3c-0.1-0.1-0.2,0-0.3-0.1l0,0c-0.3,0.1-0.4-0.3-0.6-0.1v0h-0.2v-0.1l-0.3,0.2v-0.2
	c-0.2,0-0.4,0-0.7,0l0,0c-0.2,0.1-0.2-0.1-0.4,0l0,0h-0.2v-0.1c-0.1,0.1-0.3-0.2-0.3-0.1s-0.2,0.1-0.2,0.2c-0.2,0,0-0.1-0.2-0.1
	s-0.2,0.1-0.3,0v-0.1c-0.1,0-0.2,0.1-0.2,0.1l0,0c-0.2,0.1-0.2-0.2-0.4,0.1c-0.1,0-0.2,0-0.2-0.1c-0.2,0.1-0.4,0.1-0.6,0.2
	c0-0.2,0,0-0.2-0.1v0.1c-0.3,0-0.7-0.3-1-0.2v-0.1l-0.1,0.1c-0.4-0.1-0.8-0.1-1.2-0.1c-0.1,0.1-0.2,0.2-0.4,0.2l0,0
	c-0.3,0.1-0.6,0.1-0.9,0c0,0,0-0.1,0-0.1s-0.2,0-0.2,0l0.1,0.1c-0.1,0.1-0.2,0-0.2-0.1l-0.1,0.1v0v0.1l-0.1-0.2c0,0-0.2,0.1-0.3,0.2
	c0,0-0.1-0.1,0-0.1h-0.5l0.2,0.1c0,0.1-0.1,0.2-0.1,0.2c0,0,0,0-0.1,0c0.1-0.1,0-0.2,0-0.2s0.1,0.1,0,0.2s-0.3,0.1-0.3,0.1l0,0
	c-0.1,0-0.2-0.2-0.3-0.1s-0.2,0-0.2,0.2c-0.2,0-0.1-0.1-0.1-0.2s-0.3,0-0.3-0.1c-0.1,0.3-0.4-0.1-0.4,0.2l-0.1-0.1
	c0,0.1,0,0.2-0.1,0.2s-0.1-0.2-0.1-0.2l-0.1,0.2c-0.6-0.2-1.2,0-1.8-0.2c-0.3,0.1-0.6,0.2-0.9,0.2l0,0h-0.3l0.2,0.1
	c-0.1,0-0.1,0.1-0.2,0.1c-0.4-0.1-0.8-0.1-1.2,0c-0.2,0.3-0.2-0.2-0.4,0c0,0,0-0.1,0-0.1c-0.2,0.1-0.5,0.2-0.7,0.3
	c0-0.3-0.2,0-0.2-0.1V50c-0.1-0.1-0.2-0.1-0.2-0.2L94,50v-0.4c-0.2,0-0.5,0.1-0.6-0.1c-0.5,0.2-1,0.2-1.5,0.1
	c-0.1,0.1-0.2,0.1-0.3,0.1l-0.1-0.1c-0.1,0-0.2,0.2-0.3,0.1s0,0,0,0s-0.2,0-0.3,0.1s-0.2-0.1-0.2-0.2c0,0.2-0.3,0-0.3,0l-1-0.1
	l-2.3-0.2c-1.8-0.1-3.6-0.3-4.4,0.1c-0.1,0.1-0.2,0.1-0.2,0.3s-0.1-0.2-0.2-0.1c0.1,0.1-0.1,0.3,0,0.4h-0.1c0,0.1,0.2,0,0.1,0.1
	l0.1-0.2c0.1,0,0.1,0.1,0.1,0.2c0.1-0.1,0.2-0.3,0.3-0.2l0,0c0.1,0,0,0.2,0.1,0.2l0,0l0.1,0.1c-0.1-0.1-0.3,0-0.2,0s0-0.1,0.1,0
	s0,0.1,0,0.2l0.1,0c0,0.1-0.1,0-0.1,0.1h0.2c0,0.2,0.2-0.1,0.2,0.2c-0.1,0,0,0.1,0,0.2l0.3,0.1c0,0-0.1,0,0,0s0.1,0,0.1,0
	s0.2,0,0.2,0.2c0.2,0.2,0.1-0.2,0.3,0c0,0.1-0.2,0-0.1,0.1h0.2c0,0-0.1,0.2-0.1,0.1c0.5,0.2,0.8,0.8,1.3,0.7
	c0.1,0.1-0.1,0.1-0.1,0.1c0.4-0.1,0.5,0.3,0.9,0.3v-0.1c0.4,0.4,1,0.2,1.5,0.4l-0.1-0.1c0.1-0.1,0.2-0.1,0.3-0.1s-0.1,0.2,0.1,0.2
	c0,0-0.1-0.1-0.1-0.1c0.7,0.2,1.4,0.3,2.1,0.4c1-0.1,2.1,0.1,3,0c-0.1,0-0.1-0.2,0-0.2c0.3,0.4,0.5-0.1,0.8,0.2
	c0.6-0.2,1.1,0.2,1.6-0.2V53c0.1,0,0.1,0,0.2,0l0,0c0.2,0,0.4-0.1,0.5,0v-0.1c0.1,0,0.1,0.1,0.2,0v0.1l0.1-0.1c0,0.2,0.3,0,0.4,0.1
	c0.2-0.1,0.4-0.1,0.6-0.1c0,0.1,0.3,0.1,0.5,0.2c0.4-0.1,0.8-0.1,1.2-0.1v-0.2h0.1c0,0,0,0,0,0.1s0.2-0.1,0.3,0
	c-0.1-0.1-0.1,0-0.1,0s0-0.2,0.1-0.1l0,0l0-0.1c0,0.1,0.1,0.2,0.1,0.3c0.4,0,0.6-0.2,1-0.2c0,0.1,0.3,0,0.2,0.2
	c0.2-0.1,0-0.2,0.1-0.3c0.1,0,0.1-0.1,0.1,0s0.1,0.1,0,0.2h0.1c0,0,0,0,0,0.1c0.3-0.1,0.6,0.1,0.8,0c0-0.1-0.1,0-0.1-0.1
	c0.3-0.2,0.2,0.1,0.5,0l-0.1,0.1c0.1-0.1,0.1-0.2,0.3-0.1s-0.1,0.1-0.2,0.2c0.1,0,0.3,0,0.3-0.2c0.1,0,0.2,0.1,0.2,0.1
	s-0.1-0.1,0-0.2c0.2,0.1,0.4,0.1,0.6,0.1c0,0,0,0.1,0,0.1C103.9,52.6,103.9,52.9,104.1,52.8z"/>
<path class="st0" d="M114.3,52.1L114.3,52.1C114.3,52.2,114.3,52.2,114.3,52.1L114.3,52.1z"/>
<path class="st0" d="M110.7,52.1L110.7,52.1C110.7,52.1,110.7,52.1,110.7,52.1z"/>
<path class="st0" d="M109.8,52.3C109.8,52.3,109.8,52.2,109.8,52.3C109.8,52.2,109.8,52.3,109.8,52.3z"/>
<path class="st0" d="M116.4,51.7C116.4,51.8,116.4,51.8,116.4,51.7C116.4,51.8,116.4,51.8,116.4,51.7z"/>
<path class="st0" d="M122.1,51.7L122.1,51.7z"/>
<path class="st0" d="M121.8,51.5L121.8,51.5C121.8,51.5,121.8,51.5,121.8,51.5z"/>
<path class="st0" d="M115,51.8C115,51.8,115,51.8,115,51.8C115,51.8,115,51.8,115,51.8z"/>
<path class="st0" d="M121.7,51.6L121.7,51.6L121.7,51.6L121.7,51.6z"/>
<path class="st0" d="M122.2,51.7L122.2,51.7C122.2,51.8,122.2,51.8,122.2,51.7z"/>
<path class="st0" d="M118.5,51.5L118.5,51.5C118.4,51.6,118.5,51.6,118.5,51.5z"/>
<polygon class="st0" points="121.3,51.8 121.3,51.8 121.3,51.8 "/>
<path class="st0" d="M122.6,51.8L122.6,51.8L122.6,51.8z"/>
<path class="st0" d="M119.7,51.7c0,0,0-0.1,0-0.1C119.7,51.6,119.7,51.6,119.7,51.7z"/>
<path class="st1" d="M14.5,45.3H5.3l-1.8,4.2H0l8.3-18.4h3.4l8.3,18.4h-3.6L14.5,45.3z M13.4,42.7l-3.5-8l-3.4,8H13.4z"/>
<path class="st1" d="M34.3,49.6l-3.8-5.4c-0.2,0-0.5,0-0.7,0h-4.1v5.3h-3.4V31.2h7.6c1.4,0,2.8,0.2,4.2,0.8c1.1,0.5,2.1,1.2,2.7,2.2
	c0.6,1,1,2.3,0.9,3.5c0,1.3-0.3,2.5-1,3.6c-0.7,1-1.7,1.8-2.9,2.2l4.2,6L34.3,49.6z M33,35.1c-1-0.7-2.2-1.1-3.4-1h-4v7.4h4
	c1.2,0.1,2.4-0.3,3.4-1c0.8-0.7,1.2-1.7,1.2-2.7C34.2,36.7,33.8,35.7,33,35.1z"/>
<path class="st1" d="M40.8,49.2c-1-0.5-1.8-1.1-2.4-2l1.9-2.3c0.8,1.3,2.2,2.1,3.7,2.1c1.9,0,2.9-1.1,2.9-3.4v-9.4h-6.5v-2.9h10
	v12.2c0.1,1.8-0.4,3.5-1.6,4.8c-1.3,1.1-3,1.7-4.7,1.6C42.9,49.9,41.8,49.6,40.8,49.2z"/>
<path class="st1" d="M66.5,45.3h-9.2l-1.8,4.2H52l8.3-18.4h3.4l8.3,18.4h-3.6L66.5,45.3z M65.4,42.7l-3.5-8l-3.4,8H65.4z"/>
<path class="st1" d="M29.7,53.7c-0.1-0.1-0.2-0.2-0.2-0.4c0-0.1,0.1-0.3,0.2-0.4c0.2-0.2,0.6-0.2,0.8,0c0.1,0.1,0.2,0.2,0.2,0.4
	c0,0.1-0.1,0.3-0.2,0.4C30.3,53.9,29.9,53.9,29.7,53.7C29.7,53.7,29.7,53.7,29.7,53.7z M29.7,55.1h0.8v5.7h-0.8V55.1z"/>
<path class="st1" d="M37.2,55.7c0.4,0.5,0.7,1.1,0.6,1.8v3.3h-0.8v-3.2c0-0.5-0.1-1-0.4-1.4c-0.3-0.3-0.8-0.5-1.3-0.5
	c-0.5,0-1.1,0.2-1.5,0.5c-0.4,0.4-0.6,1-0.5,1.5v3h-0.8v-5.7h0.7v1.1c0.2-0.3,0.5-0.6,0.9-0.8c0.4-0.2,0.8-0.3,1.3-0.3
	C36.1,55,36.8,55.2,37.2,55.7z"/>
<path class="st1" d="M43,60.5c-0.2,0.1-0.3,0.2-0.5,0.3c-0.2,0.1-0.4,0.1-0.7,0.1c-0.5,0-0.9-0.1-1.3-0.4c-0.3-0.3-0.5-0.8-0.4-1.2
	v-3.5h-1v-0.7h1v-1.2h0.8v1.2h1.7v0.7h-1.7v3.4c0,0.3,0.1,0.6,0.2,0.8c0.2,0.2,0.5,0.3,0.7,0.3c0.2,0,0.3,0,0.5-0.1
	c0.1,0,0.3-0.1,0.4-0.2L43,60.5z"/>
<path class="st1" d="M49.1,58.2h-4.8c0,0.5,0.2,1.1,0.7,1.4c0.4,0.4,1,0.6,1.6,0.5c0.3,0,0.7-0.1,1-0.2c0.3-0.1,0.6-0.3,0.8-0.6
	l0.4,0.5c-0.3,0.3-0.6,0.6-1,0.7c-0.4,0.2-0.8,0.2-1.2,0.2c-0.5,0-1-0.1-1.5-0.4c-0.4-0.2-0.8-0.6-1-1c-0.3-0.5-0.4-1-0.4-1.5
	c0-0.5,0.1-1,0.4-1.5c0.2-0.4,0.6-0.8,1-1c0.4-0.3,0.9-0.4,1.4-0.4c0.5,0,1,0.1,1.4,0.4c0.4,0.2,0.8,0.6,1,1c0.2,0.5,0.4,1,0.4,1.5
	L49.1,58.2z M45,56.2c-0.4,0.4-0.6,0.8-0.6,1.4h4c0-0.5-0.3-1-0.6-1.4c-0.4-0.4-0.9-0.5-1.4-0.5C45.8,55.7,45.4,55.9,45,56.2z"/>
<path class="st1" d="M52.3,55.3c0.4-0.2,0.9-0.3,1.3-0.3v0.8h-0.2c-0.5,0-1,0.2-1.4,0.5c-0.4,0.4-0.5,1-0.5,1.5v2.9h-0.8v-5.7h0.7
	v1.1C51.6,55.8,51.9,55.5,52.3,55.3z"/>
<path class="st1" d="M55,53.7c-0.2-0.2-0.1-0.6,0.1-0.8c0.2-0.2,0.5-0.1,0.7,0c0.1,0.1,0.2,0.2,0.2,0.4c0,0.1-0.1,0.3-0.2,0.4
	C55.6,53.9,55.2,53.9,55,53.7C55,53.7,55,53.7,55,53.7z M55,55.1h0.8v5.7H55V55.1z"/>
<path class="st1" d="M62.9,58.2h-4.8c0,0.6,0.3,1.1,0.7,1.4c0.4,0.4,1,0.6,1.6,0.5c0.3,0,0.7-0.1,1-0.2c0.3-0.1,0.6-0.3,0.8-0.6
	l0.4,0.5c-0.3,0.3-0.6,0.6-1,0.7c-0.4,0.2-0.8,0.2-1.2,0.2c-0.5,0-1.1-0.1-1.5-0.4c-0.4-0.2-0.8-0.6-1.1-1c-0.3-0.5-0.4-1-0.4-1.5
	c0-0.5,0.1-1,0.4-1.5c0.2-0.4,0.6-0.8,1-1c0.4-0.3,0.9-0.4,1.4-0.4c0.5,0,1,0.1,1.4,0.4c0.4,0.2,0.8,0.6,1,1c0.2,0.5,0.4,1,0.4,1.5
	L62.9,58.2z M58.7,56.2c-0.4,0.4-0.6,0.8-0.6,1.4h4c0-0.5-0.3-1-0.6-1.4c-0.4-0.4-0.9-0.5-1.4-0.5C59.6,55.7,59.1,55.9,58.7,56.2z"
	/>
<path class="st1" d="M66,55.3c0.4-0.2,0.9-0.3,1.3-0.3v0.8h-0.2c-0.5,0-1,0.2-1.4,0.5c-0.4,0.4-0.5,1-0.5,1.5v2.9h-0.8v-5.7h0.7v1.1
	C65.4,55.8,65.6,55.5,66,55.3z"/>
<path class="st1" d="M69,60.6c-0.4-0.1-0.7-0.3-1-0.5l0.3-0.6c0.3,0.2,0.6,0.4,0.9,0.5c0.4,0.1,0.7,0.2,1.1,0.2
	c0.4,0,0.8-0.1,1.2-0.2c0.2-0.1,0.4-0.4,0.4-0.7c0-0.2-0.1-0.4-0.2-0.5c-0.2-0.1-0.3-0.2-0.5-0.3c-0.3-0.1-0.6-0.1-0.8-0.2
	c-0.4-0.1-0.7-0.2-1.1-0.3c-0.3-0.1-0.5-0.2-0.7-0.5c-0.2-0.3-0.3-0.6-0.3-0.9c0-0.5,0.2-0.9,0.6-1.2c0.5-0.3,1.1-0.5,1.7-0.5
	c0.4,0,0.7,0.1,1.1,0.2c0.3,0.1,0.6,0.2,0.9,0.4l-0.3,0.6c-0.5-0.3-1.1-0.5-1.7-0.5c-0.4,0-0.8,0.1-1.1,0.3
	c-0.2,0.1-0.4,0.4-0.4,0.7c0,0.2,0.1,0.4,0.2,0.5c0.1,0.1,0.3,0.2,0.5,0.3c0.3,0.1,0.6,0.1,0.9,0.2c0.4,0.1,0.7,0.2,1.1,0.3
	c0.3,0.1,0.5,0.2,0.7,0.4c0.2,0.2,0.3,0.6,0.3,0.9c0,0.5-0.2,1-0.6,1.3c-0.5,0.3-1.1,0.5-1.7,0.4C69.8,60.9,69.4,60.8,69,60.6z"/>
</svg>
