<?xml version="1.0" standalone="no"?>
<!DOCTYPE svg PUBLIC "-//W3C//DTD SVG 20010904//EN"
 "http://www.w3.org/TR/2001/REC-SVG-20010904/DTD/svg10.dtd">
<svg version="1.0" xmlns="http://www.w3.org/2000/svg"
 width="700.000000pt" height="700.000000pt" viewBox="0 0 700.000000 700.000000"
 preserveAspectRatio="xMidYMid meet">
<metadata>
Created by potrace 1.14, written by Peter Selinger 2001-2017
</metadata>
<g transform="translate(0.000000,700.000000) scale(0.100000,-0.100000)"
fill="#000000" stroke="none">
<path d="M0 3500 l0 -3500 3500 0 3500 0 0 3500 0 3500 -2485 0 c-1706 0
-2485 -3 -2485 -10 0 -6 7 -21 15 -33 57 -88 109 -539 131 -1133 4 -126 3
-193 -3 -197 -12 -7 -5 -96 8 -112 4 -6 8 -20 8 -30 0 -11 2 -38 5 -60 28
-200 36 -320 26 -370 -5 -20 -1 -43 11 -66 10 -20 18 -56 17 -80 -1 -58 8
-220 15 -239 13 -41 32 -153 37 -223 3 -42 8 -77 13 -77 33 -1 106 14 101 21
-3 5 4 9 16 9 12 0 25 -10 31 -24 7 -14 17 -22 25 -19 8 3 14 0 14 -6 0 -6 12
-11 26 -11 25 0 83 -26 95 -44 4 -5 17 -6 29 -3 12 3 33 1 47 -4 17 -6 30 -6
38 1 9 8 17 6 29 -5 9 -9 14 -20 12 -24 -3 -4 21 -7 52 -7 67 1 108 -8 131
-27 18 -16 141 -30 141 -17 0 5 -8 14 -17 19 -17 10 -17 10 -1 11 9 0 21 -6
25 -14 10 -17 54 -41 71 -38 11 3 16 -10 13 -30 0 -4 7 -7 17 -6 34 3 53 -2
47 -12 -4 -6 13 -19 37 -30 43 -19 79 -18 106 3 8 6 12 6 12 0 0 -6 -10 -15
-22 -21 -21 -10 -19 -11 17 -11 22 -1 65 -10 95 -21 30 -11 60 -18 67 -16 7 3
25 -1 40 -9 15 -8 34 -15 41 -15 6 0 12 -4 12 -10 0 -5 7 -10 15 -10 8 0 15
-4 15 -10 0 -5 12 -10 26 -10 14 0 38 -9 53 -19 15 -11 45 -22 66 -26 30 -5
36 -4 25 4 -13 9 -13 11 2 11 9 0 20 -4 23 -10 3 -5 18 -10 33 -10 41 0 103
-20 97 -31 -4 -5 1 -9 10 -9 24 0 95 -43 95 -58 0 -7 8 -16 18 -19 9 -4 27
-17 39 -30 12 -13 32 -23 45 -23 13 0 46 -13 73 -29 261 -148 258 -146 250
-170 -5 -17 44 -63 82 -75 12 -4 24 -13 27 -21 3 -8 11 -15 19 -15 7 0 24 -11
36 -24 13 -14 28 -23 35 -20 6 2 40 -23 76 -57 35 -34 66 -57 68 -51 1 5 23
-11 47 -36 24 -26 61 -58 84 -72 22 -14 41 -30 41 -36 0 -15 27 -37 48 -41 9
-1 18 -7 20 -12 2 -6 9 -11 16 -11 25 0 151 -122 194 -186 24 -36 50 -68 58
-71 8 -3 28 -25 44 -48 17 -24 57 -70 91 -104 34 -33 58 -64 55 -70 -6 -8 18
-36 83 -96 13 -11 33 -18 51 -17 16 1 31 -2 35 -8 6 -9 -7 -14 -27 -11 -5 0
-8 -3 -8 -8 0 -5 -9 -7 -21 -4 -18 5 -17 1 10 -43 17 -26 31 -53 31 -58 0 -6
14 -29 30 -50 17 -22 30 -50 30 -63 0 -14 6 -23 15 -23 18 0 35 -33 120 -235
80 -187 142 -396 151 -503 3 -43 13 -90 21 -107 23 -46 39 -284 25 -368 -7
-37 -12 -80 -12 -95 0 -16 -13 -68 -30 -116 -16 -48 -26 -93 -23 -102 3 -8 0
-21 -6 -28 -7 -8 -10 -32 -7 -56 4 -30 1 -42 -10 -47 -8 -3 -17 -23 -20 -44
-5 -32 -10 -38 -24 -34 -19 6 -36 -20 -20 -30 10 -6 9 -65 -1 -65 -3 0 -15 13
-27 29 -26 35 -52 208 -52 346 0 122 -16 325 -36 445 -34 210 -57 329 -79 410
-13 47 -26 104 -30 127 -4 23 -13 47 -21 54 -8 6 -14 17 -14 24 0 6 -9 20 -20
30 -11 10 -20 28 -20 40 0 13 -7 28 -16 36 -8 7 -28 41 -44 75 -15 35 -42 83
-59 108 -17 24 -31 51 -31 58 0 7 -9 27 -20 43 -11 17 -25 47 -31 68 -6 24
-27 55 -55 81 -24 23 -44 50 -44 60 0 10 -7 24 -15 33 -14 14 -18 14 -35 -2
-14 -12 -23 -14 -37 -6 -11 5 -25 6 -33 1 -8 -5 -18 -6 -23 -3 -5 3 -39 6 -77
8 -38 2 -73 6 -79 10 -6 3 -11 1 -11 -6 0 -7 -7 -4 -15 7 -14 18 -16 18 -50
-18 -35 -38 -55 -48 -55 -28 0 12 -61 41 -72 34 -17 -10 -88 -11 -88 -1 0 6
-6 3 -13 -7 -10 -14 -22 -17 -48 -14 -18 3 -47 -1 -64 -8 -26 -11 -33 -10 -54
7 -15 12 -31 17 -44 13 -13 -4 -17 -2 -13 5 4 6 -3 15 -18 21 -28 10 -56 4
-56 -12 0 -7 -15 -8 -41 -4 -28 4 -38 3 -34 -4 8 -12 -32 -10 -53 3 -7 5 -14
3 -17 -6 -4 -9 -16 -12 -37 -9 -26 4 -30 2 -25 -12 5 -12 1 -16 -16 -16 -13 0
-29 -6 -35 -12 -19 -19 -72 -19 -111 -1 -25 11 -39 12 -55 5 -28 -14 -137 -24
-263 -26 -57 0 -103 -5 -103 -9 0 -11 -60 2 -77 15 -9 7 -13 7 -13 -2 0 -7 -6
-10 -14 -7 -8 3 -29 2 -47 -3 -17 -5 -37 -6 -43 -3 -14 9 -46 11 -46 4 0 -4
-118 -6 -262 -6 -145 0 -270 -3 -278 -6 -26 -12 -341 8 -393 25 -27 8 -55 12
-63 9 -14 -5 -20 -63 -6 -63 7 0 9 -72 13 -363 1 -76 5 -140 10 -142 4 -3 -3
-17 -17 -32 -22 -23 -24 -35 -24 -114 0 -49 4 -89 8 -89 5 0 9 -44 10 -98 1
-53 4 -121 8 -151 4 -29 8 -74 10 -100 5 -64 9 -93 18 -114 5 -9 6 -28 4 -41
-3 -13 2 -59 9 -102 15 -83 19 -112 27 -206 2 -32 8 -67 12 -80 9 -29 12 -148
3 -148 -12 0 3 -129 22 -185 1 -5 0 -32 -5 -58 -6 -39 -4 -55 13 -88 25 -47
26 -53 6 -46 -8 4 -17 2 -20 -3 -4 -6 0 -10 7 -10 10 0 9 -3 -1 -9 -12 -8 -12
-12 -3 -24 7 -8 16 -39 19 -68 6 -50 5 -53 -10 -40 -10 7 -17 26 -17 42 0 19
-5 29 -15 29 -11 0 -14 7 -9 25 4 16 0 35 -11 52 -16 24 -16 26 -1 20 20 -8
35 21 17 33 -14 8 -35 153 -28 182 3 10 1 18 -5 18 -6 0 -7 7 -4 16 3 9 -4 24
-19 38 -29 27 -31 36 -10 36 17 0 20 17 4 22 -7 2 -7 12 0 31 13 33 -2 72 -24
63 -9 -3 -12 0 -9 9 3 7 1 22 -5 34 -10 17 -8 19 13 15 22 -4 25 -1 24 26 -1
21 -4 27 -12 21 -7 -6 -18 -6 -25 -2 -9 6 -10 11 -2 15 15 10 14 42 -3 58 -8
9 -14 40 -16 79 -3 103 -8 158 -14 174 -4 11 2 15 18 15 20 0 25 6 28 35 2 19
-1 55 -7 80 -7 24 -10 68 -7 96 4 45 2 51 -12 46 -19 -8 -21 11 -5 47 10 21 8
31 -17 70 -15 24 -32 42 -36 40 -4 -3 -8 8 -8 24 0 17 6 32 13 35 16 6 21 58
7 67 -7 5 -8 20 -2 48 8 32 7 44 -4 53 -8 7 -11 21 -7 40 3 18 0 38 -11 53
-10 16 -12 27 -6 31 6 4 2 18 -10 35 -15 20 -21 48 -24 103 -2 41 -8 83 -14
94 -6 10 -15 50 -20 89 -9 59 -8 71 6 81 9 7 11 13 6 13 -6 0 -9 26 -8 64 2
56 -1 65 -17 69 -10 3 -19 10 -19 16 0 9 6 9 22 0 18 -10 20 -9 15 6 -4 9 -7
19 -7 21 0 2 -7 4 -15 4 -8 0 -15 4 -15 8 0 4 -12 15 -28 24 -15 9 -38 27 -52
40 -13 13 -27 23 -30 24 -35 6 -84 49 -95 84 -4 11 -14 19 -22 18 -27 -5 -24
16 4 37 21 15 48 20 118 23 118 4 121 6 100 38 -10 16 -14 35 -11 50 9 33 -3
72 -22 79 -20 6 -67 109 -57 125 4 6 2 17 -5 24 -7 9 -9 43 -6 92 2 51 -1 88
-9 108 -13 30 -36 194 -41 288 -1 25 -5 51 -8 57 -9 13 -9 202 -1 224 4 10 3
17 -4 17 -7 0 -11 27 -11 75 0 43 4 75 10 75 6 0 10 9 10 20 0 14 -5 18 -17
13 -16 -6 -16 -5 -5 10 12 14 11 29 -2 97 -10 45 -14 90 -11 101 4 11 1 26 -5
34 -6 8 -9 23 -5 34 3 10 1 22 -5 26 -5 3 -10 17 -10 31 0 20 -5 24 -29 24
-17 0 -32 4 -35 9 -5 8 -99 22 -173 26 -18 1 -41 9 -50 17 -13 11 -63 20 -173
31 -85 8 -158 13 -162 10 -4 -2 -5 4 -1 13 5 13 2 16 -13 12 -11 -3 -25 1 -33
9 -7 8 -29 13 -55 12 -23 -2 -47 0 -52 4 -5 3 -24 -1 -42 -10 -25 -12 -35 -13
-47 -3 -8 6 -20 8 -26 4 -7 -4 -9 -3 -6 3 10 15 -59 26 -82 13 -28 -14 -41
-12 -35 5 5 11 2 13 -10 9 -9 -3 -16 -1 -16 5 0 6 -11 11 -25 11 -18 0 -23 4
-18 16 4 12 14 14 39 9 19 -3 43 -1 54 5 19 10 20 9 14 -16 -6 -25 -5 -27 17
-19 29 10 83 10 207 0 75 -6 92 -5 90 5 -2 8 5 16 15 18 13 3 17 -1 15 -15 -2
-14 4 -18 31 -20 19 -1 37 -7 41 -14 6 -9 17 -7 47 8 25 13 45 17 58 12 11 -4
16 -8 10 -8 -15 -1 -15 -51 0 -51 8 0 16 4 20 10 3 5 12 7 19 4 8 -3 16 4 20
18 4 18 8 20 15 9 6 -9 24 -12 66 -8 57 5 125 -9 125 -25 0 -4 21 -7 46 -6 28
1 49 -4 54 -11 4 -7 18 -11 31 -9 22 3 25 9 31 68 3 36 2 83 -2 105 -5 22 -11
72 -14 112 -4 40 -9 78 -11 85 -15 39 -35 227 -36 338 0 58 -4 110 -9 115 -12
15 -42 493 -40 640 1 72 1 137 0 145 -1 8 -4 77 -6 152 -4 106 -2 149 10 189
9 29 16 69 16 88 0 20 11 73 24 117 14 52 20 88 14 97 -5 10 -4 18 2 22 7 4 8
25 4 56 -5 34 -3 49 5 49 6 0 11 13 11 29 0 42 10 61 31 61 20 0 26 24 8 35
-6 4 -8 13 -5 21 3 7 0 17 -6 20 -8 5 -5 10 8 15 10 4 -437 8 -993 8 l-1013 1
0 -3500z m910 1020 c12 -8 12 -10 -5 -9 -11 0 -29 4 -40 9 -18 8 -18 9 5 9 14
0 32 -4 40 -9z m3597 -2062 c-3 -8 -6 -5 -6 6 -1 11 2 17 5 13 3 -3 4 -12 1
-19z"/>
<path d="M2293 4202 c-14 -28 -16 -42 -9 -45 7 -3 13 -33 14 -72 1 -37 5 -72
9 -78 4 -6 6 -30 4 -54 -1 -24 2 -43 6 -43 5 0 10 -28 11 -62 2 -34 6 -67 10
-73 8 -11 8 -18 16 -125 3 -41 11 -97 18 -125 6 -28 12 -137 14 -248 1 -120 7
-216 14 -242 7 -25 10 -52 6 -61 -3 -9 -2 -22 4 -29 9 -11 21 -137 20 -217 -1
-21 0 -38 2 -38 163 -19 315 -30 393 -28 55 1 116 2 136 1 41 -1 79 -28 79
-56 0 -16 6 -17 43 -12 24 4 72 8 108 9 35 1 71 6 79 11 8 5 76 10 150 11 74
0 147 4 163 8 15 5 27 4 27 0 0 -5 20 -8 45 -6 28 3 45 9 45 17 0 9 26 13 103
15 156 2 267 2 317 0 25 -2 83 0 130 2 47 3 90 2 95 -2 6 -5 53 -10 105 -13
52 -3 104 -9 114 -13 11 -4 17 -4 14 2 -7 10 138 11 162 0 24 -10 219 -14 222
-4 5 14 98 -3 98 -18 0 -9 13 -15 33 -16 86 -5 97 -4 97 3 0 5 7 9 15 9 8 0
15 -4 15 -9 0 -13 32 -23 42 -13 7 7 -20 45 -39 53 -8 4 -201 211 -288 310
-22 24 -52 51 -67 58 -15 8 -43 29 -63 47 -19 17 -42 35 -50 38 -8 3 -20 17
-27 31 -7 16 -25 29 -50 37 -21 6 -50 22 -64 35 -14 13 -31 23 -39 23 -8 0
-18 6 -22 13 -10 15 -48 37 -65 37 -7 0 -19 9 -25 19 -13 20 -143 101 -163
101 -6 0 -44 23 -85 50 -41 28 -77 50 -80 50 -4 0 -34 21 -68 48 -85 65 -158
112 -177 112 -9 0 -26 7 -39 16 -13 9 -31 18 -40 18 -14 2 -88 33 -133 57 -10
5 -23 9 -30 9 -6 0 -19 6 -27 13 -9 7 -45 26 -81 42 -36 15 -85 37 -109 48
-29 14 -46 17 -48 10 -5 -15 -42 -4 -79 24 -17 12 -36 23 -43 23 -10 0 -33 10
-71 32 -8 4 -22 11 -30 14 -8 3 -51 21 -95 39 -44 18 -91 36 -105 40 -14 4
-34 18 -45 30 -19 22 -82 44 -210 74 -27 6 -81 24 -118 38 -54 21 -72 24 -87
16 -16 -11 -47 1 -70 26 -3 3 -14 7 -25 8 -11 1 -36 4 -56 8 -34 7 -37 5 -56
-33z"/>
</g>
</svg>
